<svg width="920" height="434" viewBox="0 0 920 434" xmlns="http://www.w3.org/2000/svg"><title>Group</title><g fill="none" fill-rule="evenodd"><path fill="#FFE366" d="M278.544 144.651h64.823v278.776h-64.823zM378.544 195.651h64.823v227.305h-64.823zM478.544 121.651h64.823v304.601h-64.823zM796.4 176.92l43.008 43.008-206.72 206.72-43.008-43.008zM79.544 48.651h64.823v377.292H79.544zM180.544 96.784h64.823v328.752h-64.823z"/><path stroke="#E1B803" stroke-width="2" d="M10.544.651v424.843h908.98"/><g fill="#E1B803"><path d="M112 426h1v8h-1zM311 424h1v8h-1zM411 426h1v8h-1zM511 426h1v8h-1zM611 424h1v8h-1zM213 426h1v8h-1z"/></g><g fill="#E1B803"><path d="M2 308v-1h8v1zM0 109v-1h8v1zM2 9V8h8v1z"/></g></g></svg>