<?xml version="1.0" encoding="UTF-8"?>
<svg width="30px" height="44px" viewBox="0 0 30 44" version="1.1" xmlns="http://www.w3.org/2000/svg" xmlns:xlink="http://www.w3.org/1999/xlink">
    <!-- Generator: sketchtool 42 (36781) - http://www.bohemiancoding.com/sketch -->
    <title>7018EB29-E4DC-49F3-97DE-0A781C244487</title>
    <desc>Created with sketchtool.</desc>
    <defs></defs>
    <g id="Tender-detail" stroke="none" stroke-width="1" fill="none" fill-rule="evenodd">
        <g transform="translate(-535.000000, -415.000000)" id="ic_award-criteria" fill-rule="nonzero" fill="#999999">
            <g transform="translate(535.000000, 415.000000)">
                <g id="Group">
                    <g id="Page-1">
                        <g id="icon-34-award">
                            <path d="M14.1186643,27.8551657 L8.21550781,43.233414 L5.68457286,37.5488411 L0,40.079776 L5.83425323,24.8810267 C8.15243865,26.644184 11.0113752,27.7330281 14.1186698,27.8551658 L14.1186643,27.8551657 L14.1186643,27.8551657 Z M23.5755017,24.8810267 L29.409755,40.079776 L23.7251821,37.5488411 L21.1942472,43.233414 L15.2910908,27.8551657 C18.3983797,27.7330281 21.2573164,26.644184 23.5755017,24.8810267 L23.5755017,24.8810267 L23.5755017,24.8810267 Z M14.7048774,26.4 C21.9950362,26.4 27.9048774,20.4901586 27.9048774,13.2 C27.9048774,5.9098413 21.9950362,0 14.7048774,0 C7.41471881,0 1.50487748,5.9098413 1.50487748,13.2 C1.50487748,20.4901586 7.41471881,26.4 14.7048774,26.4 L14.7048774,26.4 Z M14.7048774,17.148718 L9.57154411,20.5333333 L11.7715441,14.6666667 L7.37154411,11.7333333 L12.5048774,11.7333333 L14.7048774,5.86666667 L16.9048774,11.7333333 L22.0382108,11.7333333 L17.6382108,14.6666667 L19.8382108,20.5333333 L14.7048774,17.148718 L14.7048774,17.148718 Z" id="award"></path>
                        </g>
                    </g>
                </g>
            </g>
        </g>
    </g>
</svg>