<?xml version="1.0" encoding="UTF-8"?>
<svg width="44px" height="44px" viewBox="0 0 44 44" version="1.1" xmlns="http://www.w3.org/2000/svg" xmlns:xlink="http://www.w3.org/1999/xlink">
    <!-- Generator: sketchtool 42 (36781) - http://www.bohemiancoding.com/sketch -->
    <title>AC21CD9C-281F-4A73-9F92-4D0997BF831B</title>
    <desc>Created with sketchtool.</desc>
    <defs></defs>
    <g id="Tender-detail" stroke="none" stroke-width="1" fill="none" fill-rule="evenodd">
        <g transform="translate(-525.000000, -530.000000)" id="ic_eligibility-criteria">
            <g transform="translate(525.000000, 530.000000)">
                <circle id="Oval-2" fill="#999999" cx="22" cy="22" r="22"></circle>
                <path d="M38.00025,20.4812349 C38.00025,21.0312349 37.55025,21.4812349 37.00025,21.4812349 L22.00025,21.4812349 C21.45025,21.4812349 21.00025,21.0312349 21.00025,20.4812349 L21.00025,20.4812349 C21.00025,19.9312349 21.45025,19.4812349 22.00025,19.4812349 L37.00025,19.4812349 C37.55025,19.4812349 38.00025,19.9312349 38.00025,20.4812349 L38.00025,20.4812349 Z" id="Shape" fill="#DCDBDB" fill-rule="nonzero"></path>
                <path d="M32.00025,25.4812349 C32.00025,26.0312349 31.55025,26.4812349 31.00025,26.4812349 L22.00025,26.4812349 C21.45025,26.4812349 21.00025,26.0312349 21.00025,25.4812349 L21.00025,25.4812349 C21.00025,24.9312349 21.45025,24.4812349 22.00025,24.4812349 L31.00025,24.4812349 C31.55025,24.4812349 32.00025,24.9312349 32.00025,25.4812349 L32.00025,25.4812349 Z" id="Shape" fill="#DCDBDB" fill-rule="nonzero"></path>
                <path d="M11.06725,27.4812349 L7.29325,23.7072349 C6.90225,23.3172349 6.90225,22.6832349 7.29325,22.2932349 C7.68425,21.9022349 8.31725,21.9022349 8.70725,22.2932349 L10.93325,24.5192349 L15.23225,19.3602349 C15.58625,18.9352349 16.21625,18.8782349 16.64025,19.2322349 C17.06425,19.5862349 17.12225,20.2162349 16.76825,20.6402349 L11.06725,27.4812349 Z" id="Shape" fill="#DCDBDB" fill-rule="nonzero"></path>
            </g>
        </g>
    </g>
</svg>