<svg width="47" height="45" viewBox="0 0 47 45" xmlns="http://www.w3.org/2000/svg" xmlns:xlink="http://www.w3.org/1999/xlink"><title>ic_government</title><defs><path id="a" d="M1.862.407l8.633 5.572c-.377-.233-.808-.551-1.319-.502L.521.12c.511-.049.965.054 1.341.287z"/><path id="c" d="M.657 8.667C.601 5.958 2.383 2.468 4.633.897 5.282.439 5.922.177 6.52.12l8.655 5.357c-.599.058-1.238.319-1.887.777-2.25 1.571-4.032 5.061-3.976 7.77"/><path id="e" d="M1.862.407l8.633 5.572c-.377-.233-.808-.551-1.319-.502L.521.12c.511-.049.965.054 1.341.287z"/><path id="g" d="M.657 8.667C.601 5.958 2.383 2.468 4.633.897 5.282.439 5.922.177 6.52.12l8.655 5.357c-.599.058-1.238.319-1.887.777-2.25 1.571-4.032 5.061-3.976 7.77"/><path id="i" d="M3.46.802L20.157 11.58c-.729-.451-1.562-1.066-2.552-.97L.865.248c.99-.095 1.866.103 2.595.554z"/><path id="k" d="M.523 17.402C.415 12.164 3.863 4.79 8.215 1.752 9.47.866 10.707.36 11.865.249l16.74 10.361c-1.158.111-2.395.617-3.65 1.503-4.352 3.038-7.798 9.789-7.69 15.027"/></defs><g fill="none" fill-rule="evenodd"><path d="M0 30.647L24.372 16.63l21.684 13.6L22.6 43.633 0 30.647z" fill="#DCDBDB"/><path d="M0 30.647v1.368L22.6 45v-1.367L0 30.647z" fill="#6C6C6D"/><path d="M46.056 30.23v1.367L22.6 45v-1.367L46.056 30.23z" fill="#939598"/><path d="M5.362 22.409v8.2l2.367 1.367v-8.202l-2.367-1.365z" fill="#606161"/><path d="M7.729 23.776l2.368-1.367-2.368-1.368-2.367 1.368 2.367 1.367z" stroke="#939598" stroke-width=".148"/><path d="M7.729 31.976l2.368-1.366v-8.201l-2.368 1.367v8.2z" fill="#C2C3C4"/><path d="M10.515 25.383v8.2l2.367 1.367v-8.202l-2.367-1.365z" fill="#606161"/><path d="M12.882 26.75l2.368-1.367-2.368-1.367-2.367 1.367 2.367 1.367z" stroke="#939598" stroke-width=".148"/><path d="M12.882 34.95l2.368-1.365v-8.202l-2.368 1.367v8.2z" fill="#C2C3C4"/><path d="M15.668 28.357v8.2l2.367 1.368v-8.202l-2.367-1.366z" fill="#606161"/><path d="M18.035 29.724l2.367-1.367-2.367-1.367-2.367 1.367 2.367 1.367z" stroke="#939598" stroke-width=".148"/><path d="M18.035 37.925l2.367-1.366v-8.202l-2.367 1.367v8.201z" fill="#C2C3C4"/><path d="M20.82 31.331v8.2l2.368 1.368v-8.202l-2.368-1.366z" fill="#606161"/><path d="M23.188 32.698l2.367-1.367-2.367-1.367-2.368 1.367 2.368 1.367z" stroke="#939598" stroke-width=".148"/><path d="M23.188 40.899l2.367-1.366v-8.202l-2.367 1.367v8.201z" fill="#C2C3C4"/><path d="M20.82 13.428v8.2l2.368 1.368v-8.202l-2.368-1.366z" fill="#818182"/><path d="M23.188 14.795l2.367-1.367-2.367-1.367-2.368 1.367 2.368 1.367z" stroke="#939598" stroke-width=".148"/><path d="M23.188 22.996l2.367-1.366v-8.202l-2.367 1.367v8.201z" fill="#C2C3C4"/><path d="M25.973 16.402v8.2l2.368 1.368v-8.202l-2.368-1.366z" fill="#818182"/><path d="M28.341 17.769l2.367-1.367-2.367-1.367-2.368 1.367 2.368 1.367z" stroke="#939598" stroke-width=".148"/><path d="M28.341 25.97l2.367-1.366v-8.202l-2.367 1.367v8.201z" fill="#C2C3C4"/><path d="M31.126 19.376v8.201l2.368 1.367v-8.202l-2.368-1.366z" fill="#818182"/><path d="M33.494 20.743l2.367-1.367-2.367-1.367-2.368 1.367 2.368 1.367z" stroke="#939598" stroke-width=".148"/><path d="M33.494 28.944l2.367-1.366v-8.202l-2.367 1.367v8.201z" fill="#C2C3C4"/><path d="M36.279 22.35v8.201l2.367 1.367v-8.202l-2.367-1.366z" fill="#6C6C6D"/><path d="M38.646 23.718l2.368-1.368-2.368-1.367-2.367 1.367 2.367 1.368z" stroke="#939598" stroke-width=".148"/><path d="M38.646 31.918l2.368-1.366V22.35l-2.368 1.368v8.2z" fill="#C2C3C4"/><path d="M18.035 11.149v2.976l20.611 11.9V23.05L18.035 11.149zM5.153 18.587l2.576-1.488 20.805 11.788-5.346 3.088L2.576 20.073l2.577-1.486z" fill="#818281"/><path d="M20.515 9.744l2.576-1.488 20.805 11.789-5.346 3.087L17.938 11.23l2.577-1.486z" fill="#818281"/><g><g transform="translate(25 12)"><mask id="b" fill="#fff"><use xlink:href="#a"/></mask><g mask="url(#b)"><path d="M9.176 5.478L.521.121c.51-.049.963.053 1.339.285l8.633 5.572c-.377-.232-.807-.55-1.317-.5" fill="#878887"/><path d="M10.518 5.983L1.86.405l.002.002 8.656 5.576-.025-.005" fill="#848584"/></g></g><path d="M28.313 26.025c-.056-2.709 1.726-6.199 3.976-7.77.649-.458 1.289-.72 1.887-.777 1.504-.145 2.508 1.834 2.548 3.776m-.506.319c-.034-1.654-.812-3.697-2.032-3.579-.504.048-1.072.285-1.641.684-2.112 1.479-3.785 4.5-3.732 7.046" fill="#ADADAB"/><g transform="translate(19 12)"><mask id="d" fill="#fff"><use xlink:href="#c"/></mask><g mask="url(#d)"><path d="M.657 8.667c-.036-1.73.678-3.778 1.784-5.442l8.655 5.357c-1.106 1.664-1.82 3.712-1.784 5.442" fill="#747575"/><path d="M11.097 8.583L2.442 3.226c.314-.472.659-.912 1.027-1.306l8.655 5.357c-.368.394-.713.834-1.027 1.306" fill="#777878"/><path d="M12.124 7.277L3.469 1.92c.263-.281.538-.539.823-.766l8.655 5.357a7.828 7.828 0 0 0-.823.766" fill="#7B7C7B"/><path d="M12.947 6.511L4.292 1.154a6.337 6.337 0 0 1 .714-.498l8.655 5.357a6.207 6.207 0 0 0-.714.498" fill="#7E7F7E"/><path d="M13.661 6.013L5.006.656c.204-.121.407-.223.607-.304l8.655 5.357c-.2.081-.403.183-.607.304" fill="#818281"/><path d="M14.268 5.709L5.613.352a3.45 3.45 0 0 1 .615-.188l8.655 5.357a3.508 3.508 0 0 0-.615.188" fill="#848584"/><path d="M14.883 5.521L6.228.164c.099-.02.196-.034.293-.044l8.655 5.357c-.097.01-.194.024-.293.044" fill="#878887"/></g></g></g><path d="M2.576 20.073L23.091 8.256l20.805 11.789-20.708 11.93L2.576 20.073z" fill="#C2C3C4"/><path d="M23.188 29l15.458-8.927L20.611 9.688 5.153 18.589 23.188 29z" fill="#818281"/><path d="M38.646 20.073l-10.335-6 .03-5.9 7.938 4.871 2.298 4.055.069 2.974z" fill="#606161"/><path d="M36.294 21.588l-5.858-3.401.017-3.343 4.499 2.761 1.302 2.298.04 1.685z" fill="#606161"/><g><g transform="translate(25 12)"><mask id="f" fill="#fff"><use xlink:href="#e"/></mask><g mask="url(#f)"><path d="M9.176 5.478L.521.121c.51-.049.963.053 1.339.285l8.633 5.572c-.377-.232-.807-.55-1.317-.5" fill="#878887"/><path d="M10.518 5.983L1.86.405l.002.002 8.656 5.576-.025-.005" fill="#848584"/></g></g><path d="M28.313 26.025c-.056-2.709 1.726-6.199 3.976-7.77.649-.458 1.289-.72 1.887-.777 1.504-.145 2.508 1.834 2.548 3.776m-.506.319c-.034-1.654-.812-3.697-2.032-3.579-.504.048-1.072.285-1.641.684-2.112 1.479-3.785 4.5-3.732 7.046" fill="#ADADAB"/><g transform="translate(19 12)"><mask id="h" fill="#fff"><use xlink:href="#g"/></mask><g mask="url(#h)"><path d="M.657 8.667c-.036-1.73.678-3.778 1.784-5.442l8.655 5.357c-1.106 1.664-1.82 3.712-1.784 5.442" fill="#747575"/><path d="M11.097 8.583L2.442 3.226c.314-.472.659-.912 1.027-1.306l8.655 5.357c-.368.394-.713.834-1.027 1.306" fill="#777878"/><path d="M12.124 7.277L3.469 1.92c.263-.281.538-.539.823-.766l8.655 5.357a7.828 7.828 0 0 0-.823.766" fill="#7B7C7B"/><path d="M12.947 6.511L4.292 1.154a6.337 6.337 0 0 1 .714-.498l8.655 5.357a6.207 6.207 0 0 0-.714.498" fill="#7E7F7E"/><path d="M13.661 6.013L5.006.656c.204-.121.407-.223.607-.304l8.655 5.357c-.2.081-.403.183-.607.304" fill="#818281"/><path d="M14.268 5.709L5.613.352a3.45 3.45 0 0 1 .615-.188l8.655 5.357a3.508 3.508 0 0 0-.615.188" fill="#848584"/><path d="M14.883 5.521L6.228.164c.099-.02.196-.034.293-.044l8.655 5.357c-.097.01-.194.024-.293.044" fill="#878887"/></g></g></g><g><g transform="translate(17 2)"><mask id="j" fill="#fff"><use xlink:href="#i"/></mask><g mask="url(#j)"><path d="M17.605 10.609L.865.248C1.852.153 2.727.35 3.454.799L20.15 11.576c-.726-.448-1.558-1.062-2.545-.967" fill="#878887"/><path d="M20.2 11.587L3.455.799l.005.003L20.2 11.587l-.049-.011" fill="#848584"/></g></g><path d="M23.265 29.14c-.108-5.238 3.338-11.989 7.69-15.027 1.255-.886 2.492-1.392 3.65-1.503 2.908-.279 4.85 3.547 4.927 7.303m-.977.616c-.066-3.199-1.57-7.15-3.929-6.923-.975.094-2.074.55-3.174 1.322-4.085 2.859-7.32 8.703-7.218 13.627" fill="#ADADAB"/><g transform="translate(6 2)"><mask id="l" fill="#fff"><use xlink:href="#k"/></mask><g mask="url(#l)"><path d="M.523 17.402c-.069-3.345 1.314-7.93 3.454-11.148l16.74 10.361c-2.14 3.218-3.52 7.18-3.451 10.525" fill="#747575"/><path d="M20.716 16.615L3.977 6.254a19.5 19.5 0 0 1 1.987-2.526l16.74 10.361a19.506 19.506 0 0 0-1.988 2.526" fill="#777878"/><path d="M22.703 14.089L5.964 3.728a15.163 15.163 0 0 1 1.591-1.482l16.74 10.361c-.55.44-1.083.938-1.592 1.482" fill="#7B7C7B"/><path d="M24.294 12.607L7.555 2.246a13.063 13.063 0 0 1 1.381-.963l16.74 10.361a12.65 12.65 0 0 0-1.382.963" fill="#7E7F7E"/><path d="M25.674 11.645L8.935 1.284a8.813 8.813 0 0 1 1.174-.588l16.74 10.361c-.388.157-.78.353-1.175.588" fill="#818281"/><path d="M26.848 11.057L10.109.696c.403-.163.8-.285 1.19-.363l16.74 10.361c-.39.079-.788.2-1.191.363" fill="#848584"/><path d="M28.038 10.694L11.299.333c.191-.038.38-.067.567-.085l16.74 10.361a5.413 5.413 0 0 0-.568.085" fill="#878887"/></g></g></g><path d="M2.576 20.073v2.976l20.612 11.9v-2.974L2.576 20.073zM43.896 20.045l-.045 2.974-20.663 11.93v-2.974l20.708-11.93z" fill="#818281"/><g><path d="M29.978 2.67l.73.421v8.433l-.73-.422V2.67z" fill="#606161"/><path d="M31.438 2.67l-.73.421-.73-.421.73-.422.73.422z" fill="#6C6C6D"/><path d="M30.708 11.524l.73-.422V2.67l-.73.421v8.433z" fill="#818281"/></g><path d="M31.438 2.67L35.495.405V2.67l-4.057 2.483V2.67z" fill="#C2C3C4"/><path d="M34.765 0l.73.405-4.057 2.265-.715-.413L34.765 0z" fill="#818281"/></g></svg>