<?xml version="1.0" encoding="UTF-8"?>
<svg width="19px" height="13px" viewBox="0 0 19 13" version="1.1" xmlns="http://www.w3.org/2000/svg" xmlns:xlink="http://www.w3.org/1999/xlink">
    <!-- Generator: Sketch 43.1 (39012) - http://www.bohemiancoding.com/sketch -->
    <title>img_71211</title>
    <desc>Created with Sketch.</desc>
    <defs></defs>
    <g id="Contract-detail" stroke="none" stroke-width="1" fill="none" fill-rule="evenodd">
        <g id="PPTN_UI_contract-listing-Copy" transform="translate(-297.000000, -320.000000)" fill-rule="nonzero" fill="#4A4A4A">
            <g id="img_71211" transform="translate(296.000000, 320.000000)">
                <path d="M17.5036156,0.909090909 C16.9353012,0.909090909 16.426363,1.15507772 16.0743474,1.54526369 L16.0701062,1.54102254 L10.3615158,7.76703353 L4.65292533,1.54102254 L4.64868418,1.54526369 C4.29242742,1.15507772 3.78773035,0.909090909 3.21941599,0.909090909 C2.14216341,0.909090909 1.27272727,1.7827682 1.27272727,2.85577963 C1.27272727,3.36471786 1.47206141,3.82276226 1.7901478,4.17053672 L1.78590665,4.17477787 L8.92800645,11.9700151 C9.29698666,12.3729245 9.81864834,12.6019467 10.3657569,12.6019467 C10.9128655,12.6019467 11.4302861,12.3729245 11.7992663,11.9700151 L18.9413661,4.17901902 L18.9371249,4.17477787 C19.2552113,3.82700341 19.4545455,3.36895901 19.4545455,2.86002078 C19.4545455,1.7827682 18.5808682,0.909090909 17.5036156,0.909090909 Z" id="Shape"></path>
            </g>
        </g>
    </g>
</svg>