<svg width="43" height="43" viewBox="0 0 43 43" xmlns="http://www.w3.org/2000/svg"><title>ic_contractor</title><g fill="#000" fill-rule="evenodd" opacity=".4"><path d="M23.212 9.142c-.012.125-.028.248-.028.374 0 2.947 2.287 5.334 5.107 5.334 2.82 0 5.106-2.388 5.106-5.334 0-.127-.018-.25-.026-.374H23.21zM34.782 6.876c-.334-2.961-2.045-5.39-4.335-6.34v4.556a.488.488 0 0 1-.976 0V.229A5.486 5.486 0 0 0 28.307.1c-.394 0-.779.05-1.154.131v4.862a.488.488 0 1 1-.975 0V.538c-2.286.955-4.008 3.393-4.364 6.338h-1.687v1.269h16.347v-1.27h-1.692z"/><path d="M35.169 16.174h-2.196l-3.389 7.532v-7.681h-2.342v7.605l-3.357-7.461-2.193-.001c-3.572 0-6.315 2.58-6.898 6.022l-2.813-9.77a.682.682 0 0 0-.496-.474l-4.638-1.118c-1.462-.166-2.642.057-3.604.683-1.133.737-1.934 1.785-2.253 2.954-.299 1.092-.136 2.23.411 3.259.007.017.005.035.013.053l6.313 13.5-.437.214c-3.172 1.56-.907 6.164 2.265 4.603l.346-.17 2.199 4.702c.355.76 1.037 1.366 1.87 1.662.393.139.809.207 1.235.207.654 0 1.335-.162 1.992-.483 1.888-.922 2.729-2.865 1.956-4.522l-.032-.067a.686.686 0 0 0-.021-.274l-.462-1.602c.317-.415.53-.963.53-1.68V24.03h1.43l-.002 17.516h15.941l.006-17.516h1.4v15.03c0 3.427 4.468 3.427 4.46 0V23.666c0-3.784-2.804-7.493-7.234-7.493zM2.746 17.363c-.521-.802-.672-1.68-.438-2.538.23-.844.827-1.614 1.68-2.168.695-.453 1.551-.602 2.621-.486l4.169 1.009 4.794 16.652-6.831-14.61c-.012-.025-.033-.041-.047-.064a3.497 3.497 0 0 0-.322-.627 2.912 2.912 0 0 0-4.024-.85 2.467 2.467 0 0 0-.722 3.407 2.111 2.111 0 0 0 2.914.618 1.826 1.826 0 0 0 .535-2.52 1.602 1.602 0 0 0-.376-.406c.206.118.388.284.526.497a2.1 2.1 0 0 1-.613 2.903 2.799 2.799 0 0 1-3.866-.817zM16.6 40.783c-.755.369-1.527.442-2.172.216-.49-.174-.888-.52-1.09-.952l-2.21-4.725.115-.057c3.173-1.557.908-6.164-2.264-4.602l-.023.012-5.09-10.882c1.14.35 2.416.23 3.492-.467a3.43 3.43 0 0 0 1.176-1.324l9.381 20.066c.45.963-.116 2.13-1.315 2.715z"/></g></svg>