<?xml version="1.0" encoding="UTF-8"?>
<svg width="28px" height="32px" viewBox="0 0 28 32" version="1.1" xmlns="http://www.w3.org/2000/svg" xmlns:xlink="http://www.w3.org/1999/xlink">
    <!-- Generator: Sketch 41 (35326) - http://www.bohemiancoding.com/sketch -->
    <title>ic_csv</title>
    <desc>Created with Sketch.</desc>
    <defs></defs>
    <g id="Page-1" stroke="none" stroke-width="1" fill="none" fill-rule="evenodd">
        <g id="ic_csv" fill="#615B5B">
            <g id="Page-1">
                <g id="noun_631188_cc">
                    <g id="Group">
                        <path d="M5.49534694,23.7471021 C5.22106122,23.8842449 4.60391837,24.0311837 3.80081633,24.0311837 C1.51853062,24.0311837 0.343020408,22.6109387 0.343020408,20.7301224 C0.343020408,18.4768979 1.94938776,17.2231837 3.9477551,17.2231837 C4.72163265,17.2231837 5.30922449,17.3800816 5.57371429,17.5172245 L5.27004081,18.7025306 C4.96636735,18.575347 4.54514286,18.4576327 4.01616327,18.4576327 C2.83085714,18.4576327 1.91020408,19.1728979 1.91020408,20.6419592 C1.91020408,21.9644081 2.69387755,22.7970613 4.02595919,22.7970613 C4.47657143,22.7970613 4.976,22.6989387 5.27004081,22.5817143 L5.49534694,23.7471021 Z" id="Shape"></path>
                        <path d="M6.52391837,22.3955919 C6.92555102,22.6014694 7.54269387,22.8071837 8.17942857,22.8071837 C8.86514286,22.8071837 9.22759184,22.5231021 9.22759184,22.0919184 C9.22759184,21.6804898 8.91412245,21.445551 8.12065306,21.1614694 C7.02351021,20.7794286 6.30840816,20.1719184 6.30840816,19.2124081 C6.30840816,18.0863673 7.24881633,17.2236735 8.80620408,17.2236735 C9.55069387,17.2236735 10.0992653,17.3805714 10.4909388,17.5565714 L10.1578776,18.7616327 C9.89338776,18.6346122 9.42318367,18.4481633 8.77665306,18.4481633 C8.13028571,18.4481633 7.81681633,18.7422041 7.81681633,19.0848979 C7.81681633,19.5061224 8.18906122,19.6920816 9.04130613,20.0151837 C10.2070204,20.4465306 10.7555918,21.053551 10.7555918,21.9841633 C10.7555918,23.0912653 9.90334694,24.0316735 8.0912653,24.0316735 C7.33697959,24.0316735 6.59248979,23.8355919 6.22040816,23.6298776 L6.52391837,22.3955919 Z" id="Shape"></path>
                        <path d="M11.2065306,17.3309387 L12.842449,17.3309387 L13.645551,20.1231021 C13.8710205,20.9069387 14.0767347,21.6610613 14.2334694,22.4839184 L14.2628571,22.4839184 C14.429551,21.6907755 14.6351021,20.9069387 14.8604081,20.1528163 L15.7028571,17.3317551 L17.2896327,17.3317551 L15.0662857,23.9338776 L13.3222857,23.9332245 L11.2065306,17.3309387 Z" id="Shape"></path>
                        <path d="M18.1812245,7.25746938 L22.9391021,7.25746938 C21.5115102,5.25322449 18.7180408,2.07722449 17.1377959,0.688489795 L17.1377959,6.06008163 C17.1376327,6.72032653 17.6057143,7.25746938 18.1812245,7.25746938 Z" id="Shape"></path>
                        <path d="M23.8334694,13.0502857 L23.8334694,8.95967347 L18.1812245,8.95967347 C16.7882449,8.95967347 15.6542041,7.65893878 15.6542041,6.06008163 L15.6542041,0 L1.81469387,0 C0.828571429,0 0.0293877551,0.917061224 0.0293877551,2.04881633 L0.0293877551,8.35477551 L0.0331428571,8.35477551 L0.0331428571,14.3562449 L26.0540408,14.3562449 L26.0540408,26.6478367 L0.0333061224,26.6478367 L0.0333061224,29.7314286 C0.0724897959,30.8230205 0.853714286,31.6946938 1.81485714,31.6946938 L22.048653,31.6946938 C23.0346122,31.6946938 23.8337959,30.7773062 23.8337959,29.6458776 L23.8337959,27.9539592 L27.360653,27.9539592 L27.360653,13.0502857 L23.8334694,13.0502857 Z" id="Shape"></path>
                    </g>
                </g>
            </g>
        </g>
    </g>
</svg>