<svg width="39" height="45" viewBox="0 0 39 45" xmlns="http://www.w3.org/2000/svg"><title>ic_Box</title><g fill="none" fill-rule="evenodd"><path d="M0 11.253L19.486 22.5l19.486-11.247L19.486 0 0 11.253z" fill="#818182"/><path d="M19.486 45l19.486-11.247v-22.5L19.486 22.5V45z" fill="#DCDBDB"/><path d="M0 33.753L19.486 45V22.5L0 11.253v22.5z" fill="#606161"/><path d="M4.885 14.072v11.249l9.729 5.619V19.69L34.1 8.44l-9.743-5.451L4.885 14.072z" fill="#818182"/><path d="M14.614 19.69L34.1 8.44l-9.59-5.538-19.625 11.17 9.729 5.618z" fill="#DCDBDB"/><g fill="#C1C1BF"><path d="M10.042 17.052l-.609-.354L28.924 5.451l.62.357-19.502 11.244zM10.042 28.299l-.609-.351v-11.25l.609.354v11.247z"/></g></g></svg>