<?xml version="1.0" encoding="UTF-8"?>
<svg width="28px" height="32px" viewBox="0 0 28 32" version="1.1" xmlns="http://www.w3.org/2000/svg" xmlns:xlink="http://www.w3.org/1999/xlink">
    <!-- Generator: Sketch 41 (35326) - http://www.bohemiancoding.com/sketch -->
    <title>Group</title>
    <desc>Created with Sketch.</desc>
    <defs></defs>
    <g id="Page-1" stroke="none" stroke-width="1" fill="none" fill-rule="evenodd">
        <g id="ic_csv" fill="#615B5B">
            <g id="Page-1">
                <g id="noun_631188_cc">
                    <g id="Group">
                        <path d="M18.1812245,7.25746938 L22.9391021,7.25746938 C21.5115102,5.25322449 18.7180408,2.07722449 17.1377959,0.688489795 L17.1377959,6.06008163 C17.1376327,6.72032653 17.6057143,7.25746938 18.1812245,7.25746938 Z" id="Shape"></path>
                        <text id="JSON" font-family="Helvetica-Bold, Helvetica" font-size="9" font-weight="bold">
                            <tspan x="0" y="24">JSON</tspan>
                        </text>
                        <path d="M23.8334694,13.0502857 L23.8334694,8.95967347 L18.1812245,8.95967347 C16.7882449,8.95967347 15.6542041,7.65893878 15.6542041,6.06008163 L15.6542041,0 L1.81469387,0 C0.828571429,0 0.0293877551,0.917061224 0.0293877551,2.04881633 L0.0293877551,8.35477551 L0.0331428571,8.35477551 L0.0331428571,14.3562449 L26.0540408,14.3562449 L26.0540408,26.6478367 L0.0333061224,26.6478367 L0.0333061224,29.7314286 C0.0724897959,30.8230205 0.853714286,31.6946938 1.81485714,31.6946938 L22.048653,31.6946938 C23.0346122,31.6946938 23.8337959,30.7773062 23.8337959,29.6458776 L23.8337959,27.9539592 L27.360653,27.9539592 L27.360653,13.0502857 L23.8334694,13.0502857 Z" id="Shape"></path>
                    </g>
                </g>
            </g>
        </g>
    </g>
</svg>