<?xml version="1.0" encoding="UTF-8"?>
<svg width="18px" height="19px" viewBox="0 0 18 19" version="1.1" xmlns="http://www.w3.org/2000/svg" xmlns:xlink="http://www.w3.org/1999/xlink">
    <!-- Generator: Sketch 43.1 (39012) - http://www.bohemiancoding.com/sketch -->
    <title>Group 3</title>
    <desc>Created with Sketch.</desc>
    <defs></defs>
    <g id="Page-1" stroke="none" stroke-width="1" fill="none" fill-rule="evenodd">
        <g id="Artboard" transform="translate(-195.000000, -169.000000)" fill-rule="nonzero" fill="#515151">
            <g id="noun_974815_cc" transform="translate(195.000000, 169.000000)">
                <g id="Group">
                    <g id="Group-3">
                        <path d="M15.3317888,2.83618672 C12.7633395,0.248229827 8.90056579,-0.525973589 5.54468621,0.874588944 C2.18880662,2.27515148 0.000710117361,5.57466065 0.000710117361,9.23454929 C0.000710117361,12.8944379 2.18880662,16.1939471 5.54468621,17.5945096 C8.90056579,18.9950722 12.7633395,18.2208687 15.3317888,15.6329119 C17.0225921,13.9395038 17.9733316,11.6366164 17.9733316,9.23454929 C17.9733316,6.83248219 17.0225921,4.52959477 15.3317888,2.83618672 L15.3317888,2.83618672 Z M14.3385231,14.6321214 C11.3678487,17.5438871 6.62666335,17.5109567 3.69611131,14.5582035 C0.765559283,11.6054503 0.732876499,6.82834691 3.62274914,3.83516738 C5.5279076,1.86190351 8.33980746,1.07476997 10.9821583,1.77505215 C13.6245091,2.47533432 15.6881319,4.55459062 16.3831487,7.21695923 C17.0781656,9.87932784 16.2969504,12.71253 14.3385231,14.6321214 L14.3385231,14.6321214 Z" id="Shape"></path>
                        <g id="Group-2" transform="translate(4.684735, 3.881359)">
                            <path d="M6.88732216,0.705338673 C6.27126778,0.28549209 5.43968418,0.0665203803 4.42130857,0.0665203803 C3.11556066,0.0665203803 2.13849483,0.374166583 1.51525614,0.971362154 C0.896714105,1.58505597 0.514770051,2.40027022 0.437609998,3.27146994 L2.9880392,3.58816456 C3.06167836,3.0561176 3.20895666,2.68332279 3.43526235,2.44987361 C3.68188975,2.19890108 4.02062332,2.06198814 4.37101842,2.07164975 C4.65830907,2.05111664 4.94246559,2.14245058 5.16488441,2.32681513 C5.35238097,2.51380944 5.45171003,2.77257294 5.4378881,3.03802077 C5.4378881,3.34747665 5.23313533,3.66598096 4.80926118,4.0134402 C4.31785237,4.40473884 3.85228018,4.82789537 3.41550551,5.28021868 C3.22015722,5.50386616 3.06788474,5.76223564 2.96648628,6.04209546 C2.85477186,6.39761524 2.80375722,6.76966134 2.81561582,7.14238305 L2.81561582,7.29258679 L5.31575487,7.29258679 C5.31775119,6.99576779 5.38782675,6.70343238 5.52050764,6.43841615 C5.65700948,6.18687014 5.96773079,5.87017552 6.47063232,5.46842577 C7.15134547,4.92552071 7.607549,4.46948045 7.82487431,4.10211469 C8.03149694,3.76328331 8.14263934,3.37415317 8.14637207,2.97649153 C8.144576,2.02640766 7.73327438,1.28262772 6.88732216,0.705338673 Z" id="Shape"></path>
                            <ellipse id="Oval" cx="4.15908134" cy="9.60898173" rx="1.37220276" ry="1.38259823"></ellipse>
                        </g>
                    </g>
                </g>
            </g>
        </g>
    </g>
</svg>