<?xml version="1.0" encoding="UTF-8"?>
<svg width="13px" height="13px" viewBox="0 0 13 13" version="1.1" xmlns="http://www.w3.org/2000/svg" xmlns:xlink="http://www.w3.org/1999/xlink">
    <!-- Generator: Sketch 41 (35326) - http://www.bohemiancoding.com/sketch -->
    <title>Group</title>
    <desc>Created with Sketch.</desc>
    <defs></defs>
    <g id="Page-1" stroke="none" stroke-width="1" fill="none" fill-rule="evenodd">
        <g id="ic_sprite" transform="translate(-152.000000, 0.000000)" fill="#FFFFFF">
            <g id="Group-2">
                <g id="Page-2">
                    <g id="Artboard-6">
                        <g id="Group-2">
                            <g id="export" transform="translate(152.000000, 0.000000)">
                                <g id="Group">
                                    <path d="M11.96,7.306 L10.92,7.306 C10.608,7.306 10.4,7.514 10.4,7.826 L10.4,10.166 C10.4,10.322 10.296,10.426 10.14,10.426 L2.34,10.426 C2.184,10.426 2.08,10.322 2.08,10.166 L2.08,2.366 C2.08,2.21 2.184,2.106 2.34,2.106 L4.68,2.106 C4.992,2.106 5.2,1.898 5.2,1.586 L5.2,0.546 C5.2,0.234 4.992,0.026 4.68,0.026 L0.52,0.026 C0.208,0.026 0,0.234 0,0.546 L0,11.986 C0,12.298 0.208,12.506 0.52,12.506 L11.96,12.506 C12.272,12.506 12.48,12.298 12.48,11.986 L12.48,7.826 C12.48,7.514 12.272,7.306 11.96,7.306 L11.96,7.306 Z" id="Shape"></path>
                                    <path d="M11.96,0.026 L7.8,0.026 C7.488,0.026 7.28,0.234 7.28,0.546 L7.28,1.586 C7.28,1.898 7.488,2.106 7.8,2.106 L8.32,2.106 C8.528,2.106 8.684,2.366 8.528,2.574 L4.368,6.734 C4.16,6.942 4.16,7.254 4.368,7.462 L5.096,8.19 C5.304,8.398 5.616,8.398 5.824,8.19 L9.984,4.03 C10.14,3.874 10.452,3.978 10.452,4.238 L10.452,4.758 C10.452,5.07 10.66,5.278 10.972,5.278 L12.012,5.278 C12.324,5.278 12.532,5.07 12.532,4.758 L12.532,0.598 C12.48,0.234 12.272,0.026 11.96,0.026 L11.96,0.026 Z" id="Shape"></path>
                                </g>
                            </g>
                        </g>
                    </g>
                </g>
            </g>
        </g>
    </g>
</svg>