<?xml version="1.0" encoding="UTF-8" standalone="no"?>
<svg width="36px" height="45px" viewBox="0 0 36 45" version="1.1" xmlns="http://www.w3.org/2000/svg" xmlns:xlink="http://www.w3.org/1999/xlink">
    <!-- Generator: Sketch 3.6.1 (26313) - http://www.bohemiancoding.com/sketch -->
    <title>Group</title>
    <desc>Created with Sketch.</desc>
    <defs></defs>
    <g id="Screens" stroke="none" stroke-width="1" fill="none" fill-rule="evenodd" opacity="0.4">
        <g id="Tender-detail---contracts" transform="translate(-670.000000, -210.000000)" fill="#000000">
            <g id="noun_159310_cc" transform="translate(670.000000, 210.000000)">
                <g id="Group">
                    <path d="M30.8061041,32.3285199 C28.6146129,32.3285199 26.736192,34.1967509 26.1100516,36.7960289 L14.7142977,34.2779783 C14.6516836,32.8158845 14.2759995,31.4350181 13.5872451,30.3790614 L20.0991045,21.0379061 C20.8504729,21.6877256 21.7896834,22.0938628 22.7915079,22.0938628 C25.4839113,22.0938628 27.6754024,19.2509025 27.6754024,15.7581227 C27.6754024,12.265343 25.4839113,9.42238267 22.7915079,9.42238267 C20.9757009,9.42238267 19.3477361,10.6407942 18.5337537,12.5902527 L9.70517507,7.87906137 C9.7677891,7.39169675 9.83040313,6.90433213 9.83040313,6.41696751 C9.83040313,2.92418773 7.63891199,0.0812274368 4.94650858,0.0812274368 C2.25410518,0.0812274368 0.0626140327,2.92418773 0.0626140327,6.41696751 C0.0626140327,9.90974729 2.25410518,12.7527076 4.94650858,12.7527076 C6.6997015,12.7527076 8.26505231,11.534296 9.14164877,9.66606498 L17.9702274,14.3772563 C17.9076133,14.8646209 17.8449993,15.2707581 17.8449993,15.7581227 C17.8449993,17.301444 18.2832975,18.6823105 18.9720519,19.8194946 L12.5228065,29.1606498 C11.7714381,28.5108303 10.8322277,28.1046931 9.83040313,28.1046931 C7.13799973,28.1046931 4.94650858,30.9476534 4.94650858,34.4404332 C4.94650858,37.933213 7.13799973,40.7761733 9.83040313,40.7761733 C12.0845083,40.7761733 13.9629293,38.8267148 14.5264556,36.1462094 L25.8595955,38.6642599 C25.8595955,42.1570397 28.0510866,45 30.74349,45 C33.4985075,45 35.6899986,42.0758123 35.6899986,38.6642599 C35.6899986,35.1714801 33.4985075,32.3285199 30.8061041,32.3285199 L30.8061041,32.3285199 Z M22.7288939,13.3212996 C23.7682868,13.3212996 24.6073148,14.4097473 24.6073148,15.7581227 C24.6073148,17.1064982 23.7682868,18.1949458 22.7288939,18.1949458 C21.6895009,18.1949458 20.8504729,17.1064982 20.8504729,15.7581227 C20.8504729,14.4097473 21.6895009,13.3212996 22.7288939,13.3212996 L22.7288939,13.3212996 Z M4.94650858,8.85379061 C3.90711564,8.85379061 3.0680876,7.76534296 3.0680876,6.41696751 C3.0680876,5.06859206 3.90711564,3.9801444 4.94650858,3.9801444 C5.98590152,3.9801444 6.82492956,5.06859206 6.82492956,6.41696751 C6.82492956,7.76534296 5.98590152,8.85379061 4.94650858,8.85379061 L4.94650858,8.85379061 Z M9.83040313,36.8772563 C8.79101019,36.8772563 7.95198215,35.7888087 7.95198215,34.4404332 C7.95198215,33.0920578 8.79101019,32.0036101 9.83040313,32.0036101 C10.8697961,32.0036101 11.7088241,33.0920578 11.7088241,34.4404332 C11.7088241,35.7888087 10.8697961,36.8772563 9.83040313,36.8772563 L9.83040313,36.8772563 Z M30.74349,41.0198556 C29.7040971,41.0198556 28.8650691,39.9314079 28.8650691,38.5830325 C28.8650691,37.234657 29.7040971,36.1462094 30.74349,36.1462094 C31.782883,36.1462094 32.621911,37.234657 32.621911,38.5830325 C32.621911,39.9314079 31.782883,41.0198556 30.74349,41.0198556 L30.74349,41.0198556 Z" id="Shape"></path>
                </g>
            </g>
        </g>
    </g>
</svg>