<?xml version="1.0" encoding="UTF-8" standalone="no"?>
<svg width="27px" height="43px" viewBox="0 0 27 43" version="1.1" xmlns="http://www.w3.org/2000/svg" xmlns:xlink="http://www.w3.org/1999/xlink">
    <!-- Generator: Sketch 3.6.1 (26313) - http://www.bohemiancoding.com/sketch -->
    <title>ic_sand_time</title>
    <desc>Created with Sketch.</desc>
    <defs></defs>
    <g id="Page-2" stroke="none" stroke-width="1" fill="none" fill-rule="evenodd" opacity="0.4">
        <g id="Artboard-6" transform="translate(-26.000000, -379.000000)" fill="#000000">
            <g id="ic_sand_time" transform="translate(26.000000, 379.000000)">
                <g id="noun_51767_cc">
                    <g id="Icons">
                        <g id="Contract-detail-Copy">
                            <g id="noun_51767_cc">
                                <g id="Group">
                                    <g id="Shape">
                                        <path d="M25,39 L25,38 C24.6989938,30.5526316 22.1977048,25.7687684 18,22 C17.963027,21.5 17.963027,21.5 18,22 C22.227343,17.2013579 24.6985447,12.4473684 25,5 L25,4 C26.1162412,3.94423158 26.9438669,3.40695789 27,3 C26.9438669,1.26646316 20.9120333,0 13,0 C6.03183368,0 0,1.26646316 0,3 C0,3.40695789 0.82762578,3.94423158 2,4 L2,5 C2.24532225,12.4473684 4.74706029,17.2312316 9,22 C8.98128898,21.5 8.98128898,21.5004526 9,22 C8.98173805,21.5004526 8.98173805,21.5004526 9,22 C4.71697297,25.7986421 2.24577131,30.5526316 2,38 L2,39 C2.21658212,38.6171684 2.19098545,38.6266737 2,39 C2.04369231,38.6742 1.92962994,38.7131263 2,39 C1.77829522,38.7678947 1.73653222,38.7828316 2,39 C1.56184615,38.8484632 1.43386279,38.9000632 1,39 C1.29150936,38.9620737 1.27130146,38.9724842 1,39 C1.14780873,39.0281579 1.05260707,39.0743263 1,39 C0.934503119,39.1363368 0.906212058,39.1508211 1,39 C0.777779626,39.2223368 0.682577963,39.2789158 1,39 C0.587825364,39.3431895 0.579742204,39.3499789 1,39 C0.494869023,39.4092737 0.428407484,39.4622316 0,40 C0.349821206,39.5314842 0.332756757,39.5464211 0,40 C0.253721414,39.6224632 0.196690229,39.6831158 0,40 C0.149987526,39.7482947 0.148191268,39.7519158 0,40 C0.104632017,39.8139263 0.0745446985,39.8727684 0,40 C0.044008316,39.9479053 0.0381704782,39.9642 0,40 C0.0139209979,40.0429579 0,40.1063263 0,40 C0,41.7330842 6.03183368,43 13,43 L13,43 L13,43 C20.9560416,43 27,41.7335368 27,40 C27,39.5858 26.1517173,39.0421895 25,39 L25,39 L25,39 Z M4,38 C4.02071605,36.4217646 4.14411169,34.964377 4,34 C5.11821662,29.5176612 6.91060572,26.2768676 10,23 L12,21 L10,20 C5.85138482,15.6616564 4.07430759,11.3156471 4,5 C6.39000225,5.4455133 9.54289574,5.71696979 13,6 C16.458005,5.71696979 19.6104481,5.4455133 22,5 C21.9256924,11.3165489 20.1486152,15.6625582 16,20 L14,21 L16,23 C19.0907453,26.2768676 20.8831344,29.5181121 22,34 C21.856789,34.9621224 21.9801846,36.4163535 22,38 C21.6397208,37.9242447 21.2627787,37.8620171 21,38 C20.8471065,36.5299865 20.7538843,35.3499173 21,34 L13,29 L5,34 C5.24611574,35.3508192 5.15244314,36.5335939 5,38 C4.7376717,37.8705847 4.36072957,37.9332632 4,38 C4.0018014,37.9995491 4.0018014,37.9990982 4,38 L4,38 L4,38 Z"></path>
                                        <path d="M15,19 C15.8183965,18.0981192 17,16.6087279 17,17 C17,16.2635968 15.2089284,16 13,16 C10.7906218,16 9,16.2635968 9,17 C9,16.6087279 10.1820533,18.0976559 11,19 L13,21 L15,19 L15,19 L15,19 Z"></path>
                                    </g>
                                </g>
                            </g>
                        </g>
                    </g>
                </g>
            </g>
        </g>
    </g>
</svg>