<?xml version="1.0" encoding="UTF-8" standalone="no"?>
<svg width="25px" height="45px" viewBox="0 0 25 45" version="1.1" xmlns="http://www.w3.org/2000/svg" xmlns:xlink="http://www.w3.org/1999/xlink">
    <!-- Generator: Sketch 3.6.1 (26313) - http://www.bohemiancoding.com/sketch -->
    <title>ic_Pen</title>
    <desc>Created with Sketch.</desc>
    <defs>
        <path id="path-1" d="M6.515,0.762 L10.259,2.187 C3.415,9.319 3.82,16.664 5.613,21.672 L1.869,20.247 C0.075,15.239 -0.329,7.894 6.515,0.762 L6.515,0.762 Z"></path>
        <path id="path-3" d="M13.498,0.143 L17.242,1.568 C17.218,2.141 16.753,13.031 4.714,20.672 L0.97,19.247 C13.009,11.606 13.473,0.716 13.498,0.143 L13.498,0.143 Z"></path>
    </defs>
    <g id="Page-2" stroke="none" stroke-width="1" fill="none" fill-rule="evenodd">
        <g id="Artboard-6" transform="translate(-23.000000, -625.000000)">
            <g id="ic_Pen" transform="translate(23.000000, 625.000000)">
                <g id="Layer_1">
                    <g id="Group">
                        <g id="Clipped" transform="translate(1.000000, 10.000000)">
                            <mask id="mask-2" fill="white">
                                <use xlink:href="#path-1"></use>
                            </mask>
                            <g id="SVGID_169_"></g>
                            <path d="M6.515,0.762 C6.022,1.276 5.567,1.791 5.147,2.305 C4.712,2.838 4.316,3.371 3.955,3.903 C3.633,4.378 3.339,4.852 3.071,5.325 C2.817,5.774 2.587,6.222 2.379,6.668 C2.173,7.11 1.99,7.549 1.827,7.986 C1.659,8.436 1.513,8.884 1.387,9.328 C1.25,9.814 1.136,10.295 1.046,10.772 C0.941,11.321 0.866,11.863 0.817,12.397 C0.751,13.113 0.733,13.814 0.755,14.498 C0.821,16.613 1.267,18.562 1.87,20.245 L5.614,21.67 C5.011,19.986 4.565,18.038 4.499,15.923 C4.478,15.239 4.496,14.537 4.561,13.822 C4.61,13.288 4.685,12.746 4.79,12.197 C4.881,11.72 4.994,11.239 5.131,10.754 C5.257,10.31 5.403,9.862 5.571,9.412 C5.734,8.975 5.917,8.535 6.123,8.094 C6.329,7.648 6.56,7.2 6.814,6.75 C7.082,6.277 7.376,5.803 7.698,5.328 C8.059,4.796 8.456,4.263 8.89,3.73 C9.31,3.215 9.765,2.7 10.258,2.187 L6.515,0.762 L6.515,0.762 Z" id="Shape" fill="#6C6C6D" mask="url(#mask-2)"></path>
                        </g>
                        <path d="M15.443,7.445 L19.187,8.87 L17.094,12.678 L13.35,11.253 L15.443,7.445 Z" id="Shape" fill="#6C6C6D"></path>
                        <path d="M15.507,0 L19.25,1.425 L19.187,8.898 L15.443,7.474 L15.507,0 Z" id="Shape" fill="#DCDBDB"></path>
                        <path d="M6.84,45 L6.84,45 C5.317,41.505 4.581,37.397 4.969,30.247 L8.713,31.672 C4.449,33.734 5.793,41.166 6.84,45 L6.84,45 Z" id="Shape" fill="#DCDBDB"></path>
                        <path d="M4.97,30.247 C17.009,22.606 17.474,11.716 17.498,11.143 L13.373,11.282 L15.465,7.474 L15.529,0 C15.529,0 15.529,0 9.311,3.947 C-6.218,13.803 2.217,29.117 2.869,30.247 C1.076,25.239 0.671,17.894 7.515,10.762 C4.441,14.7 -0.294,28.042 6.84,45 C6.84,45 4.277,40.278 4.97,30.247" id="Shape" fill="#939598"></path>
                        <g id="Clipped" transform="translate(4.000000, 11.000000)">
                            <mask id="mask-4" fill="white">
                                <use xlink:href="#path-3"></use>
                            </mask>
                            <g id="SVGID_171_"></g>
                            <path d="M13.498,0.143 C13.495,0.202 13.488,0.373 13.464,0.64 C13.43,1.012 13.362,1.571 13.227,2.275 C13.126,2.801 12.988,3.409 12.798,4.08 C12.64,4.639 12.446,5.243 12.208,5.881 C11.999,6.442 11.755,7.031 11.472,7.639 C11.208,8.207 10.909,8.792 10.571,9.389 C10.244,9.967 9.881,10.556 9.477,11.151 C9.066,11.757 8.613,12.369 8.113,12.983 C7.566,13.655 6.962,14.329 6.298,14.997 C5.484,15.815 4.578,16.625 3.57,17.414 C2.77,18.04 1.905,18.653 0.97,19.247 L4.714,20.672 C5.649,20.079 6.514,19.465 7.315,18.839 C8.324,18.05 9.229,17.24 10.043,16.422 C10.708,15.754 11.311,15.08 11.858,14.408 C12.358,13.795 12.811,13.182 13.222,12.576 C13.626,11.981 13.989,11.392 14.315,10.814 C14.653,10.217 14.951,9.632 15.216,9.064 C15.499,8.456 15.742,7.868 15.952,7.306 C16.19,6.668 16.384,6.064 16.542,5.505 C16.732,4.834 16.87,4.226 16.971,3.7 C17.106,2.995 17.174,2.437 17.208,2.065 C17.232,1.798 17.24,1.628 17.242,1.568 L13.498,0.143 L13.498,0.143 Z" id="Shape" fill="#DCDBDB" mask="url(#mask-4)"></path>
                        </g>
                        <path d="M6.84,45 L22.902,41.791 C22.902,41.791 25.116,41.949 24.483,42.582 C23.85,43.215 6.84,45 6.84,45 L6.84,45 Z" id="Shape" fill="#6C6C6D"></path>
                    </g>
                </g>
            </g>
        </g>
    </g>
</svg>