<svg width="18" height="18" viewBox="0 0 18 18" xmlns="http://www.w3.org/2000/svg"><title>search</title><path d="M12.502 11.728c1.185-1.243 1.924-2.908 1.924-4.742C14.426 3.14 11.196 0 7.216 0S.008 3.14.008 6.986c0 3.846 3.23 6.986 7.21 6.986 1.62 0 3.11-.516 4.317-1.39l5.36 5.194c.131.127.295.19.458.19a.636.636 0 0 0 .456-.19.628.628 0 0 0 0-.895l-5.306-5.153zM1.312 6.986c0-3.15 2.643-5.722 5.905-5.722 3.251 0 5.905 2.561 5.905 5.722 0 3.161-2.643 5.722-5.905 5.722-3.262 0-5.905-2.571-5.905-5.722z" fill="#0042B1" fill-rule="evenodd"/></svg>