<svg width="172" height="636" viewBox="0 0 172 636" xmlns="http://www.w3.org/2000/svg" xmlns:xlink="http://www.w3.org/1999/xlink"><title>Group 2</title><defs><path d="M1.862.407l8.633 5.572c-.377-.233-.808-.551-1.319-.502L.521.12c.511-.049.965.054 1.341.287z" id="a"/><path d="M.657 8.667C.601 5.958 2.383 2.468 4.633.897 5.282.439 5.922.177 6.52.12l8.655 5.357c-.599.058-1.238.319-1.887.777-2.25 1.571-4.032 5.061-3.976 7.77" id="c"/><path d="M1.862.407l8.633 5.572c-.377-.233-.808-.551-1.319-.502L.521.12c.511-.049.965.054 1.341.287z" id="e"/><path d="M.657 8.667C.601 5.958 2.383 2.468 4.633.897 5.282.439 5.922.177 6.52.12l8.655 5.357c-.599.058-1.238.319-1.887.777-2.25 1.571-4.032 5.061-3.976 7.77" id="g"/><path d="M3.46.802L20.157 11.58c-.729-.451-1.562-1.066-2.552-.97L.865.248c.99-.095 1.866.103 2.595.554z" id="i"/><path d="M.523 17.402C.415 12.164 3.863 4.79 8.215 1.752 9.47.866 10.707.36 11.865.249l16.74 10.361c-1.158.111-2.395.617-3.65 1.503-4.352 3.038-7.798 9.789-7.69 15.027" id="k"/><path d="M6.515.762l3.744 1.425C3.415 9.319 3.82 16.664 5.613 21.672l-3.744-1.425C.075 15.239-.329 7.894 6.515.762z" id="m"/><path d="M13.498.143l3.744 1.425c-.024.573-.489 11.463-12.528 19.104L.97 19.247C13.009 11.606 13.473.716 13.498.143z" id="o"/><path d="M.563 4.45V.508c1.375.805 2.133 1.874 2.133 3.005v3.94c0-1.13-.758-2.2-2.134-3.005z" id="q"/><path d="M.042 8.433v-3.94c0-1.132.756-2.2 2.131-3.006C3.578.66 5.455.208 7.462.208c2.006 0 3.886.452 5.288 1.279v3.94C11.348 4.601 9.468 4.15 7.462 4.15c-2.007 0-3.884.452-5.289 1.278C.798 6.233.043 7.302.043 8.433z" id="s"/><path d="M.731 7.82V3.878c1.484-.87 2.3-2.04 2.3-3.3v3.94c0 1.26-.816 2.43-2.3 3.3z" id="u"/><path d="M.644 4.52V.58c0 1.26.816 2.43 2.3 3.299 1.453.854 3.39 1.324 5.454 1.324 2.065 0 4.004-.47 5.458-1.324v3.94c-1.453.854-3.393 1.325-5.458 1.325-2.064 0-4.001-.47-5.454-1.325-1.483-.87-2.3-2.04-2.3-3.3z" id="w"/><path d="M.773 4.196V.256C2.15 1.06 2.907 2.13 2.907 3.26V7.2c0-1.13-.758-2.2-2.134-3.005z" id="y"/><path d="M.253 9.158v-3.94c0-1.132.756-2.201 2.131-3.006C3.79 1.385 5.666.933 7.673.933c2.006 0 3.885.452 5.288 1.279v3.94c-1.403-.826-3.282-1.278-5.288-1.278-2.007 0-3.884.452-5.289 1.278C1.01 6.957.254 8.027.254 9.158z" id="A"/><path d="M.006 7.566v-3.94c1.484-.87 2.3-2.041 2.3-3.3v3.94c0 1.26-.817 2.43-2.3 3.3z" id="C"/><path d="M.856 4.266V.326c0 1.26.816 2.43 2.3 3.3 1.453.853 3.39 1.324 5.454 1.324 2.064 0 4.004-.47 5.458-1.325v3.94C12.615 8.42 10.674 8.89 8.61 8.89s-4.001-.47-5.454-1.324c-1.484-.87-2.3-2.04-2.3-3.3z" id="E"/><path d="M.642 4.903V.963c1.376.805 2.134 1.874 2.134 3.005v3.94c-.001-1.13-.76-2.2-2.134-3.005z" id="G"/><path d="M.122 8.887v-3.94c0-1.132.755-2.201 2.13-3.006C3.659 1.114 5.536.662 7.543.662c2.005 0 3.885.452 5.288 1.279v3.94c-1.403-.826-3.283-1.278-5.289-1.278s-3.883.452-5.288 1.278C.877 6.686.122 7.756.122 8.887z" id="I"/><path d="M.81 7.295v-3.94c1.485-.87 2.3-2.041 2.3-3.3v3.94c0 1.26-.815 2.43-2.3 3.3z" id="K"/><path d="M.724 3.995V.055c0 1.26.815 2.43 2.3 3.3 1.453.853 3.39 1.324 5.454 1.324 2.064 0 4.004-.47 5.458-1.325v3.94c-1.453.855-3.394 1.325-5.458 1.325-2.065 0-4.001-.47-5.455-1.324-1.484-.87-2.3-2.04-2.3-3.3z" id="M"/><path d="M.856 4.11V.17C2.23.973 2.99 2.043 2.99 3.173v3.94c-.001-1.13-.76-2.2-2.134-3.004z" id="O"/><path d="M.336 9.071v-3.94c0-1.13.755-2.2 2.13-3.005C3.873 1.299 5.75.847 7.756.847s3.886.452 5.288 1.279v3.94c-1.402-.826-3.282-1.278-5.288-1.278-2.006 0-3.883.452-5.288 1.278C1.09 6.871.336 7.941.336 9.071z" id="Q"/><path d="M.087 7.48V3.54c1.484-.87 2.3-2.041 2.3-3.3v3.94c0 1.26-.816 2.43-2.3 3.3z" id="S"/><path d="M0 4.18V.24c0 1.26.816 2.43 2.3 3.3 1.453.853 3.39 1.324 5.454 1.324 2.064 0 4.004-.47 5.458-1.325v3.94c-1.453.855-3.394 1.325-5.458 1.325S3.753 8.334 2.3 7.48C.816 6.61 0 5.44 0 4.18z" id="U"/><path d="M.856 4.228V.288C2.23 1.093 2.99 2.162 2.99 3.293v3.94c-.001-1.13-.76-2.2-2.134-3.005z" id="W"/><path d="M.336 9.19V5.25c0-1.132.755-2.2 2.13-3.006C3.873 1.417 5.75.966 7.756.966s3.886.452 5.288 1.278v3.94c-1.402-.826-3.282-1.278-5.288-1.278-2.006 0-3.883.452-5.288 1.279C1.09 6.99.336 8.059.336 9.19z" id="Y"/><path d="M.087 7.598v-3.94c1.484-.87 2.3-2.04 2.3-3.3v3.94c0 1.26-.816 2.43-2.3 3.3z" id="aa"/><path d="M0 4.298V.358c0 1.26.816 2.43 2.3 3.3 1.453.854 3.39 1.324 5.454 1.324 2.064 0 4.004-.47 5.458-1.324v3.94c-1.453.854-3.394 1.325-5.458 1.325S3.753 8.453 2.3 7.598C.816 6.728 0 5.558 0 4.298z" id="ac"/><path d="M.856 4.345V.405C2.23 1.21 2.99 2.279 2.99 3.41v3.94c-.001-1.13-.76-2.2-2.134-3.005z" id="ae"/><path d="M.336 8.329v-3.94c0-1.131.755-2.2 2.13-3.006C3.873.557 5.75.105 7.756.105s3.886.452 5.288 1.278v3.94c-1.402-.826-3.282-1.278-5.288-1.278-2.006 0-3.883.452-5.288 1.279C1.09 6.129.336 7.198.336 8.329z" id="ag"/><path d="M.087 7.717v-3.94c1.484-.87 2.3-2.042 2.3-3.3v3.94c0 1.259-.816 2.43-2.3 3.3z" id="ai"/><path d="M0 4.416V.476c0 1.26.816 2.43 2.3 3.3C3.753 4.628 5.69 5.1 7.754 5.1c2.064 0 4.004-.47 5.458-1.325v3.94C11.76 8.57 9.818 9.04 7.754 9.04S3.753 8.57 2.3 7.716C.816 6.846 0 5.676 0 4.416z" id="ak"/><path d="M.856 4.464V.524C2.23 1.327 2.99 2.397 2.99 3.528v3.94c-.001-1.13-.76-2.2-2.134-3.005z" id="am"/><path d="M.336 8.447v-3.94c0-1.131.755-2.2 2.13-3.005C3.872.675 5.749.223 7.755.223c2.006 0 3.886.452 5.289 1.279v3.94C11.64 4.615 9.76 4.163 7.754 4.163s-3.883.452-5.288 1.28C1.09 6.246.336 7.315.336 8.446z" id="ao"/><path d="M.087 7.834v-3.94c1.484-.87 2.3-2.041 2.3-3.3v3.94c0 1.26-.816 2.43-2.3 3.3z" id="aq"/><path d="M0 4.534V.594c0 1.26.816 2.43 2.3 3.3 1.453.853 3.39 1.324 5.454 1.324 2.064 0 4.004-.47 5.458-1.325v3.94c-1.453.855-3.394 1.325-5.458 1.325S3.753 8.688 2.3 7.834C.816 6.964 0 5.794 0 4.534z" id="as"/><path d="M.856 4.582V.641C2.23 1.446 2.99 2.515 2.99 3.646v3.94c-.001-1.13-.76-2.199-2.134-3.004z" id="au"/><path d="M.336 8.565v-3.94c0-1.132.755-2.2 2.13-3.006C3.872.792 5.749.341 7.755.341c2.006 0 3.886.452 5.289 1.279v3.94C11.64 4.734 9.76 4.282 7.754 4.282s-3.883.452-5.288 1.278C1.09 6.366.336 7.435.336 8.565z" id="aw"/><path d="M.087 7.952V4.011c1.484-.87 2.3-2.04 2.3-3.3v3.94c0 1.26-.816 2.432-2.3 3.301z" id="ay"/><path d="M0 4.652V.712c0 1.26.816 2.43 2.3 3.299 1.453.854 3.39 1.324 5.454 1.324 2.064 0 4.004-.47 5.458-1.324v3.94c-1.453.854-3.394 1.325-5.458 1.325S3.753 8.806 2.3 7.95C.816 7.083 0 5.911 0 4.651z" id="aA"/><path d="M.426 4.326V.386C1.8 1.19 2.559 2.26 2.559 3.39v3.94c0-1.13-.758-2.2-2.133-3.005z" id="aC"/><path d="M.843 8.31V4.368c0-1.131.755-2.2 2.13-3.005C4.38.537 6.257.085 8.264.085c2.005 0 3.885.452 5.288 1.279v3.94c-1.403-.827-3.283-1.278-5.289-1.278s-3.883.452-5.288 1.278C1.598 6.11.843 7.178.843 8.31z" id="aE"/><path d="M.595 7.696v-3.94c1.484-.87 2.3-2.041 2.3-3.3v3.94c0 1.26-.817 2.431-2.3 3.3z" id="aG"/><path d="M.508 4.396V.456c0 1.26.816 2.43 2.3 3.3C4.26 4.61 6.198 5.08 8.262 5.08c2.065 0 4.004-.47 5.458-1.324v3.94c-1.453.854-3.393 1.325-5.458 1.325-2.064 0-4.001-.471-5.454-1.325-1.484-.869-2.3-2.04-2.3-3.3z" id="aI"/></defs><g fill="none" fill-rule="evenodd"><path fill="#818182" d="M4 11.253L23.486 22.5l19.486-11.247L23.486 0z"/><path fill="#DCDBDB" d="M23.486 45l19.486-11.247v-22.5L23.486 22.5z"/><path fill="#606161" d="M4 33.753L23.486 45V22.5L4 11.253z"/><path fill="#818182" d="M8.885 14.072v11.249l9.729 5.619V19.69L38.1 8.44l-9.743-5.451z"/><path fill="#DCDBDB" d="M18.614 19.69L38.1 8.44l-9.59-5.538-19.625 11.17z"/><g fill="#C1C1BF"><path d="M14.042 17.052l-.609-.354L32.924 5.451l.62.357z"/><path d="M14.042 28.299l-.609-.351v-11.25l.609.354z"/></g><path fill="#DCDBDB" d="M0 115.647l24.372-14.017 21.684 13.6L22.6 128.633z"/><path fill="#6C6C6D" d="M0 115.647v1.368L22.6 130v-1.367z"/><path fill="#939598" d="M46.056 115.23v1.367L22.6 130v-1.367z"/><path fill="#606161" d="M5.362 107.409v8.2l2.367 1.367v-8.202z"/><path stroke="#939598" stroke-width=".148" d="M7.729 108.776l2.368-1.367-2.368-1.368-2.367 1.368z"/><path fill="#C2C3C4" d="M7.729 116.976l2.368-1.366v-8.201l-2.368 1.367z"/><path fill="#606161" d="M10.515 110.383v8.2l2.367 1.367v-8.202z"/><path stroke="#939598" stroke-width=".148" d="M12.882 111.75l2.368-1.367-2.368-1.367-2.367 1.367z"/><path fill="#C2C3C4" d="M12.882 119.95l2.368-1.365v-8.202l-2.368 1.367z"/><path fill="#606161" d="M15.668 113.357v8.2l2.367 1.368v-8.202z"/><path stroke="#939598" stroke-width=".148" d="M18.035 114.724l2.367-1.367-2.367-1.367-2.367 1.367z"/><path fill="#C2C3C4" d="M18.035 122.925l2.367-1.366v-8.202l-2.367 1.367z"/><path fill="#606161" d="M20.82 116.331v8.2l2.368 1.368v-8.202z"/><path stroke="#939598" stroke-width=".148" d="M23.188 117.698l2.367-1.367-2.367-1.367-2.368 1.367z"/><path fill="#C2C3C4" d="M23.188 125.899l2.367-1.366v-8.202l-2.367 1.367z"/><path fill="#818182" d="M20.82 98.428v8.2l2.368 1.368v-8.202z"/><path stroke="#939598" stroke-width=".148" d="M23.188 99.795l2.367-1.367-2.367-1.367-2.368 1.367z"/><path fill="#C2C3C4" d="M23.188 107.996l2.367-1.366v-8.202l-2.367 1.367z"/><path fill="#818182" d="M25.973 101.402v8.2l2.368 1.368v-8.202z"/><path stroke="#939598" stroke-width=".148" d="M28.341 102.769l2.367-1.367-2.367-1.367-2.368 1.367z"/><path fill="#C2C3C4" d="M28.341 110.97l2.367-1.366v-8.202l-2.367 1.367z"/><path fill="#818182" d="M31.126 104.376v8.201l2.368 1.367v-8.202z"/><path stroke="#939598" stroke-width=".148" d="M33.494 105.743l2.367-1.367-2.367-1.367-2.368 1.367z"/><path fill="#C2C3C4" d="M33.494 113.944l2.367-1.366v-8.202l-2.367 1.367z"/><path fill="#6C6C6D" d="M36.279 107.35v8.201l2.367 1.367v-8.202z"/><path stroke="#939598" stroke-width=".148" d="M38.646 108.718l2.368-1.368-2.368-1.367-2.367 1.367z"/><path fill="#C2C3C4" d="M38.646 116.918l2.368-1.366v-8.202l-2.368 1.368z"/><path fill="#818281" d="M18.035 96.149v2.976l20.611 11.9v-2.975zM5.153 103.587l2.576-1.488 20.805 11.788-5.346 3.088-20.612-11.902z"/><path fill="#818281" d="M20.515 94.744l2.576-1.488 20.805 11.789-5.346 3.087L17.938 96.23z"/><g><g transform="translate(25 97)"><mask id="b" fill="#fff"><use xlink:href="#a"/></mask><g mask="url(#b)"><path d="M9.176 5.478L.521.121c.51-.049.963.053 1.339.285l8.633 5.572c-.377-.232-.807-.55-1.317-.5" fill="#878887"/><path fill="#848584" d="M10.518 5.983L1.86.405l.002.002 8.656 5.576-.025-.005"/></g></g><path d="M28.313 111.025c-.056-2.709 1.726-6.199 3.976-7.77.649-.458 1.289-.72 1.887-.777 1.504-.145 2.508 1.834 2.548 3.776m-.506.319c-.034-1.654-.812-3.697-2.032-3.579-.504.048-1.072.285-1.641.684-2.112 1.479-3.785 4.5-3.732 7.046" fill="#ADADAB"/><g transform="translate(19 97)"><mask id="d" fill="#fff"><use xlink:href="#c"/></mask><g mask="url(#d)"><path d="M.657 8.667c-.036-1.73.678-3.778 1.784-5.442l8.655 5.357c-1.106 1.664-1.82 3.712-1.784 5.442" fill="#747575"/><path d="M11.097 8.583L2.442 3.226c.314-.472.659-.912 1.027-1.306l8.655 5.357c-.368.394-.713.834-1.027 1.306" fill="#777878"/><path d="M12.124 7.277L3.469 1.92c.263-.281.538-.539.823-.766l8.655 5.357a7.828 7.828 0 0 0-.823.766" fill="#7B7C7B"/><path d="M12.947 6.511L4.292 1.154a6.337 6.337 0 0 1 .714-.498l8.655 5.357a6.207 6.207 0 0 0-.714.498" fill="#7E7F7E"/><path d="M13.661 6.013L5.006.656c.204-.121.407-.223.607-.304l8.655 5.357c-.2.081-.403.183-.607.304" fill="#818281"/><path d="M14.268 5.709L5.613.352a3.45 3.45 0 0 1 .615-.188l8.655 5.357a3.508 3.508 0 0 0-.615.188" fill="#848584"/><path d="M14.883 5.521L6.228.164c.099-.02.196-.034.293-.044l8.655 5.357c-.097.01-.194.024-.293.044" fill="#878887"/></g></g></g><path fill="#C2C3C4" d="M2.576 105.073l20.515-11.817 20.805 11.789-20.708 11.93z"/><path fill="#818281" d="M23.188 114l15.458-8.927-18.035-10.385-15.458 8.901z"/><path fill="#606161" d="M38.646 105.073l-10.335-6 .03-5.9 7.938 4.871 2.298 4.055z"/><path fill="#606161" d="M36.294 106.588l-5.858-3.401.017-3.343 4.499 2.761 1.302 2.298z"/><g><g transform="translate(25 97)"><mask id="f" fill="#fff"><use xlink:href="#e"/></mask><g mask="url(#f)"><path d="M9.176 5.478L.521.121c.51-.049.963.053 1.339.285l8.633 5.572c-.377-.232-.807-.55-1.317-.5" fill="#878887"/><path fill="#848584" d="M10.518 5.983L1.86.405l.002.002 8.656 5.576-.025-.005"/></g></g><path d="M28.313 111.025c-.056-2.709 1.726-6.199 3.976-7.77.649-.458 1.289-.72 1.887-.777 1.504-.145 2.508 1.834 2.548 3.776m-.506.319c-.034-1.654-.812-3.697-2.032-3.579-.504.048-1.072.285-1.641.684-2.112 1.479-3.785 4.5-3.732 7.046" fill="#ADADAB"/><g transform="translate(19 97)"><mask id="h" fill="#fff"><use xlink:href="#g"/></mask><g mask="url(#h)"><path d="M.657 8.667c-.036-1.73.678-3.778 1.784-5.442l8.655 5.357c-1.106 1.664-1.82 3.712-1.784 5.442" fill="#747575"/><path d="M11.097 8.583L2.442 3.226c.314-.472.659-.912 1.027-1.306l8.655 5.357c-.368.394-.713.834-1.027 1.306" fill="#777878"/><path d="M12.124 7.277L3.469 1.92c.263-.281.538-.539.823-.766l8.655 5.357a7.828 7.828 0 0 0-.823.766" fill="#7B7C7B"/><path d="M12.947 6.511L4.292 1.154a6.337 6.337 0 0 1 .714-.498l8.655 5.357a6.207 6.207 0 0 0-.714.498" fill="#7E7F7E"/><path d="M13.661 6.013L5.006.656c.204-.121.407-.223.607-.304l8.655 5.357c-.2.081-.403.183-.607.304" fill="#818281"/><path d="M14.268 5.709L5.613.352a3.45 3.45 0 0 1 .615-.188l8.655 5.357a3.508 3.508 0 0 0-.615.188" fill="#848584"/><path d="M14.883 5.521L6.228.164c.099-.02.196-.034.293-.044l8.655 5.357c-.097.01-.194.024-.293.044" fill="#878887"/></g></g></g><g><g transform="translate(17 87)"><mask id="j" fill="#fff"><use xlink:href="#i"/></mask><g mask="url(#j)"><path d="M17.605 10.609L.865.248C1.852.153 2.727.35 3.454.799L20.15 11.576c-.726-.448-1.558-1.062-2.545-.967" fill="#878887"/><path fill="#848584" d="M20.2 11.587L3.455.799l.005.003L20.2 11.587l-.049-.011"/></g></g><path d="M23.265 114.14c-.108-5.238 3.338-11.989 7.69-15.027 1.255-.886 2.492-1.392 3.65-1.503 2.908-.279 4.85 3.547 4.927 7.303m-.977.616c-.066-3.199-1.57-7.15-3.929-6.923-.975.094-2.074.55-3.174 1.322-4.085 2.859-7.32 8.703-7.218 13.627" fill="#ADADAB"/><g transform="translate(6 87)"><mask id="l" fill="#fff"><use xlink:href="#k"/></mask><g mask="url(#l)"><path d="M.523 17.402c-.069-3.345 1.314-7.93 3.454-11.148l16.74 10.361c-2.14 3.218-3.52 7.18-3.451 10.525" fill="#747575"/><path d="M20.716 16.615L3.977 6.254a19.5 19.5 0 0 1 1.987-2.526l16.74 10.361a19.506 19.506 0 0 0-1.988 2.526" fill="#777878"/><path d="M22.703 14.089L5.964 3.728a15.163 15.163 0 0 1 1.591-1.482l16.74 10.361c-.55.44-1.083.938-1.592 1.482" fill="#7B7C7B"/><path d="M24.294 12.607L7.555 2.246a13.063 13.063 0 0 1 1.381-.963l16.74 10.361a12.65 12.65 0 0 0-1.382.963" fill="#7E7F7E"/><path d="M25.674 11.645L8.935 1.284a8.813 8.813 0 0 1 1.174-.588l16.74 10.361c-.388.157-.78.353-1.175.588" fill="#818281"/><path d="M26.848 11.057L10.109.696c.403-.163.8-.285 1.19-.363l16.74 10.361c-.39.079-.788.2-1.191.363" fill="#848584"/><path d="M28.038 10.694L11.299.333c.191-.038.38-.067.567-.085l16.74 10.361a5.413 5.413 0 0 0-.568.085" fill="#878887"/></g></g></g><path fill="#818281" d="M2.576 105.073v2.976l20.612 11.9v-2.974zM43.896 105.045l-.045 2.974-20.663 11.93v-2.974z"/><g><path fill="#606161" d="M29.978 87.67l.73.421v8.433l-.73-.422z"/><path fill="#6C6C6D" d="M31.438 87.67l-.73.421-.73-.421.73-.422z"/><path fill="#818281" d="M30.708 96.524l.73-.422V87.67l-.73.421z"/></g><path fill="#C2C3C4" d="M31.438 87.67l4.057-2.265v2.265l-4.057 2.483z"/><path fill="#818281" d="M34.765 85l.73.405-4.057 2.265-.715-.413z"/><g><path fill="#888889" d="M33.938 254.048L32.126 253 14 263.465l1.813 1.048z"/><path fill="#505051" d="M15.813 298L14 296.952v-33.487l1.813 1.048z"/><path fill="#DCDBDB" d="M15.813 264.513l18.125-10.465v33.487L15.813 298z"/><path fill="#505051" d="M26.685 256.141l.003-1.058 2.736 1.571v.978z"/><path fill="#6C6C6D" d="M30.313 253.128l-3.625 1.955 2.736 1.571 3.727-2.025z"/><path fill="#939598" d="M33.151 254.629l.011 1.001-3.738 2.002v-.978z"/><path fill="#939598" d="M33.162 255.63v10.527l-1.035-2.692-2.703 4.719v-10.552z"/><path fill="#505051" d="M28.5 257.13v10.521l.924.533v-10.552z"/><path fill="#6C6C6D" d="M33.162 266.157l-2.006-1.19.971-1.502z"/><path fill="#939598" d="M19.438 277.07l10.875-6.28v2.094l-10.875 6.278z"/><path fill="#505051" d="M30.313 272.884l-1.813-1.047-9.062 5.233v2.092z"/><g><path fill="#939598" d="M19.438 283.349l10.875-6.279v2.093l-10.875 6.278z"/><path fill="#505051" d="M30.313 279.163l-1.813-1.047-9.062 5.233v2.092z"/></g><g><path fill="#939598" d="M19.438 289.628l10.875-6.279v2.093l-10.875 6.279z"/><path fill="#505051" d="M30.313 285.442l-1.813-1.047-9.062 5.233v2.093z"/></g></g><g opacity=".4" fill="#000"><path d="M35 209v-1c-.301-7.447-2.802-12.231-7-16-.037-.5-.037-.5 0 0 4.227-4.799 6.699-9.553 7-17v-1c1.116-.056 1.944-.593 2-1-.056-1.734-6.088-3-14-3-6.968 0-13 1.266-13 3 0 .407.828.944 2 1v1c.245 7.447 2.747 12.231 7 17-.019-.5-.019-.5 0 0-.018-.5-.018-.5 0 0-4.283 3.799-6.754 8.553-7 16v1c.217-.383.191-.373 0 0 .044-.326-.07-.287 0 0-.222-.232-.263-.217 0 0-.438-.152-.566-.1-1 0 .292-.038.271-.028 0 0 .148.028.053.074 0 0-.065.136-.094.15 0 0-.222.222-.317.279 0 0-.412.343-.42.35 0 0-.505.41-.572.462-1 1 .35-.469.333-.454 0 0 .254-.378.197-.317 0 0 .15-.252.148-.248 0 0 .105-.186.075-.127 0 0 .044-.052.038-.036 0 0 .014.043 0 .106 0 0 0 1.733 6.032 3 13 3 7.956 0 14-1.266 14-3 0-.414-.848-.958-2-1zm-21-1c.02-1.578.144-3.036 0-4 1.118-4.482 2.91-7.723 6-11l2-2-2-1c-4.149-4.338-5.926-8.684-6-15 2.39.446 5.543.717 9 1 3.458-.283 6.61-.554 9-1-.074 6.317-1.851 10.663-6 15l-2 1 2 2c3.09 3.277 4.883 6.518 6 11-.143.962-.02 2.416 0 4-.36-.076-.737-.138-1 0-.153-1.47-.246-2.65 0-4l-8-5-8 5c.246 1.35.152 2.534 0 4-.262-.13-.64-.067-1 0 .002 0 .002 0 0 0z"/><path d="M25 189c.818-.902 2-2.391 2-2 0-.736-1.791-1-4-1-2.21 0-4 .264-4 1 0-.391 1.182 1.098 2 2l2 2 2-2z"/></g><g><g transform="translate(12 433)"><mask id="n" fill="#fff"><use xlink:href="#m"/></mask><path d="M6.515.762a25.951 25.951 0 0 0-1.368 1.543 22.567 22.567 0 0 0-1.192 1.598c-.322.475-.616.949-.884 1.422-.254.449-.484.897-.692 1.343a18.044 18.044 0 0 0-.992 2.66 16.809 16.809 0 0 0-.57 3.069 16.938 16.938 0 0 0-.062 2.101 18.827 18.827 0 0 0 1.115 5.747l3.744 1.425a18.833 18.833 0 0 1-1.115-5.747 16.832 16.832 0 0 1 .632-5.169 17.483 17.483 0 0 1 .992-2.66c.206-.446.437-.894.691-1.344.268-.473.562-.947.884-1.422A22.88 22.88 0 0 1 8.89 3.73c.42-.515.875-1.03 1.368-1.543L6.515.762z" fill="#6C6C6D" mask="url(#n)"/></g><path fill="#6C6C6D" d="M26.443 430.445l3.744 1.425-2.093 3.808-3.744-1.425z"/><path fill="#DCDBDB" d="M26.507 423l3.743 1.425-.063 7.473-3.744-1.424zM17.84 468c-1.523-3.495-2.259-7.603-1.871-14.753l3.744 1.425c-4.264 2.062-2.92 9.494-1.873 13.328z"/><path d="M15.97 453.247c12.039-7.641 12.504-18.531 12.528-19.104l-4.125.139 2.092-3.808.064-7.474-6.218 3.947c-15.529 9.856-7.094 25.17-6.442 26.3-1.793-5.008-2.198-12.353 4.646-19.485-3.074 3.938-7.809 17.28-.675 34.238 0 0-2.563-4.722-1.87-14.753" fill="#939598"/><g transform="translate(15 434)"><mask id="p" fill="#fff"><use xlink:href="#o"/></mask><path d="M13.498.143c-.003.059-.01.23-.034.497-.034.372-.102.931-.237 1.635a21.542 21.542 0 0 1-.429 1.805 24.152 24.152 0 0 1-2.227 5.309 26.109 26.109 0 0 1-2.458 3.594 27.353 27.353 0 0 1-1.815 2.014 29.458 29.458 0 0 1-2.728 2.417c-.8.626-1.665 1.239-2.6 1.833l3.744 1.425c.935-.593 1.8-1.207 2.601-1.833a29.329 29.329 0 0 0 2.728-2.417 27.128 27.128 0 0 0 1.815-2.014 25.877 25.877 0 0 0 2.457-3.594 24.414 24.414 0 0 0 1.637-3.508c.238-.638.432-1.242.59-1.801.19-.671.328-1.279.429-1.805a17.02 17.02 0 0 0 .237-1.635c.024-.267.032-.437.034-.497L13.498.143z" fill="#DCDBDB" mask="url(#p)"/></g><path d="M17.84 468l16.062-3.209s2.214.158 1.581.791S17.84 468 17.84 468z" fill="#6C6C6D"/></g><g><g transform="translate(38.5 355.609)"><mask id="r" fill="#fff"><use xlink:href="#q"/></mask><path d="M.563 4.45V.508c1.375.805 2.133 1.874 2.133 3.005v3.94c0-1.13-.758-2.2-2.134-3.005" fill="#747575" mask="url(#r)"/></g><g transform="translate(26.313 354.63)"><mask id="t" fill="#fff"><use xlink:href="#s"/></mask><g mask="url(#t)"><path d="M.372 7.162v-3.94c.132-.248.304-.489.513-.719v3.94c-.21.23-.38.471-.513.719" fill="#777878"/><path d="M.885 6.444v-3.94c.336-.37.768-.713 1.288-1.018C3.578.659 5.455.207 7.462.207c2.006 0 3.886.452 5.288 1.279v3.94C11.348 4.6 9.468 4.148 7.462 4.148c-2.007 0-3.884.452-5.289 1.278A5.463 5.463 0 0 0 .885 6.444" fill="#747575"/></g></g><g transform="translate(38.5 358.543)"><mask id="v" fill="#fff"><use xlink:href="#u"/></mask><g mask="url(#v)"><path d="M.731 7.82V3.878a5.788 5.788 0 0 0 1.37-1.085v3.94c-.358.397-.818.761-1.37 1.085" fill="#888889"/><path d="M2.103 6.734v-3.94c.227-.25.414-.513.56-.785v3.94a3.937 3.937 0 0 1-.56.785" fill="#939598"/></g></g><path d="M39.231 362.421c-1.453.854-3.393 1.325-5.458 1.325-2.064 0-4.001-.47-5.454-1.325-1.484-.87-2.3-2.04-2.3-3.3 0-1.256.816-2.43 2.3-3.302 1.453-.851 3.39-1.322 5.454-1.322 2.065 0 4.004.47 5.458 1.322 1.484.873 2.3 2.047 2.3 3.303 0 1.26-.816 2.43-2.3 3.3zm-.168-6.305c-1.403-.826-3.283-1.278-5.289-1.278s-3.883.452-5.288 1.278c-1.376.806-2.131 1.875-2.131 3.006 0 1.13.755 2.2 2.13 3.005 1.406.824 3.283 1.278 5.29 1.278 2.005 0 3.885-.454 5.288-1.278 1.375-.805 2.133-1.874 2.133-3.005 0-1.131-.758-2.2-2.133-3.006z" fill="#B1B0AF"/><g transform="translate(25.375 358.543)"><mask id="x" fill="#fff"><use xlink:href="#w"/></mask><path d="M.644 4.52V.58c0 1.26.816 2.43 2.3 3.299 1.453.854 3.39 1.324 5.454 1.324 2.065 0 4.004-.47 5.458-1.324v3.94c-1.453.854-3.393 1.325-5.458 1.325-2.064 0-4.001-.47-5.454-1.325-1.483-.87-2.3-2.04-2.3-3.3" fill="#6C6C6D" mask="url(#x)"/></g><path d="M28.403 362.358c-2.955-1.78-2.955-4.694 0-6.473 2.955-1.78 7.79-1.78 10.745 0 2.955 1.779 2.955 4.692 0 6.473-2.955 1.78-7.79 1.78-10.745 0z" fill="#DCDBDB"/><g transform="translate(26.313 362.457)"><mask id="z" fill="#fff"><use xlink:href="#y"/></mask><path d="M.773 4.196V.256C2.15 1.06 2.907 2.13 2.907 3.26V7.2c0-1.13-.758-2.2-2.134-3.005" fill="#747575" mask="url(#z)"/></g><g transform="translate(14.125 360.5)"><mask id="B" fill="#fff"><use xlink:href="#A"/></mask><g mask="url(#B)"><path d="M.583 7.887v-3.94c.132-.248.304-.489.513-.719v3.94c-.21.232-.38.471-.513.719" fill="#777878"/><path d="M1.096 7.17V3.228c.336-.37.768-.712 1.288-1.017C3.79 1.384 5.666.932 7.673.932c2.006 0 3.885.452 5.288 1.279v3.94c-1.403-.826-3.282-1.278-5.288-1.278-2.007 0-3.884.452-5.289 1.278-.52.306-.952.649-1.288 1.019" fill="#747575"/></g></g><g transform="translate(27.25 365.391)"><mask id="D" fill="#fff"><use xlink:href="#C"/></mask><g mask="url(#D)"><path d="M.006 7.566v-3.94a5.788 5.788 0 0 0 1.37-1.085v3.94c-.359.396-.82.761-1.37 1.085" fill="#888889"/><path d="M1.376 6.482v-3.94c.227-.25.415-.513.56-.785v3.94a3.965 3.965 0 0 1-.56.785" fill="#939598"/></g></g><path d="M27.256 369.017c-1.453.854-3.394 1.324-5.458 1.324-2.065 0-4.002-.47-5.455-1.324-1.484-.87-2.3-2.04-2.3-3.3 0-1.257.816-2.43 2.3-3.303 1.453-.85 3.391-1.321 5.454-1.321 2.065 0 4.005.47 5.459 1.321 1.484.873 2.3 2.047 2.3 3.303 0 1.26-.817 2.43-2.3 3.3zm-.17-6.305c-1.403-.827-3.282-1.279-5.288-1.279-2.007 0-3.884.452-5.289 1.279-1.375.805-2.13 1.874-2.13 3.005 0 1.13.755 2.2 2.13 3.005 1.405.824 3.282 1.279 5.288 1.279 2.007 0 3.886-.455 5.289-1.279 1.375-.805 2.134-1.874 2.134-3.005 0-1.132-.759-2.201-2.134-3.005z" fill="#B1B0AF"/><g transform="translate(13.188 365.391)"><mask id="F" fill="#fff"><use xlink:href="#E"/></mask><path d="M.856 4.266V.326c0 1.26.816 2.43 2.3 3.3 1.453.853 3.39 1.324 5.454 1.324 2.064 0 4.004-.47 5.458-1.325v3.94C12.615 8.42 10.674 8.89 8.61 8.89s-4.001-.47-5.454-1.324c-1.484-.87-2.3-2.04-2.3-3.3" fill="#6C6C6D" mask="url(#F)"/></g><path d="M16.427 368.952c-2.955-1.78-2.955-4.694 0-6.473 2.955-1.78 7.79-1.78 10.744 0 2.955 1.78 2.955 4.693 0 6.473-2.955 1.78-7.79 1.782-10.744 0z" fill="#DCDBDB"/><g><g transform="translate(31 353.652)"><mask id="H" fill="#fff"><use xlink:href="#G"/></mask><path d="M.642 4.903V.963c1.376.805 2.134 1.874 2.134 3.005v3.94c-.001-1.13-.76-2.2-2.134-3.005" fill="#747575" mask="url(#H)"/></g><g transform="translate(18.813 352.674)"><mask id="J" fill="#fff"><use xlink:href="#I"/></mask><g mask="url(#J)"><path d="M.452 7.616v-3.94c.132-.248.304-.489.513-.719v3.94c-.21.23-.38.471-.513.719" fill="#777878"/><path d="M.964 6.899v-3.94c.335-.37.768-.713 1.288-1.018C3.657 1.114 5.534.662 7.54.662c2.007 0 3.886.452 5.289 1.279v3.94c-1.403-.826-3.282-1.278-5.289-1.278-2.006 0-3.883.452-5.288 1.278-.52.305-.953.648-1.288 1.018" fill="#747575"/></g></g><g transform="translate(31 357.565)"><mask id="L" fill="#fff"><use xlink:href="#K"/></mask><g mask="url(#L)"><path d="M.81 7.295v-3.94A5.788 5.788 0 0 0 2.183 2.27v3.94c-.36.396-.819.761-1.371 1.085" fill="#888889"/><path d="M2.182 6.21V2.27c.226-.25.414-.513.56-.785v3.94a3.836 3.836 0 0 1-.56.785" fill="#939598"/></g></g><path d="M31.81 360.919c-1.452.854-3.393 1.324-5.457 1.324-2.065 0-4.001-.47-5.455-1.324-1.484-.87-2.3-2.041-2.3-3.3 0-1.257.816-2.43 2.3-3.303 1.454-.85 3.391-1.321 5.455-1.321s4.004.47 5.458 1.321c1.484.873 2.3 2.047 2.3 3.303 0 1.26-.816 2.431-2.3 3.3zm-.168-6.305c-1.402-.827-3.282-1.279-5.288-1.279-2.006 0-3.883.452-5.289 1.279-1.375.805-2.13 1.874-2.13 3.005 0 1.13.755 2.2 2.13 3.005 1.406.824 3.283 1.279 5.289 1.279s3.886-.455 5.288-1.279c1.376-.805 2.134-1.874 2.134-3.005-.001-1.13-.76-2.2-2.134-3.005z" fill="#B1B0AF"/><g transform="translate(17.875 357.565)"><mask id="N" fill="#fff"><use xlink:href="#M"/></mask><path d="M.724 3.995V.055c0 1.26.815 2.43 2.3 3.3 1.453.853 3.39 1.324 5.454 1.324 2.064 0 4.004-.47 5.458-1.325v3.94c-1.453.855-3.394 1.325-5.458 1.325-2.065 0-4.001-.47-5.455-1.324-1.484-.87-2.3-2.04-2.3-3.3" fill="#6C6C6D" mask="url(#N)"/></g><path d="M20.982 360.855c-2.955-1.78-2.955-4.694 0-6.473 2.955-1.78 7.79-1.78 10.745 0 2.955 1.78 2.955 4.693 0 6.473-2.955 1.78-7.79 1.782-10.745 0z" fill="#DCDBDB"/></g><g><g transform="translate(13.188 370.283)"><mask id="P" fill="#fff"><use xlink:href="#O"/></mask><path d="M.856 4.11V.17C2.23.973 2.99 2.043 2.99 3.173v3.94c-.001-1.13-.76-2.2-2.134-3.004" fill="#747575" mask="url(#P)"/></g><g transform="translate(1 368.326)"><mask id="R" fill="#fff"><use xlink:href="#Q"/></mask><g mask="url(#R)"><path d="M.666 7.802v-3.94c.132-.248.303-.489.512-.719v3.94c-.209.23-.38.47-.512.719" fill="#777878"/><path d="M1.177 7.084v-3.94c.336-.37.768-.713 1.289-1.018C3.87 1.299 5.748.847 7.754.847c2.006 0 3.886.452 5.289 1.279v3.94C11.64 5.24 9.76 4.788 7.754 4.788s-3.883.452-5.288 1.278c-.52.305-.953.648-1.289 1.018" fill="#747575"/></g></g><g transform="translate(14.125 373.217)"><mask id="T" fill="#fff"><use xlink:href="#S"/></mask><g mask="url(#T)"><path d="M.087 7.48V3.54a5.788 5.788 0 0 0 1.37-1.086v3.94C1.1 6.792.64 7.158.088 7.48" fill="#888889"/><path d="M1.458 6.396v-3.94c.227-.251.414-.513.56-.785v3.94a3.862 3.862 0 0 1-.56.785" fill="#939598"/></g></g><path d="M14.212 376.757c-1.453.854-3.394 1.324-5.458 1.324s-4.001-.47-5.454-1.324c-1.484-.87-2.3-2.041-2.3-3.3 0-1.257.816-2.43 2.3-3.303 1.453-.85 3.39-1.321 5.454-1.321 2.064 0 4.004.47 5.458 1.321 1.484.873 2.3 2.047 2.3 3.303 0 1.259-.816 2.43-2.3 3.3zm-.169-6.305c-1.402-.827-3.282-1.279-5.288-1.279-2.006 0-3.883.452-5.288 1.279-1.376.805-2.131 1.874-2.131 3.005 0 1.13.755 2.2 2.13 3.005 1.406.824 3.283 1.279 5.289 1.279s3.886-.455 5.288-1.279c1.376-.805 2.134-1.874 2.134-3.005 0-1.13-.76-2.2-2.134-3.005z" fill="#B1B0AF"/><g transform="translate(1 373.217)"><mask id="V" fill="#fff"><use xlink:href="#U"/></mask><path d="M0 4.18V.24c0 1.26.816 2.43 2.3 3.3 1.453.853 3.39 1.324 5.454 1.324 2.064 0 4.004-.47 5.458-1.325v3.94c-1.453.855-3.394 1.325-5.458 1.325S3.753 8.334 2.3 7.48C.816 6.61 0 5.44 0 4.18" fill="#6C6C6D" mask="url(#V)"/></g><path d="M3.383 376.693c-2.955-1.78-2.955-4.694 0-6.473 2.955-1.78 7.79-1.78 10.745 0 2.955 1.78 2.955 4.693 0 6.473-2.955 1.78-7.79 1.78-10.745 0z" fill="#DCDBDB"/></g><g><g transform="translate(13.188 362.457)"><mask id="X" fill="#fff"><use xlink:href="#W"/></mask><path d="M.856 4.228V.288C2.23 1.093 2.99 2.162 2.99 3.293v3.94c-.001-1.13-.76-2.2-2.134-3.005" fill="#747575" mask="url(#X)"/></g><g transform="translate(1 360.5)"><mask id="Z" fill="#fff"><use xlink:href="#Y"/></mask><g mask="url(#Z)"><path d="M.666 7.919v-3.94c.132-.248.303-.489.512-.718V7.2c-.209.23-.38.47-.512.718" fill="#777878"/><path d="M1.177 7.202v-3.94c.336-.37.768-.713 1.289-1.018C3.87 1.417 5.748.966 7.754.966c2.006 0 3.886.452 5.289 1.278v3.94C11.64 5.359 9.76 4.907 7.754 4.907s-3.883.452-5.288 1.279c-.52.304-.953.647-1.289 1.017" fill="#747575"/></g></g><g transform="translate(14.125 365.391)"><mask id="ab" fill="#fff"><use xlink:href="#aa"/></mask><g mask="url(#ab)"><path d="M.087 7.598v-3.94a5.788 5.788 0 0 0 1.37-1.085v3.94C1.1 6.91.64 7.274.088 7.598" fill="#888889"/><path d="M1.458 6.513v-3.94c.227-.25.414-.513.56-.785v3.94a3.836 3.836 0 0 1-.56.785" fill="#939598"/></g></g><path d="M14.212 369.048c-1.453.854-3.394 1.325-5.458 1.325s-4.001-.47-5.454-1.325c-1.484-.869-2.3-2.04-2.3-3.3 0-1.257.816-2.43 2.3-3.302 1.453-.851 3.39-1.322 5.454-1.322 2.064 0 4.004.47 5.458 1.322 1.484.872 2.3 2.046 2.3 3.302 0 1.26-.816 2.431-2.3 3.3zm-.169-6.305c-1.402-.826-3.282-1.278-5.288-1.278-2.006 0-3.883.452-5.288 1.278-1.376.805-2.131 1.874-2.131 3.005 0 1.131.755 2.2 2.13 3.006 1.406.823 3.283 1.278 5.289 1.278s3.886-.455 5.288-1.278c1.376-.806 2.134-1.875 2.134-3.006 0-1.13-.76-2.2-2.134-3.005z" fill="#B1B0AF"/><g transform="translate(1 365.391)"><mask id="ad" fill="#fff"><use xlink:href="#ac"/></mask><path d="M0 4.298V.358c0 1.26.816 2.43 2.3 3.3 1.453.854 3.39 1.324 5.454 1.324 2.064 0 4.004-.47 5.458-1.324v3.94c-1.453.854-3.394 1.325-5.458 1.325S3.753 8.453 2.3 7.598C.816 6.728 0 5.558 0 4.298" fill="#6C6C6D" mask="url(#ad)"/></g><path d="M3.383 368.984c-2.955-1.78-2.955-4.693 0-6.473 2.955-1.78 7.79-1.78 10.745 0 2.955 1.78 2.955 4.693 0 6.473-2.954 1.782-7.79 1.782-10.745 0z" fill="#DCDBDB"/></g><g><g transform="translate(13.188 354.63)"><mask id="af" fill="#fff"><use xlink:href="#ae"/></mask><path d="M.856 4.345V.405C2.23 1.21 2.99 2.279 2.99 3.41v3.94c-.001-1.13-.76-2.2-2.134-3.005" fill="#747575" mask="url(#af)"/></g><g transform="translate(1 353.652)"><mask id="ah" fill="#fff"><use xlink:href="#ag"/></mask><g mask="url(#ah)"><path d="M.666 7.06V3.118c.132-.248.303-.488.512-.718v3.94c-.209.23-.38.47-.512.718" fill="#777878"/><path d="M1.177 6.341v-3.94c.336-.37.768-.713 1.289-1.018C3.87.557 5.748.105 7.754.105c2.006 0 3.886.452 5.289 1.278v3.94C11.64 4.498 9.76 4.046 7.754 4.046s-3.883.452-5.288 1.279c-.52.305-.953.647-1.289 1.017" fill="#747575"/></g></g><g transform="translate(14.125 357.565)"><mask id="aj" fill="#fff"><use xlink:href="#ai"/></mask><g mask="url(#aj)"><path d="M.087 7.717v-3.94a5.788 5.788 0 0 0 1.37-1.086v3.94C1.1 7.029.64 7.394.088 7.718" fill="#888889"/><path d="M1.458 6.632v-3.94c.227-.251.414-.513.56-.785v3.94a3.862 3.862 0 0 1-.56.785" fill="#939598"/></g></g><path d="M14.212 361.34c-1.453.854-3.394 1.325-5.458 1.325s-4.001-.47-5.454-1.325c-1.484-.87-2.3-2.04-2.3-3.3 0-1.256.816-2.43 2.3-3.302 1.453-.851 3.39-1.322 5.454-1.322 2.064 0 4.004.471 5.458 1.322 1.484.873 2.3 2.047 2.3 3.303 0 1.26-.816 2.43-2.3 3.3zm-.169-6.305c-1.402-.826-3.282-1.278-5.288-1.278-2.006 0-3.883.452-5.288 1.278-1.376.806-2.131 1.875-2.131 3.006 0 1.13.755 2.2 2.13 3.005 1.406.824 3.283 1.278 5.289 1.278s3.886-.454 5.288-1.278c1.376-.805 2.134-1.874 2.134-3.005 0-1.131-.76-2.2-2.134-3.006z" fill="#B1B0AF"/><g transform="translate(1 357.565)"><mask id="al" fill="#fff"><use xlink:href="#ak"/></mask><path d="M0 4.416V.476c0 1.26.816 2.43 2.3 3.3C3.753 4.628 5.69 5.1 7.754 5.1c2.064 0 4.004-.47 5.458-1.325v3.94C11.76 8.57 9.818 9.04 7.754 9.04S3.753 8.57 2.3 7.716C.816 6.846 0 5.676 0 4.416" fill="#6C6C6D" mask="url(#al)"/></g><path d="M3.383 361.277c-2.955-1.78-2.955-4.694 0-6.473 2.955-1.78 7.79-1.78 10.745 0 2.955 1.779 2.955 4.692 0 6.473-2.954 1.78-7.79 1.78-10.745 0z" fill="#DCDBDB"/></g><g><g transform="translate(13.188 346.804)"><mask id="an" fill="#fff"><use xlink:href="#am"/></mask><path d="M.856 4.464V.524C2.23 1.327 2.99 2.397 2.99 3.528v3.94c-.001-1.13-.76-2.2-2.134-3.005" fill="#747575" mask="url(#an)"/></g><g transform="translate(1 345.826)"><mask id="ap" fill="#fff"><use xlink:href="#ao"/></mask><g mask="url(#ap)"><path d="M.666 7.178v-3.94c.132-.248.303-.49.512-.719v3.94c-.209.23-.38.47-.512.719" fill="#777878"/><path d="M1.177 6.46V2.518c.336-.37.768-.712 1.289-1.017C3.87.675 5.748.223 7.754.223c2.006 0 3.886.452 5.289 1.279v3.94C11.64 4.615 9.76 4.163 7.754 4.163s-3.883.452-5.288 1.28c-.52.304-.953.647-1.289 1.016" fill="#747575"/></g></g><g transform="translate(14.125 349.74)"><mask id="ar" fill="#fff"><use xlink:href="#aq"/></mask><g mask="url(#ar)"><path d="M.087 7.834v-3.94a5.788 5.788 0 0 0 1.37-1.085V6.75C1.1 7.145.64 7.511.088 7.834" fill="#888889"/><path d="M1.458 6.75V2.81c.227-.25.414-.513.56-.785v3.94a3.862 3.862 0 0 1-.56.785" fill="#939598"/></g></g><path d="M14.212 353.633c-1.453.854-3.394 1.324-5.458 1.324s-4.001-.47-5.454-1.324c-1.484-.87-2.3-2.041-2.3-3.301 0-1.257.816-2.43 2.3-3.303 1.453-.85 3.39-1.321 5.454-1.321 2.064 0 4.004.47 5.458 1.321 1.484.873 2.3 2.047 2.3 3.303 0 1.26-.816 2.43-2.3 3.3zm-.169-6.305c-1.402-.827-3.282-1.279-5.288-1.279-2.006 0-3.883.452-5.288 1.279-1.376.805-2.131 1.874-2.131 3.005 0 1.13.755 2.2 2.13 3.005 1.406.824 3.283 1.279 5.289 1.279s3.886-.455 5.288-1.279c1.376-.805 2.134-1.874 2.134-3.005 0-1.13-.76-2.2-2.134-3.005z" fill="#B1B0AF"/><g transform="translate(1 349.74)"><mask id="at" fill="#fff"><use xlink:href="#as"/></mask><path d="M0 4.534V.594c0 1.26.816 2.43 2.3 3.3 1.453.853 3.39 1.324 5.454 1.324 2.064 0 4.004-.47 5.458-1.325v3.94c-1.453.855-3.394 1.325-5.458 1.325S3.753 8.688 2.3 7.834C.816 6.964 0 5.794 0 4.534" fill="#6C6C6D" mask="url(#at)"/></g><path d="M3.383 353.569c-2.955-1.78-2.955-4.694 0-6.473 2.955-1.78 7.79-1.78 10.745 0 2.955 1.78 2.955 4.693 0 6.473-2.955 1.78-7.79 1.78-10.745 0z" fill="#DCDBDB"/></g><g><g transform="translate(13.188 338.978)"><mask id="av" fill="#fff"><use xlink:href="#au"/></mask><path d="M.856 4.582V.641C2.23 1.446 2.99 2.515 2.99 3.646v3.94c-.001-1.13-.76-2.199-2.134-3.004" fill="#747575" mask="url(#av)"/></g><g transform="translate(1 338)"><mask id="ax" fill="#fff"><use xlink:href="#aw"/></mask><g mask="url(#ax)"><path d="M.666 7.295v-3.94a3.58 3.58 0 0 1 .511-.719v3.94c-.208.23-.38.471-.511.719" fill="#777878"/><path d="M1.177 6.577v-3.94c.336-.37.768-.713 1.289-1.018C3.87.792 5.748.341 7.754.341c2.006 0 3.886.452 5.289 1.279v3.94C11.64 4.734 9.76 4.282 7.754 4.282s-3.883.452-5.288 1.278c-.52.305-.953.648-1.289 1.017" fill="#747575"/></g></g><g transform="translate(14.125 341.913)"><mask id="az" fill="#fff"><use xlink:href="#ay"/></mask><g mask="url(#az)"><path d="M.087 7.952V4.011a5.788 5.788 0 0 0 1.37-1.085v3.94C1.1 7.264.64 7.628.088 7.952" fill="#888889"/><path d="M1.458 6.867v-3.94c.227-.25.414-.513.56-.785v3.94a3.862 3.862 0 0 1-.56.785" fill="#939598"/></g></g><path d="M14.212 345.924c-1.453.854-3.394 1.324-5.458 1.324s-4.001-.47-5.454-1.324c-1.484-.87-2.3-2.04-2.3-3.3 0-1.257.816-2.43 2.3-3.302C4.754 338.47 6.69 338 8.754 338c2.064 0 4.004.47 5.458 1.322 1.484.872 2.3 2.046 2.3 3.302 0 1.26-.816 2.43-2.3 3.3zm-.169-6.305c-1.402-.827-3.282-1.279-5.288-1.279-2.006 0-3.883.452-5.288 1.279-1.376.805-2.131 1.874-2.131 3.005 0 1.131.755 2.2 2.13 3.005 1.405.824 3.282 1.279 5.288 1.279 2.006 0 3.886-.455 5.289-1.279 1.375-.805 2.133-1.874 2.133-3.005 0-1.13-.758-2.2-2.133-3.005z" fill="#B1B0AF"/><g transform="translate(1 341.913)"><mask id="aB" fill="#fff"><use xlink:href="#aA"/></mask><path d="M0 4.652V.712c0 1.26.816 2.43 2.3 3.299 1.453.854 3.39 1.324 5.454 1.324 2.064 0 4.004-.47 5.458-1.324v3.94c-1.453.854-3.394 1.325-5.458 1.325S3.753 8.806 2.3 7.95C.816 7.083 0 5.911 0 4.651" fill="#6C6C6D" mask="url(#aB)"/></g><path d="M3.383 345.86c-2.955-1.78-2.955-4.693 0-6.473 2.955-1.78 7.79-1.78 10.745 0 2.955 1.78 2.955 4.693 0 6.473-2.955 1.78-7.79 1.78-10.745 0z" fill="#DCDBDB"/></g><g><g transform="translate(42.25 369.304)"><mask id="aD" fill="#fff"><use xlink:href="#aC"/></mask><path d="M.426 4.326V.386C1.8 1.19 2.559 2.26 2.559 3.39v3.94c0-1.13-.758-2.2-2.133-3.005" fill="#747575" mask="url(#aD)"/></g><g transform="translate(29.125 368.326)"><mask id="aF" fill="#fff"><use xlink:href="#aE"/></mask><g mask="url(#aF)"><path d="M1.173 7.04V3.1c.132-.248.304-.489.513-.719v3.94c-.21.23-.38.47-.513.719" fill="#777878"/><path d="M1.686 6.322v-3.94c.335-.37.767-.713 1.288-1.018C4.379.537 6.256.085 8.262.085c2.006 0 3.886.452 5.289 1.279v3.94c-1.403-.827-3.283-1.278-5.289-1.278s-3.883.452-5.288 1.278c-.52.305-.953.648-1.288 1.018" fill="#747575"/></g></g><g transform="translate(42.25 372.24)"><mask id="aH" fill="#fff"><use xlink:href="#aG"/></mask><g mask="url(#aH)"><path d="M.595 7.696v-3.94a5.788 5.788 0 0 0 1.37-1.085v3.94c-.358.397-.818.762-1.37 1.085" fill="#888889"/><path d="M1.966 6.612V2.671c.227-.25.414-.513.56-.785v3.94a3.877 3.877 0 0 1-.56.786" fill="#939598"/></g></g><path d="M42.845 375.995c-1.453.854-3.393 1.324-5.458 1.324-2.064 0-4.001-.47-5.454-1.324-1.484-.87-2.3-2.041-2.3-3.3 0-1.257.816-2.43 2.3-3.303 1.453-.85 3.39-1.321 5.454-1.321 2.065 0 4.004.47 5.458 1.321 1.484.873 2.3 2.047 2.3 3.303 0 1.259-.817 2.43-2.3 3.3zm-.17-6.305c-1.402-.827-3.282-1.279-5.288-1.279-2.006 0-3.883.452-5.288 1.279-1.376.805-2.131 1.874-2.131 3.005 0 1.13.755 2.2 2.13 3.005 1.406.824 3.283 1.279 5.29 1.279 2.005 0 3.885-.455 5.288-1.279 1.375-.805 2.133-1.874 2.133-3.005 0-1.13-.758-2.2-2.133-3.005z" fill="#B1B0AF"/><g transform="translate(29.125 372.24)"><mask id="aJ" fill="#fff"><use xlink:href="#aI"/></mask><path d="M.508 4.396V.456c0 1.26.816 2.43 2.3 3.3C4.26 4.61 6.198 5.08 8.262 5.08c2.065 0 4.004-.47 5.458-1.324v3.94c-1.453.854-3.393 1.325-5.458 1.325-2.064 0-4.001-.471-5.454-1.325-1.484-.869-2.3-2.04-2.3-3.3" fill="#6C6C6D" mask="url(#aJ)"/></g><path d="M32.016 375.931c-2.955-1.78-2.955-4.694 0-6.473 2.955-1.78 7.79-1.78 10.745 0 2.955 1.78 2.955 4.693 0 6.473-2.955 1.78-7.79 1.78-10.745 0z" fill="#DCDBDB"/></g></g><g opacity=".4" fill="#000"><path d="M25.212 517.142c-.012.125-.028.248-.028.374 0 2.947 2.287 5.334 5.107 5.334 2.82 0 5.106-2.388 5.106-5.334 0-.127-.018-.25-.026-.374H25.21zM36.782 514.876c-.334-2.961-2.045-5.39-4.335-6.34v4.556a.488.488 0 0 1-.976 0v-4.863a5.486 5.486 0 0 0-1.164-.13c-.394 0-.779.05-1.154.131v4.862a.488.488 0 1 1-.975 0v-4.554c-2.286.955-4.008 3.393-4.364 6.338h-1.687v1.269h16.347v-1.27h-1.692z"/><path d="M37.169 524.174h-2.196l-3.389 7.532v-7.681h-2.342v7.605l-3.357-7.461-2.193-.001c-3.572 0-6.315 2.58-6.898 6.022l-2.813-9.77a.682.682 0 0 0-.496-.474l-4.638-1.118c-1.462-.166-2.642.057-3.604.683-1.133.737-1.934 1.785-2.253 2.954-.299 1.092-.136 2.23.411 3.259.007.017.005.035.013.053l6.313 13.5-.437.214c-3.172 1.56-.907 6.164 2.265 4.603l.346-.17 2.199 4.702c.355.76 1.037 1.366 1.87 1.662.393.139.809.207 1.235.207.654 0 1.335-.162 1.992-.483 1.888-.922 2.729-2.865 1.956-4.522l-.032-.067a.686.686 0 0 0-.021-.274l-.462-1.602c.317-.415.53-.963.53-1.68v-9.837h1.43l-.002 17.516h15.941l.006-17.516h1.4v15.03c0 3.427 4.468 3.427 4.46 0v-15.393c0-3.784-2.804-7.493-7.234-7.493zm-32.423 1.189c-.521-.802-.672-1.68-.438-2.538.23-.844.827-1.614 1.68-2.168.695-.453 1.551-.602 2.621-.486l4.169 1.009 4.794 16.652-6.831-14.61c-.012-.025-.033-.041-.047-.064a3.497 3.497 0 0 0-.322-.627 2.912 2.912 0 0 0-4.024-.85 2.467 2.467 0 0 0-.722 3.407 2.111 2.111 0 0 0 2.914.618 1.826 1.826 0 0 0 .535-2.52 1.602 1.602 0 0 0-.376-.406c.206.118.388.284.526.497a2.1 2.1 0 0 1-.613 2.903 2.799 2.799 0 0 1-3.866-.817zm13.853 23.42c-.755.369-1.527.442-2.172.216-.49-.174-.888-.52-1.09-.952l-2.21-4.725.115-.057c3.173-1.557.908-6.164-2.264-4.602l-.023.012-5.09-10.882c1.14.35 2.416.23 3.492-.467a3.43 3.43 0 0 0 1.176-1.324l9.381 20.066c.45.963-.116 2.13-1.315 2.715z"/></g><g fill="#9B9B9B"><path d="M115.346 228.334l-8.286-8.286-.573.412c-.62.457-1.124.814-1.51 1.07-.387.255-.9.516-1.542.783-.643.266-1.24.4-1.796.4-.587 0-1.186-.134-1.828-.4-.642-.267-1.156-.528-1.542-.784-.386-.255-.89-.612-1.51-1.069a71.784 71.784 0 0 0-.572-.414l-8.287 8.288a2.5 2.5 0 0 0 1.711.646h24.024a2.5 2.5 0 0 0 1.71-.646zM88.649 214.83A8.653 8.653 0 0 1 87 213.41v12.607l7.303-7.303a564.595 564.595 0 0 0-5.654-3.884zM114.614 214.83a480.744 480.744 0 0 0-5.668 3.887l7.3 7.3V213.41a9.007 9.007 0 0 1-1.632 1.42z"/><path d="M113.635 206H89.61c-.838 0-1.482.284-1.933.85-.452.565-.678 1.272-.678 2.12 0 .686.3 1.429.898 2.229.598.8 1.235 1.428 1.91 1.884.37.262 1.484 1.037 3.345 2.326a1081.472 1081.472 0 0 1 4.276 2.979l.244.173.45.325c.353.255.647.462.881.62.234.158.517.334.849.53.332.196.644.343.938.441.294.098.566.147.816.147h.033c.25 0 .522-.05.816-.147a4.94 4.94 0 0 0 .938-.44c.332-.197.615-.373.849-.531.234-.158.528-.365.881-.62a109.47 109.47 0 0 1 .694-.498l1.652-1.148 5.986-4.157a7.763 7.763 0 0 0 1.99-2.007c.533-.783.8-1.604.8-2.464 0-.718-.259-1.333-.775-1.844-.517-.512-1.13-.767-1.836-.767z"/></g><g fill="#9B9B9B"><path d="M107.579 156.868c-.77-.766-2.043-.743-2.839.053l-1.945 1.945a56.91 56.91 0 0 1-.384-.214c-1.228-.68-2.91-1.613-4.678-3.383-1.774-1.775-2.708-3.458-3.39-4.687-.073-.13-.142-.256-.21-.375l1.305-1.304.642-.642c.797-.798.82-2.07.052-2.839l-3.86-3.862c-.768-.767-2.042-.744-2.84.054l-1.087 1.094a8.283 8.283 0 0 0-.867 1.611 6.557 6.557 0 0 0-.4 1.604c-.509 4.227 1.422 8.09 6.664 13.33 7.245 7.245 13.084 6.698 13.336 6.671a6.524 6.524 0 0 0 1.608-.404 6.27 6.27 0 0 0 1.576-.893l1.126-1.058c.795-.797.818-2.07.052-2.84l-3.861-3.861z"/></g><g fill="#9B9B9B"><path d="M89.63 84.48l1.31 4.875h1.927l2.438-7.577h-1.982l-1.446 4.966-1.267-4.966h-1.935l-1.307 4.966-1.42-4.966H84l2.398 7.577h1.951zM101.973 81.778h-1.934l-1.308 4.966-1.425-4.966h-1.949l2.403 7.577h1.952l1.282-4.875 1.313 4.875h1.925l2.438-7.577h-1.978l-1.453 4.966zM116.05 81.778l-1.45 4.966-1.265-4.966h-1.938l-1.309 4.966-1.418-4.966h-1.95l2.403 7.577h1.95l1.282-4.875 1.308 4.875h1.93l2.438-7.577zM101.015 71.052c-5.86 0-10.902 3.464-13.22 8.447h26.442c-2.322-4.983-7.362-8.447-13.222-8.447zM101.015 100.24c5.862 0 10.897-3.462 13.22-8.446H87.798c2.32 4.982 7.357 8.446 13.218 8.446z"/></g><g fill="#9B9B9B"><path d="M101.938 1c-5.256 0-9.519 4.53-9.519 10.117 0 2.86 2.621 7.98 2.621 7.98l6.548 11.884 6.83-11.746s3.034-4.886 3.034-8.118c0-5.587-4.26-10.117-9.514-10.117zm-.045 15.69c-3.01 0-5.447-2.61-5.447-5.833 0-3.219 2.438-5.828 5.447-5.828 3.008 0 5.449 2.608 5.449 5.828 0 3.224-2.441 5.833-5.449 5.833z"/></g><g fill="#9B9B9B"><path d="M120.303 297.237v2.092a.523.523 0 0 1-.514.513h-8.763a.523.523 0 0 1-.513-.513v-2.093l.237-2.17s-2.25-1.46-7.421-1.46-7.421 1.46-7.421 1.46l.237 2.17v2.053a.523.523 0 0 1-.513.514h-8.803a.523.523 0 0 1-.513-.514v-2.092c.04-3.473 2.17-5.802 2.17-5.802 2.606-1.737 8.961-3.237 14.803-3.237 5.882 0 12.237 1.54 14.843 3.237 0 .04 2.131 2.368 2.17 5.842zm-30.908-9.632v-16.42a.96.96 0 0 1 .947-.948h16.619c.039 0 .039.04.078.04.237 0 .435.078.593.236l9.355 9.355a.87.87 0 0 1 .237.593c0 .039.04.039.04.078v7.066a.96.96 0 0 1-.948.948.96.96 0 0 1-.948-.948v-6.118h-8.407a.96.96 0 0 1-.948-.948v-8.407H91.29v15.473a.96.96 0 0 1-.947.948.96.96 0 0 1-.947-.948zm18.513-8.052h6.079l-3.04-3.04-3.04-3.04v6.08zm-13.263-2.448h7.855a.456.456 0 0 0 .474-.473.456.456 0 0 0-.474-.474h-7.855a.456.456 0 0 0-.474.474.48.48 0 0 0 .474.473zm0 3.632h7.855a.456.456 0 0 0 .474-.474.456.456 0 0 0-.474-.474h-7.855a.456.456 0 0 0-.474.474.48.48 0 0 0 .474.474zm0 3.631h17.329a.456.456 0 0 0 .473-.473.456.456 0 0 0-.473-.474h-17.33a.456.456 0 0 0-.473.474.48.48 0 0 0 .474.473z"/></g><g fill="#FFF"><path d="M170.4 11.24h-1.6c-.48 0-.8.32-.8.8v3.6c0 .24-.16.4-.4.4h-12c-.24 0-.4-.16-.4-.4v-12c0-.24.16-.4.4-.4h3.6c.48 0 .8-.32.8-.8V.84c0-.48-.32-.8-.8-.8h-6.4c-.48 0-.8.32-.8.8v17.6c0 .48.32.8.8.8h17.6c.48 0 .8-.32.8-.8v-6.4c0-.48-.32-.8-.8-.8z"/><path d="M170.4.04H164c-.48 0-.8.32-.8.8v1.6c0 .48.32.8.8.8h.8c.32 0 .56.4.32.72l-6.4 6.4c-.32.32-.32.8 0 1.12l1.12 1.12c.32.32.8.32 1.12 0l6.4-6.4c.24-.24.72-.08.72.32v.8c0 .48.32.8.8.8h1.6c.48 0 .8-.32.8-.8V.92c-.08-.56-.4-.88-.88-.88z"/></g><g fill="#9B9B9B"><path d="M113.484 359.23c-1.752 0-3.297.834-4.307 2.112l-9.362-4.788c.122-.457.21-.93.21-1.427 0-.54-.104-1.05-.25-1.546l9.321-4.766a5.478 5.478 0 0 0 4.389 2.209 5.511 5.511 0 1 0 0-11.024 5.512 5.512 0 0 0-5.511 5.511c0 .499.088.972.212 1.43l-9.362 4.79c-1.01-1.28-2.558-2.117-4.313-2.117a5.511 5.511 0 0 0-5.51 5.513 5.51 5.51 0 0 0 5.51 5.513c1.803 0 3.387-.876 4.395-2.213l9.317 4.766c-.146.494-.252 1.008-.252 1.55a5.513 5.513 0 0 0 5.511 5.513 5.512 5.512 0 0 0 5.516-5.512 5.51 5.51 0 0 0-5.514-5.514z"/></g><g opacity=".4" fill="#000"><path d="M36.806 623.329c-2.191 0-4.07 1.868-4.696 4.467l-11.396-2.518c-.062-1.462-.438-2.843-1.127-3.899l6.512-9.341c.751.65 1.69 1.056 2.693 1.056 2.692 0 4.883-2.843 4.883-6.336 0-3.493-2.191-6.336-4.883-6.336-1.816 0-3.444 1.219-4.258 3.168l-8.829-4.71c.063-.488.125-.976.125-1.463 0-3.493-2.191-6.336-4.883-6.336-2.693 0-4.884 2.843-4.884 6.336 0 3.493 2.191 6.336 4.884 6.336 1.753 0 3.318-1.219 4.195-3.087l8.828 4.711c-.062.488-.125.894-.125 1.381 0 1.543.438 2.924 1.127 4.061l-6.45 9.342c-.75-.65-1.69-1.056-2.692-1.056-2.692 0-4.883 2.843-4.883 6.335 0 3.493 2.191 6.336 4.883 6.336 2.255 0 4.133-1.95 4.696-4.63l11.334 2.518c0 3.493 2.191 6.336 4.883 6.336 2.756 0 4.947-2.924 4.947-6.336 0-3.493-2.191-6.335-4.884-6.335zM28.73 604.32c1.04 0 1.878 1.089 1.878 2.437 0 1.348-.839 2.437-1.878 2.437-1.04 0-1.879-1.089-1.879-2.437 0-1.348.84-2.437 1.879-2.437zm-17.782-4.467c-1.04 0-1.879-1.089-1.879-2.437 0-1.348.84-2.437 1.879-2.437 1.039 0 1.878 1.089 1.878 2.437 0 1.348-.84 2.437-1.878 2.437zm4.883 28.023c-1.039 0-1.878-1.088-1.878-2.437 0-1.348.839-2.436 1.878-2.436 1.04 0 1.879 1.088 1.879 2.436 0 1.349-.84 2.437-1.879 2.437zm20.913 4.143c-1.039 0-1.878-1.089-1.878-2.437 0-1.348.84-2.437 1.878-2.437 1.04 0 1.879 1.089 1.879 2.437 0 1.348-.84 2.437-1.879 2.437z"/></g></g></svg>