<?xml version="1.0" encoding="UTF-8" standalone="no"?>
<svg width="24px" height="24px" viewBox="0 0 24 24" version="1.1" xmlns="http://www.w3.org/2000/svg" xmlns:xlink="http://www.w3.org/1999/xlink">
    <!-- Generator: Sketch 3.6.1 (26313) - http://www.bohemiancoding.com/sketch -->
    <title>Shape</title>
    <desc>Created with Sketch.</desc>
    <defs></defs>
    <g id="Page-1" stroke="none" stroke-width="1" fill="none" fill-rule="evenodd">
        <g id="ic_search-grey" fill="#FFFFFF">
            <g id="Page-2">
                <g id="iPad-Landscape-Copy-2">
                    <g id="search">
                        <path d="M16.6666667,14.6666667 L15.6,14.6666667 L15.2,14.2666667 C16.5333333,12.8 17.3333333,10.8 17.3333333,8.66666667 C17.3333333,3.86666667 13.4666667,0 8.66666667,0 C3.86666667,0 0,3.86666667 0,8.66666667 C0,13.4666667 3.86666667,17.3333333 8.66666667,17.3333333 C10.8,17.3333333 12.8,16.5333333 14.2666667,15.2 L14.6666667,15.6 L14.6666667,16.6666667 L21.3333333,23.3333333 L23.3333333,21.3333333 L16.6666667,14.6666667 L16.6666667,14.6666667 L16.6666667,14.6666667 Z M8.66666667,14.6666667 C5.33333333,14.6666667 2.66666667,12 2.66666667,8.66666667 C2.66666667,5.33333333 5.33333333,2.66666667 8.66666667,2.66666667 C12,2.66666667 14.6666667,5.33333333 14.6666667,8.66666667 C14.6666667,12 12,14.6666667 8.66666667,14.6666667 L8.66666667,14.6666667 L8.66666667,14.6666667 Z" id="Shape"></path>
                    </g>
                </g>
            </g>
        </g>
    </g>
</svg>