<svg width="20" height="45" viewBox="0 0 20 45" xmlns="http://www.w3.org/2000/svg"><title>ic_Tender</title><g fill="none" fill-rule="evenodd"><path d="M19.938 1.048L18.126 0 0 10.465l1.813 1.048L19.938 1.048z" fill="#888889"/><path d="M1.813 45L0 43.952V10.465l1.813 1.048V45z" fill="#505051"/><path d="M1.813 11.513L19.938 1.048v33.487L1.813 45V11.513z" fill="#DCDBDB"/><path d="M12.685 3.141l.003-1.058 2.736 1.571v.978l-2.739-1.491z" fill="#505051"/><path d="M16.313.128l-3.625 1.955 2.736 1.571 3.727-2.025L16.313.128z" fill="#6C6C6D"/><path d="M19.151 1.629l.011 1.001-3.738 2.002v-.978l3.727-2.025z" fill="#939598"/><path d="M19.162 2.63v10.527l-1.035-2.692-2.703 4.719V4.632l3.738-2.002z" fill="#939598"/><path d="M14.5 4.13v10.521l.924.533V4.632L14.5 4.13z" fill="#505051"/><path d="M19.162 13.157l-2.006-1.19.971-1.502 1.035 2.692z" fill="#6C6C6D"/><path d="M5.438 24.07l10.875-6.28v2.094L5.438 26.162V24.07z" fill="#939598"/><path d="M16.313 19.884L14.5 18.837 5.438 24.07v2.092l10.875-6.278z" fill="#505051"/><g><path d="M5.438 30.349l10.875-6.279v2.093L5.438 32.441v-2.092z" fill="#939598"/><path d="M16.313 26.163L14.5 25.116l-9.062 5.233v2.092l10.875-6.278z" fill="#505051"/></g><g><path d="M5.438 36.628l10.875-6.279v2.093L5.438 38.721v-2.093z" fill="#939598"/><path d="M16.313 32.442L14.5 31.395l-9.062 5.233v2.093l10.875-6.279z" fill="#505051"/></g></g></svg>