<?xml version="1.0" encoding="UTF-8" standalone="no"?>
<svg width="45px" height="44px" viewBox="0 0 45 44" version="1.1" xmlns="http://www.w3.org/2000/svg" xmlns:xlink="http://www.w3.org/1999/xlink">
    <!-- Generator: Sketch 3.6.1 (26313) - http://www.bohemiancoding.com/sketch -->
    <title>ic_Icons</title>
    <desc>Created with Sketch.</desc>
    <defs>
        <path id="path-1" d="M0.5625,4.44913043 L0.5625,0.508695652 C1.9378125,1.31380435 2.69625,2.38304348 2.69625,3.51391304 L2.69625,7.45434783 C2.69625,6.32347826 1.9378125,5.25423913 0.5625,4.44913043 L0.5625,4.44913043 Z"></path>
        <path id="path-3" d="M0.0421875,8.4326087 L0.0421875,4.49217391 C0.0421875,3.36130435 0.7978125,2.29206522 2.173125,1.48695652 C3.5784375,0.660326087 5.4553125,0.208369565 7.4615625,0.208369565 C9.4678125,0.208369565 11.3475,0.660326087 12.75,1.48695652 L12.75,5.4273913 C11.3475,4.60076087 9.4678125,4.14880435 7.4615625,4.14880435 C5.4553125,4.14880435 3.5784375,4.60076087 2.173125,5.4273913 C0.7978125,6.2325 0.0421875,7.30173913 0.0421875,8.4326087 L0.0421875,8.4326087 Z"></path>
        <path id="path-5" d="M0.73125,7.81923913 L0.73125,3.87880435 C2.2153125,3.00913043 3.0309375,1.83815217 3.0309375,0.579130435 L3.0309375,4.51956522 C3.0309375,5.77858696 2.2153125,6.94956522 0.73125,7.81923913 L0.73125,7.81923913 Z"></path>
        <path id="path-7" d="M0.6440625,4.51956522 L0.6440625,0.579130435 C0.6440625,1.83913043 1.4596875,3.00913043 2.94375,3.87880435 C4.396875,4.73282609 6.3346875,5.20336957 8.398125,5.20336957 C10.4625,5.20336957 12.4021875,4.73282609 13.85625,3.87880435 L13.85625,7.81923913 C12.403125,8.67326087 10.4625,9.14380435 8.398125,9.14380435 C6.33375,9.14380435 4.396875,8.67326087 2.94375,7.81923913 C1.460625,6.94956522 0.6440625,5.77858696 0.6440625,4.51956522 L0.6440625,4.51956522 Z"></path>
        <path id="path-9" d="M0.7734375,4.19576087 L0.7734375,0.255326087 C2.14875,1.06043478 2.9071875,2.12967391 2.9071875,3.26054348 L2.9071875,7.20097826 C2.9071875,6.0701087 2.14875,5.00086957 0.7734375,4.19576087 L0.7734375,4.19576087 Z"></path>
        <path id="path-11" d="M0.253125,9.1575 L0.253125,5.21706522 C0.253125,4.08619565 1.00875,3.01695652 2.3840625,2.21184783 C3.789375,1.38521739 5.66625,0.93326087 7.6725,0.93326087 C9.67875,0.93326087 11.5584375,1.38521739 12.9609375,2.21184783 L12.9609375,6.15228261 C11.5584375,5.32565217 9.67875,4.87369565 7.6725,4.87369565 C5.66625,4.87369565 3.789375,5.32565217 2.3840625,6.15228261 C1.00875,6.9573913 0.253125,8.02663043 0.253125,9.1575 L0.253125,9.1575 Z"></path>
        <path id="path-13" d="M0.005625,7.56586957 L0.005625,3.62543478 C1.4896875,2.75576087 2.3053125,1.58478261 2.3053125,0.32576087 L2.3053125,4.26619565 C2.3053125,5.52619565 1.48875,6.69619565 0.005625,7.56586957 L0.005625,7.56586957 Z"></path>
        <path id="path-15" d="M0.8559375,4.26619565 L0.8559375,0.32576087 C0.8559375,1.58576087 1.6715625,2.75576087 3.155625,3.62543478 C4.60875,4.47945652 6.5465625,4.95 8.61,4.95 C10.674375,4.95 12.6140625,4.47945652 14.068125,3.62543478 L14.068125,7.56586957 C12.615,8.4198913 10.674375,8.89043478 8.61,8.89043478 C6.545625,8.89043478 4.60875,8.4198913 3.155625,7.56586957 C1.6715625,6.69619565 0.8559375,5.52619565 0.8559375,4.26619565 L0.8559375,4.26619565 Z"></path>
        <path id="path-17" d="M0.6421875,4.90304348 L0.6421875,0.962608696 C2.0175,1.76771739 2.7759375,2.83695652 2.7759375,3.96782609 L2.7759375,7.90826087 C2.775,6.7773913 2.0165625,5.70815217 0.6421875,4.90304348 L0.6421875,4.90304348 Z"></path>
        <path id="path-19" d="M0.121875,8.88652174 L0.121875,4.94608696 C0.121875,3.81521739 0.8775,2.74597826 2.2528125,1.94086957 C3.658125,1.11423913 5.535,0.662282609 7.54125,0.662282609 C9.5475,0.662282609 11.4271875,1.11423913 12.8296875,1.94086957 L12.8296875,5.88130435 C11.4271875,5.05467391 9.5475,4.60271739 7.54125,4.60271739 C5.535,4.60271739 3.658125,5.05467391 2.2528125,5.88130435 C0.8775,6.68641304 0.121875,7.75565217 0.121875,8.88652174 L0.121875,8.88652174 Z"></path>
        <path id="path-21" d="M0.8109375,7.2948913 L0.8109375,3.35445652 C2.295,2.48478261 3.110625,1.31380435 3.110625,0.0547826087 L3.110625,3.99521739 C3.110625,5.25423913 2.295,6.42521739 0.8109375,7.2948913 L0.8109375,7.2948913 Z"></path>
        <path id="path-23" d="M0.72375,3.99521739 L0.72375,0.0547826087 C0.72375,1.31478261 1.539375,2.48478261 3.0234375,3.35445652 C4.4765625,4.20847826 6.414375,4.67902174 8.4778125,4.67902174 C10.5421875,4.67902174 12.481875,4.20847826 13.9359375,3.35445652 L13.9359375,7.2948913 C12.4828125,8.14891304 10.5421875,8.61945652 8.4778125,8.61945652 C6.4134375,8.61945652 4.4765625,8.14891304 3.0234375,7.2948913 C1.539375,6.42521739 0.72375,5.25423913 0.72375,3.99521739 L0.72375,3.99521739 Z"></path>
        <path id="path-25" d="M0.8559375,4.10967391 L0.8559375,0.16923913 C2.23125,0.974347826 2.9896875,2.04358696 2.9896875,3.17445652 L2.9896875,7.1148913 C2.98875,5.98402174 2.2303125,4.91478261 0.8559375,4.10967391 L0.8559375,4.10967391 Z"></path>
        <path id="path-27" d="M0.335625,9.07141304 L0.335625,5.13097826 C0.335625,4.0001087 1.09125,2.93086957 2.4665625,2.12576087 C3.871875,1.29913043 5.74875,0.847173913 7.755,0.847173913 C9.76125,0.847173913 11.6409375,1.29913043 13.0434375,2.12576087 L13.0434375,6.06619565 C11.6409375,5.23956522 9.76125,4.7876087 7.755,4.7876087 C5.74875,4.7876087 3.871875,5.23956522 2.4665625,6.06619565 C1.09125,6.87130435 0.335625,7.94054348 0.335625,9.07141304 L0.335625,9.07141304 Z"></path>
        <path id="path-29" d="M0.0871875,7.47978261 L0.0871875,3.53934783 C1.57125,2.66967391 2.386875,1.49869565 2.386875,0.239673913 L2.386875,4.1801087 C2.386875,5.4401087 1.57125,6.6101087 0.0871875,7.47978261 L0.0871875,7.47978261 Z"></path>
        <path id="path-31" d="M0,4.1801087 L0,0.239673913 C0,1.49967391 0.815625,2.66967391 2.2996875,3.53934783 C3.7528125,4.39336957 5.690625,4.86391304 7.7540625,4.86391304 C9.8184375,4.86391304 11.758125,4.39336957 13.2121875,3.53934783 L13.2121875,7.47978261 C11.7590625,8.33380435 9.8184375,8.80434783 7.7540625,8.80434783 C5.6896875,8.80434783 3.7528125,8.33380435 2.2996875,7.47978261 C0.815625,6.6101087 0,5.4401087 0,4.1801087 L0,4.1801087 Z"></path>
        <path id="path-33" d="M0.8559375,4.22804348 L0.8559375,0.287608696 C2.23125,1.09271739 2.9896875,2.16195652 2.9896875,3.29282609 L2.9896875,7.23326087 C2.98875,6.1023913 2.2303125,5.03315217 0.8559375,4.22804348 L0.8559375,4.22804348 Z"></path>
        <path id="path-35" d="M0.335625,9.18978261 L0.335625,5.24934783 C0.335625,4.11847826 1.09125,3.04923913 2.4665625,2.24413043 C3.871875,1.4175 5.74875,0.965543478 7.755,0.965543478 C9.76125,0.965543478 11.6409375,1.4175 13.0434375,2.24413043 L13.0434375,6.18456522 C11.6409375,5.35793478 9.76125,4.90597826 7.755,4.90597826 C5.74875,4.90597826 3.871875,5.35793478 2.4665625,6.18456522 C1.09125,6.98967391 0.335625,8.05891304 0.335625,9.18978261 L0.335625,9.18978261 Z"></path>
        <path id="path-37" d="M0.0871875,7.59815217 L0.0871875,3.65771739 C1.57125,2.78804348 2.386875,1.61706522 2.386875,0.358043478 L2.386875,4.29847826 C2.386875,5.5575 1.57125,6.72847826 0.0871875,7.59815217 L0.0871875,7.59815217 Z"></path>
        <path id="path-39" d="M0,4.29847826 L0,0.358043478 C0,1.61804348 0.815625,2.78804348 2.2996875,3.65771739 C3.7528125,4.51173913 5.690625,4.98228261 7.7540625,4.98228261 C9.8184375,4.98228261 11.758125,4.51173913 13.2121875,3.65771739 L13.2121875,7.59815217 C11.7590625,8.45217391 9.8184375,8.92271739 7.7540625,8.92271739 C5.6896875,8.92271739 3.7528125,8.45217391 2.2996875,7.59815217 C0.815625,6.72847826 0,5.5575 0,4.29847826 L0,4.29847826 Z"></path>
        <path id="path-41" d="M0.8559375,4.34543478 L0.8559375,0.405 C2.23125,1.2101087 2.9896875,2.27934783 2.9896875,3.41021739 L2.9896875,7.35065217 C2.98875,6.21978261 2.2303125,5.15054348 0.8559375,4.34543478 L0.8559375,4.34543478 Z"></path>
        <path id="path-43" d="M0.335625,8.32891304 L0.335625,4.38847826 C0.335625,3.2576087 1.09125,2.18836957 2.4665625,1.38326087 C3.871875,0.556630435 5.74875,0.104673913 7.755,0.104673913 C9.76125,0.104673913 11.6409375,0.556630435 13.0434375,1.38326087 L13.0434375,5.32369565 C11.6409375,4.49706522 9.76125,4.0451087 7.755,4.0451087 C5.74875,4.0451087 3.871875,4.49706522 2.4665625,5.32369565 C1.09125,6.12880435 0.335625,7.19804348 0.335625,8.32891304 L0.335625,8.32891304 Z"></path>
        <path id="path-45" d="M0.0871875,7.71652174 L0.0871875,3.77608696 C1.57125,2.90641304 2.386875,1.73543478 2.386875,0.476413043 L2.386875,4.41684783 C2.386875,5.67586957 1.57125,6.84684783 0.0871875,7.71652174 L0.0871875,7.71652174 Z"></path>
        <path id="path-47" d="M0,4.41586957 L0,0.475434783 C0,1.73543478 0.815625,2.90543478 2.2996875,3.7751087 C3.7528125,4.62913043 5.690625,5.09967391 7.7540625,5.09967391 C9.8184375,5.09967391 11.758125,4.62913043 13.2121875,3.7751087 L13.2121875,7.71554348 C11.7590625,8.56956522 9.8184375,9.0401087 7.7540625,9.0401087 C5.6896875,9.0401087 3.7528125,8.56956522 2.2996875,7.71554348 C0.815625,6.84684783 0,5.67586957 0,4.41586957 L0,4.41586957 Z"></path>
        <path id="path-49" d="M0.8559375,4.46380435 L0.8559375,0.523369565 C2.23125,1.32847826 2.9896875,2.39771739 2.9896875,3.52858696 L2.9896875,7.46902174 C2.98875,6.33815217 2.2303125,5.26891304 0.8559375,4.46380435 L0.8559375,4.46380435 Z"></path>
        <path id="path-51" d="M0.335625,8.44728261 L0.335625,4.50684783 C0.335625,3.37597826 1.09125,2.30673913 2.4665625,1.50163043 C3.8709375,0.675 5.7478125,0.223043478 7.7540625,0.223043478 C9.7603125,0.223043478 11.64,0.675 13.0425,1.50163043 L13.0425,5.44206522 C11.64,4.61543478 9.7603125,4.16347826 7.7540625,4.16347826 C5.7478125,4.16347826 3.8709375,4.61543478 2.465625,5.44206522 C1.09125,6.24717391 0.335625,7.31641304 0.335625,8.44728261 L0.335625,8.44728261 Z"></path>
        <path id="path-53" d="M0.0871875,7.83391304 L0.0871875,3.89347826 C1.57125,3.02380435 2.386875,1.85282609 2.386875,0.593804348 L2.386875,4.53423913 C2.386875,5.79423913 1.57125,6.96423913 0.0871875,7.83391304 L0.0871875,7.83391304 Z"></path>
        <path id="path-55" d="M0,4.53423913 L0,0.593804348 C0,1.85380435 0.815625,3.02380435 2.2996875,3.89347826 C3.7528125,4.7475 5.690625,5.21804348 7.7540625,5.21804348 C9.8184375,5.21804348 11.758125,4.7475 13.2121875,3.89347826 L13.2121875,7.83391304 C11.7590625,8.68793478 9.8184375,9.15847826 7.7540625,9.15847826 C5.6896875,9.15847826 3.7528125,8.68793478 2.2996875,7.83391304 C0.815625,6.96423913 0,5.79423913 0,4.53423913 L0,4.53423913 Z"></path>
        <path id="path-57" d="M0.8559375,4.58217391 L0.8559375,0.64076087 C2.23125,1.44586957 2.9896875,2.5151087 2.9896875,3.64597826 L2.9896875,7.58641304 C2.98875,6.45652174 2.2303125,5.38728261 0.8559375,4.58217391 L0.8559375,4.58217391 Z"></path>
        <path id="path-59" d="M0.335625,8.56467391 L0.335625,4.62423913 C0.335625,3.49336957 1.09125,2.42413043 2.4665625,1.61902174 C3.8709375,0.792391304 5.7478125,0.341413043 7.7540625,0.341413043 C9.7603125,0.341413043 11.64,0.793369565 13.0425,1.62 L13.0425,5.56043478 C11.64,4.73380435 9.7603125,4.28184783 7.7540625,4.28184783 C5.7478125,4.28184783 3.8709375,4.73380435 2.465625,5.56043478 C1.09125,6.36554348 0.335625,7.43478261 0.335625,8.56467391 L0.335625,8.56467391 Z"></path>
        <path id="path-61" d="M0.0871875,7.95228261 L0.0871875,4.01086957 C1.57125,3.14119565 2.386875,1.97021739 2.386875,0.711195652 L2.386875,4.65163043 C2.386875,5.91163043 1.57125,7.0826087 0.0871875,7.95228261 L0.0871875,7.95228261 Z"></path>
        <path id="path-63" d="M0,4.65163043 L0,0.711195652 C0,1.97119565 0.815625,3.14119565 2.2996875,4.01086957 C3.7528125,4.8648913 5.690625,5.33543478 7.7540625,5.33543478 C9.8184375,5.33543478 11.758125,4.8648913 13.2121875,4.01086957 L13.2121875,7.95130435 C11.7590625,8.80532609 9.8184375,9.27586957 7.7540625,9.27586957 C5.6896875,9.27586957 3.7528125,8.80532609 2.2996875,7.95130435 C0.815625,7.0826087 0,5.91163043 0,4.65163043 L0,4.65163043 Z"></path>
        <path id="path-65" d="M0.425625,4.32586957 L0.425625,0.385434783 C1.8009375,1.19054348 2.559375,2.25978261 2.559375,3.39065217 L2.559375,7.33108696 C2.559375,6.20021739 1.8009375,5.13097826 0.425625,4.32586957 L0.425625,4.32586957 Z"></path>
        <path id="path-67" d="M0.8428125,8.30934783 L0.8428125,4.36891304 C0.8428125,3.23804348 1.5984375,2.16880435 2.97375,1.36369565 C4.3790625,0.537065217 6.2559375,0.0851086957 8.2621875,0.0851086957 C10.2684375,0.0851086957 12.148125,0.537065217 13.550625,1.36369565 L13.550625,5.30413043 C12.148125,4.4775 10.2684375,4.02554348 8.2621875,4.02554348 C6.2559375,4.02554348 4.3790625,4.4775 2.97375,5.30413043 C1.5984375,6.10923913 0.8428125,7.17847826 0.8428125,8.30934783 L0.8428125,8.30934783 Z"></path>
        <path id="path-69" d="M0.5953125,7.69597826 L0.5953125,3.75554348 C2.079375,2.88586957 2.895,1.7148913 2.895,0.455869565 L2.895,4.39630435 C2.895,5.65630435 2.0784375,6.82728261 0.5953125,7.69597826 L0.5953125,7.69597826 Z"></path>
        <path id="path-71" d="M0.508125,4.39630435 L0.508125,0.455869565 C0.508125,1.71586957 1.32375,2.88586957 2.8078125,3.75554348 C4.2609375,4.60956522 6.19875,5.0801087 8.2621875,5.0801087 C10.3265625,5.0801087 12.26625,4.60956522 13.7203125,3.75554348 L13.7203125,7.69597826 C12.2671875,8.55 10.3265625,9.02054348 8.2621875,9.02054348 C6.1978125,9.02054348 4.2609375,8.55 2.8078125,7.69597826 C1.32375,6.82728261 0.508125,5.65630435 0.508125,4.39630435 L0.508125,4.39630435 Z"></path>
    </defs>
    <g id="Page-2" stroke="none" stroke-width="1" fill="none" fill-rule="evenodd">
        <g id="Artboard-6" transform="translate(-19.000000, -543.000000)">
            <g id="ic_Icons" transform="translate(19.000000, 543.000000)">
                <g id="Layer_1">
                    <g id="Group">
                        <g transform="translate(24.375000, 15.652174)">
                            <g>
                                <g id="Clipped" transform="translate(13.125000, 1.956522)">
                                    <mask id="mask-2" fill="white">
                                        <use xlink:href="#path-1"></use>
                                    </mask>
                                    <g id="SVGID_25_"></g>
                                    <path d="M0.5625,4.44913043 L0.5625,0.508695652 C1.9378125,1.31380435 2.69625,2.38304348 2.69625,3.51391304 L2.69625,7.45434783 C2.69625,6.32347826 1.9378125,5.25423913 0.5625,4.44913043" id="Shape" fill="#747575" mask="url(#mask-2)"></path>
                                </g>
                                <g id="Clipped" transform="translate(0.937500, 0.978261)">
                                    <mask id="mask-4" fill="white">
                                        <use xlink:href="#path-3"></use>
                                    </mask>
                                    <g id="SVGID_27_"></g>
                                    <g id="Group" mask="url(#mask-4)">
                                        <path id="Shape" fill="#7E7F7E" d="M0.0421875,8.4326087 L0.0421875,4.49217391 C0.0421875,4.27402174 0.0721875,4.05782609 0.1311875,3.84554348 L0.1311875,7.78597826 C0.0721875,7.99826087 0.0421875,8.21347826 0.0421875,8.4326087"></path>
                                        <path id="Shape" fill="#7B7C7B" d="M0.125625,7.78597826 L0.125625,3.84456522 C0.184625,3.63228261 0.272625,3.42391304 0.388625,3.22141304 L0.388625,7.16184783 C0.272625,7.36532609 0.184625,7.57369565 0.125625,7.78597826"></path>
                                        <path d="M0.3721875,7.16184783 L0.3721875,3.22141304 C0.504375,2.97391304 0.6759375,2.73326087 0.885,2.50336957 L0.885,6.44380435 C0.6759375,6.67369565 0.504375,6.91434783 0.3721875,7.16184783" id="Shape" fill="#777878"></path>
                                        <path d="M0.885,6.44380435 L0.885,2.50336957 C1.220625,2.13358696 1.6528125,1.79119565 2.173125,1.48597826 C3.5784375,0.659347826 5.4553125,0.207391304 7.4615625,0.207391304 C9.4678125,0.207391304 11.3475,0.659347826 12.75,1.48597826 L12.75,5.42641304 C11.3475,4.59978261 9.4678125,4.14782609 7.4615625,4.14782609 C5.4553125,4.14782609 3.5784375,4.59978261 2.173125,5.42641304 C1.651875,5.73163043 1.220625,6.075 0.885,6.44380435" id="Shape" fill="#747575"></path>
                                    </g>
                                </g>
                                <g id="Clipped" transform="translate(13.125000, 4.891304)">
                                    <mask id="mask-6" fill="white">
                                        <use xlink:href="#path-5"></use>
                                    </mask>
                                    <g id="SVGID_29_"></g>
                                    <g id="Group" mask="url(#mask-6)">
                                        <path d="M0.73125,7.81923913 L0.73125,3.87880435 C1.2834375,3.555 1.7428125,3.1901087 2.101875,2.79391304 L2.101875,6.73434783 C1.7428125,7.13054348 1.2834375,7.49543478 0.73125,7.81923913" id="Shape" fill="#888889"></path>
                                        <path d="M2.1028125,6.73434783 L2.1028125,2.79391304 C2.3296875,2.54347826 2.5171875,2.28130435 2.6625,2.00934783 L2.6625,5.94978261 C2.5171875,6.22173913 2.3296875,6.48391304 2.1028125,6.73434783" id="Shape" fill="#939598"></path>
                                        <path id="Shape" fill="#C1C1BF" d="M2.6625,5.94978261 L2.6625,2.00934783 C2.7915,1.78336957 2.8885,1.55152174 2.9545,1.31478261 L2.9545,5.25521739 C2.8885,5.49195652 2.7915,5.72478261 2.6625,5.94978261"></path>
                                        <path id="Shape" fill="#DCDBDB" d="M2.93625,5.25521739 L2.93625,1.31478261 C3.00325,1.07413043 3.03725,0.828586957 3.03725,0.579130435 L3.03725,4.51956522 C3.03725,4.76804348 3.00325,5.01456522 2.93625,5.25521739"></path>
                                    </g>
                                </g>
                                <path d="M13.85625,8.76913043 C12.403125,9.62315217 10.4625,10.0936957 8.398125,10.0936957 C6.33375,10.0936957 4.396875,9.62315217 2.94375,8.76913043 C1.4596875,7.89945652 0.6440625,6.72847826 0.6440625,5.46945652 C0.6440625,4.2123913 1.4596875,3.03945652 2.94375,2.16684783 C4.396875,1.31576087 6.3346875,0.845217391 8.398125,0.845217391 C10.4625,0.845217391 12.4021875,1.31576087 13.85625,2.16684783 C15.3403125,3.03945652 16.1559375,4.21336957 16.1559375,5.46945652 C16.1559375,6.72945652 15.3403125,7.89945652 13.85625,8.76913043 L13.85625,8.76913043 Z M13.6875,2.46423913 C12.285,1.6376087 10.4053125,1.18565217 8.3990625,1.18565217 C6.3928125,1.18565217 4.5159375,1.6376087 3.110625,2.46423913 C1.7353125,3.26934783 0.9796875,4.33858696 0.9796875,5.46945652 C0.9796875,6.60032609 1.7353125,7.66956522 3.110625,8.47467391 C4.5159375,9.29836957 6.3928125,9.75326087 8.3990625,9.75326087 C10.4053125,9.75326087 12.285,9.29836957 13.6875,8.47467391 C15.0628125,7.66956522 15.82125,6.60032609 15.82125,5.46945652 C15.82125,4.33858696 15.0628125,3.26934783 13.6875,2.46423913 L13.6875,2.46423913 Z" id="Shape" fill="#B1B0AF"></path>
                                <g id="Clipped" transform="translate(0.000000, 4.891304)">
                                    <mask id="mask-8" fill="white">
                                        <use xlink:href="#path-7"></use>
                                    </mask>
                                    <g id="SVGID_31_"></g>
                                    <path d="M0.6440625,4.51956522 L0.6440625,0.579130435 C0.6440625,1.83913043 1.4596875,3.00913043 2.94375,3.87880435 C4.396875,4.73282609 6.3346875,5.20336957 8.398125,5.20336957 C10.4625,5.20336957 12.4021875,4.73282609 13.85625,3.87880435 L13.85625,7.81923913 C12.403125,8.67326087 10.4625,9.14380435 8.398125,9.14380435 C6.33375,9.14380435 4.396875,8.67326087 2.94375,7.81923913 C1.460625,6.94956522 0.6440625,5.77858696 0.6440625,4.51956522" id="Shape" fill="#6C6C6D" mask="url(#mask-8)"></path>
                                </g>
                            </g>
                            <path d="M3.028125,8.70554348 C0.073125,6.9251087 0.073125,4.01184783 3.028125,2.2323913 C5.983125,0.452934783 10.8178125,0.452934783 13.7728125,2.2323913 C16.7278125,4.01184783 16.7278125,6.9251087 13.7728125,8.70554348 C10.8178125,10.4859783 5.983125,10.4859783 3.028125,8.70554348 L3.028125,8.70554348 Z" id="Shape" fill="#DCDBDB"></path>
                        </g>
                        <g transform="translate(12.187500, 22.500000)">
                            <g>
                                <g id="Clipped" transform="translate(13.125000, 1.956522)">
                                    <mask id="mask-10" fill="white">
                                        <use xlink:href="#path-9"></use>
                                    </mask>
                                    <g id="SVGID_33_"></g>
                                    <path d="M0.7734375,4.19576087 L0.7734375,0.255326087 C2.14875,1.06043478 2.9071875,2.12967391 2.9071875,3.26054348 L2.9071875,7.20097826 C2.9071875,6.0701087 2.14875,5.00086957 0.7734375,4.19576087" id="Shape" fill="#747575" mask="url(#mask-10)"></path>
                                </g>
                                <g id="Clipped" transform="translate(0.937500, 0.000000)">
                                    <mask id="mask-12" fill="white">
                                        <use xlink:href="#path-11"></use>
                                    </mask>
                                    <g id="SVGID_35_"></g>
                                    <g id="Group" mask="url(#mask-12)">
                                        <path id="Shape" fill="#7E7F7E" d="M0.253125,9.1575 L0.253125,5.21706522 C0.253125,4.99891304 0.283125,4.78271739 0.342125,4.57043478 L0.342125,8.51086957 C0.283125,8.72315217 0.253125,8.93934783 0.253125,9.1575"></path>
                                        <path id="Shape" fill="#7B7C7B" d="M0.3365625,8.51086957 L0.3365625,4.57043478 C0.3955625,4.35815217 0.4835625,4.14978261 0.5995625,3.94728261 L0.5995625,7.88771739 C0.4835625,8.09021739 0.3955625,8.29858696 0.3365625,8.51086957"></path>
                                        <path d="M0.583125,7.88673913 L0.583125,3.94630435 C0.7153125,3.69880435 0.886875,3.45815217 1.0959375,3.22826087 L1.0959375,7.16869565 C0.886875,7.39956522 0.71625,7.63923913 0.583125,7.88673913" id="Shape" fill="#777878"></path>
                                        <path d="M1.0959375,7.16967391 L1.0959375,3.22826087 C1.4315625,2.85847826 1.86375,2.51608696 2.3840625,2.21086957 C3.789375,1.38423913 5.66625,0.932282609 7.6725,0.932282609 C9.67875,0.932282609 11.5584375,1.38423913 12.9609375,2.21086957 L12.9609375,6.15130435 C11.5584375,5.32467391 9.67875,4.87271739 7.6725,4.87271739 C5.66625,4.87271739 3.789375,5.32467391 2.3840625,6.15130435 C1.86375,6.4575 1.4315625,6.7998913 1.0959375,7.16967391" id="Shape" fill="#747575"></path>
                                    </g>
                                </g>
                                <g id="Clipped" transform="translate(14.062500, 4.891304)">
                                    <mask id="mask-14" fill="white">
                                        <use xlink:href="#path-13"></use>
                                    </mask>
                                    <g id="SVGID_37_"></g>
                                    <g id="Group" mask="url(#mask-14)">
                                        <path d="M0.005625,7.56586957 L0.005625,3.62543478 C0.5578125,3.30163043 1.0171875,2.93673913 1.37625,2.54054348 L1.37625,6.48097826 C1.0171875,6.87717391 0.556875,7.24206522 0.005625,7.56586957" id="Shape" fill="#888889"></path>
                                        <path d="M1.37625,6.48195652 L1.37625,2.54152174 C1.603125,2.29108696 1.790625,2.02891304 1.9359375,1.75695652 L1.9359375,5.6973913 C1.790625,5.96836957 1.603125,6.23152174 1.37625,6.48195652" id="Shape" fill="#939598"></path>
                                        <path id="Shape" fill="#C1C1BF" d="M1.9359375,5.69641304 L1.9359375,1.75597826 C2.0649375,1.53 2.1619375,1.29815217 2.2279375,1.06141304 L2.2279375,5.00184783 C2.1629375,5.23956522 2.0649375,5.47141304 1.9359375,5.69641304"></path>
                                        <path id="Shape" fill="#DCDBDB" d="M2.210625,5.00184783 L2.210625,1.06141304 C2.277625,0.82076087 2.311625,0.575217391 2.311625,0.32576087 L2.311625,4.26619565 C2.311625,4.51565217 2.277625,4.76119565 2.210625,5.00184783"></path>
                                    </g>
                                </g>
                                <path d="M14.068125,8.51673913 C12.615,9.37076087 10.674375,9.84130435 8.61,9.84130435 C6.545625,9.84130435 4.60875,9.37076087 3.155625,8.51673913 C1.6715625,7.64706522 0.8559375,6.47608696 0.8559375,5.21706522 C0.8559375,3.96 1.6715625,2.78706522 3.155625,1.91445652 C4.60875,1.06336957 6.5465625,0.592826087 8.61,0.592826087 C10.674375,0.592826087 12.6140625,1.06336957 14.068125,1.91445652 C15.5521875,2.78706522 16.3678125,3.96097826 16.3678125,5.21706522 C16.3678125,6.47608696 15.55125,7.64706522 14.068125,8.51673913 L14.068125,8.51673913 Z M13.8984375,2.21184783 C12.4959375,1.38521739 10.61625,0.93326087 8.61,0.93326087 C6.60375,0.93326087 4.726875,1.38521739 3.3215625,2.21184783 C1.94625,3.01695652 1.190625,4.08619565 1.190625,5.21706522 C1.190625,6.34793478 1.94625,7.41717391 3.3215625,8.22228261 C4.726875,9.04597826 6.60375,9.50086957 8.61,9.50086957 C10.61625,9.50086957 12.4959375,9.04597826 13.8984375,8.22228261 C15.27375,7.41717391 16.0321875,6.34793478 16.0321875,5.21706522 C16.0321875,4.08521739 15.27375,3.01597826 13.8984375,2.21184783 L13.8984375,2.21184783 Z" id="Shape" fill="#B1B0AF"></path>
                                <g id="Clipped" transform="translate(0.000000, 4.891304)">
                                    <mask id="mask-16" fill="white">
                                        <use xlink:href="#path-15"></use>
                                    </mask>
                                    <g id="SVGID_39_"></g>
                                    <path d="M0.8559375,4.26619565 L0.8559375,0.32576087 C0.8559375,1.58576087 1.6715625,2.75576087 3.155625,3.62543478 C4.60875,4.47945652 6.5465625,4.95 8.61,4.95 C10.674375,4.95 12.6140625,4.47945652 14.068125,3.62543478 L14.068125,7.56586957 C12.615,8.4198913 10.674375,8.89043478 8.61,8.89043478 C6.545625,8.89043478 4.60875,8.4198913 3.155625,7.56586957 C1.6715625,6.69619565 0.8559375,5.52619565 0.8559375,4.26619565" id="Shape" fill="#6C6C6D" mask="url(#mask-16)"></path>
                                </g>
                            </g>
                            <path d="M3.2390625,8.45217391 C0.2840625,6.67173913 0.2840625,3.75847826 3.2390625,1.97902174 C6.1940625,0.199565217 11.02875,0.199565217 13.98375,1.97902174 C16.93875,3.75847826 16.93875,6.67173913 13.98375,8.45217391 C11.02875,10.2326087 6.1940625,10.233587 3.2390625,8.45217391 L3.2390625,8.45217391 Z" id="Shape" fill="#DCDBDB"></path>
                        </g>
                        <g transform="translate(16.875000, 14.673913)">
                            <g>
                                <g id="Clipped" transform="translate(13.125000, 0.978261)">
                                    <mask id="mask-18" fill="white">
                                        <use xlink:href="#path-17"></use>
                                    </mask>
                                    <g id="SVGID_41_"></g>
                                    <path d="M0.6421875,4.90304348 L0.6421875,0.962608696 C2.0175,1.76771739 2.7759375,2.83695652 2.7759375,3.96782609 L2.7759375,7.90826087 C2.775,6.7773913 2.0165625,5.70815217 0.6421875,4.90304348" id="Shape" fill="#747575" mask="url(#mask-18)"></path>
                                </g>
                                <g id="Clipped" transform="translate(0.937500, 0.000000)">
                                    <mask id="mask-20" fill="white">
                                        <use xlink:href="#path-19"></use>
                                    </mask>
                                    <g id="SVGID_43_"></g>
                                    <g id="Group" mask="url(#mask-20)">
                                        <path id="Shape" fill="#7E7F7E" d="M0.121875,8.88652174 L0.121875,4.94608696 C0.121875,4.72793478 0.151875,4.51173913 0.210875,4.29945652 L0.210875,8.2398913 C0.151875,8.45217391 0.121875,8.6673913 0.121875,8.88652174"></path>
                                        <path id="Shape" fill="#7B7C7B" d="M0.2053125,8.2398913 L0.2053125,4.29945652 C0.2643125,4.08717391 0.3523125,3.87880435 0.4683125,3.67630435 L0.4683125,7.61673913 C0.3523125,7.81923913 0.2643125,8.0276087 0.2053125,8.2398913"></path>
                                        <path d="M0.451875,7.61576087 L0.451875,3.67532609 C0.5840625,3.42782609 0.755625,3.18717391 0.9646875,2.95728261 L0.9646875,6.89771739 C0.755625,7.1276087 0.5840625,7.36826087 0.451875,7.61576087" id="Shape" fill="#777878"></path>
                                        <path d="M0.96375,6.89869565 L0.96375,2.95826087 C1.299375,2.58847826 1.7315625,2.24608696 2.251875,1.94086957 C3.6571875,1.11423913 5.5340625,0.662282609 7.5403125,0.662282609 C9.5465625,0.662282609 11.42625,1.11423913 12.82875,1.94086957 L12.82875,5.88130435 C11.42625,5.05467391 9.5465625,4.60271739 7.5403125,4.60271739 C5.5340625,4.60271739 3.6571875,5.05467391 2.251875,5.88130435 C1.7315625,6.18554348 1.299375,6.52891304 0.96375,6.89869565" id="Shape" fill="#747575"></path>
                                    </g>
                                </g>
                                <g id="Clipped" transform="translate(13.125000, 4.891304)">
                                    <mask id="mask-22" fill="white">
                                        <use xlink:href="#path-21"></use>
                                    </mask>
                                    <g id="SVGID_45_"></g>
                                    <g id="Group" mask="url(#mask-22)">
                                        <path d="M0.8109375,7.2948913 L0.8109375,3.35445652 C1.363125,3.03065217 1.8225,2.66576087 2.1815625,2.26956522 L2.1815625,6.21 C1.8225,6.60619565 1.363125,6.97108696 0.8109375,7.2948913" id="Shape" fill="#888889"></path>
                                        <path d="M2.1815625,6.21 L2.1815625,2.26956522 C2.4084375,2.01913043 2.5959375,1.75695652 2.74125,1.485 L2.74125,5.42543478 C2.596875,5.6973913 2.409375,5.96054348 2.1815625,6.21" id="Shape" fill="#939598"></path>
                                        <path id="Shape" fill="#C1C1BF" d="M2.7421875,5.42543478 L2.7421875,1.485 C2.8711875,1.25902174 2.9681875,1.02717391 3.0341875,0.790434783 L3.0341875,4.73086957 C2.9681875,4.9676087 2.8701875,5.20043478 2.7421875,5.42543478"></path>
                                        <path id="Shape" fill="#DCDBDB" d="M3.0159375,4.73086957 L3.0159375,0.790434783 C3.0829375,0.549782609 3.1169375,0.30423913 3.1169375,0.0547826087 L3.1169375,3.99521739 C3.1169375,4.24467391 3.0829375,4.49021739 3.0159375,4.73086957"></path>
                                    </g>
                                </g>
                                <path d="M13.9359375,8.24478261 C12.4828125,9.09880435 10.5421875,9.56934783 8.4778125,9.56934783 C6.4134375,9.56934783 4.4765625,9.09880435 3.0234375,8.24478261 C1.539375,7.3751087 0.72375,6.20413043 0.72375,4.9451087 C0.72375,3.68804348 1.539375,2.5151087 3.0234375,1.6425 C4.4765625,0.791413043 6.414375,0.320869565 8.4778125,0.320869565 C10.5421875,0.320869565 12.481875,0.791413043 13.9359375,1.6425 C15.42,2.5151087 16.235625,3.68902174 16.235625,4.9451087 C16.235625,6.2051087 15.42,7.37608696 13.9359375,8.24478261 L13.9359375,8.24478261 Z M13.7671875,1.9398913 C12.3646875,1.11326087 10.485,0.661304348 8.47875,0.661304348 C6.4725,0.661304348 4.595625,1.11326087 3.1903125,1.9398913 C1.815,2.745 1.059375,3.81423913 1.059375,4.9451087 C1.059375,6.07597826 1.815,7.14521739 3.1903125,7.95032609 C4.595625,8.77402174 6.4725,9.22891304 8.47875,9.22891304 C10.485,9.22891304 12.3646875,8.77402174 13.7671875,7.95032609 C15.1425,7.14521739 15.9009375,6.07597826 15.9009375,4.9451087 C15.9,3.81423913 15.1415625,2.745 13.7671875,1.9398913 L13.7671875,1.9398913 Z" id="Shape" fill="#B1B0AF"></path>
                                <g id="Clipped" transform="translate(0.000000, 4.891304)">
                                    <mask id="mask-24" fill="white">
                                        <use xlink:href="#path-23"></use>
                                    </mask>
                                    <g id="SVGID_47_"></g>
                                    <path d="M0.72375,3.99521739 L0.72375,0.0547826087 C0.72375,1.31478261 1.539375,2.48478261 3.0234375,3.35445652 C4.4765625,4.20847826 6.414375,4.67902174 8.4778125,4.67902174 C10.5421875,4.67902174 12.481875,4.20847826 13.9359375,3.35445652 L13.9359375,7.2948913 C12.4828125,8.14891304 10.5421875,8.61945652 8.4778125,8.61945652 C6.4134375,8.61945652 4.4765625,8.14891304 3.0234375,7.2948913 C1.539375,6.42521739 0.72375,5.25423913 0.72375,3.99521739" id="Shape" fill="#6C6C6D" mask="url(#mask-24)"></path>
                                </g>
                            </g>
                            <path d="M3.106875,8.18119565 C0.151875,6.40076087 0.151875,3.4875 3.106875,1.70804348 C6.061875,-0.0714130435 10.8965625,-0.0714130435 13.8515625,1.70804348 C16.8065625,3.4875 16.8065625,6.40076087 13.8515625,8.18119565 C10.8965625,9.96163043 6.061875,9.9626087 3.106875,8.18119565 L3.106875,8.18119565 Z" id="Shape" fill="#DCDBDB"></path>
                        </g>
                        <g transform="translate(0.000000, 30.326087)">
                            <g>
                                <g id="Clipped" transform="translate(12.187500, 1.956522)">
                                    <mask id="mask-26" fill="white">
                                        <use xlink:href="#path-25"></use>
                                    </mask>
                                    <g id="SVGID_49_"></g>
                                    <path d="M0.8559375,4.10967391 L0.8559375,0.16923913 C2.23125,0.974347826 2.9896875,2.04358696 2.9896875,3.17445652 L2.9896875,7.1148913 C2.98875,5.98402174 2.2303125,4.91478261 0.8559375,4.10967391" id="Shape" fill="#747575" mask="url(#mask-26)"></path>
                                </g>
                                <g id="Clipped">
                                    <mask id="mask-28" fill="white">
                                        <use xlink:href="#path-27"></use>
                                    </mask>
                                    <g id="SVGID_51_"></g>
                                    <g id="Group" mask="url(#mask-28)">
                                        <path id="Shape" fill="#7E7F7E" d="M0.335625,9.07141304 L0.335625,5.13097826 C0.335625,4.91282609 0.365625,4.69663043 0.424625,4.48434783 L0.424625,8.42478261 C0.365625,8.63706522 0.335625,8.85326087 0.335625,9.07141304"></path>
                                        <path id="Shape" fill="#7B7C7B" d="M0.4190625,8.42478261 L0.4190625,4.48434783 C0.4780625,4.27206522 0.5660625,4.06369565 0.6820625,3.86119565 L0.6820625,7.80163043 C0.5660625,8.00413043 0.4780625,8.2125 0.4190625,8.42478261"></path>
                                        <path d="M0.665625,7.80163043 L0.665625,3.86119565 C0.7978125,3.61369565 0.969375,3.37304348 1.1784375,3.14315217 L1.1784375,7.08358696 C0.969375,7.31347826 0.7978125,7.55315217 0.665625,7.80163043" id="Shape" fill="#777878"></path>
                                        <path d="M1.1775,7.08358696 L1.1775,3.14315217 C1.513125,2.77336957 1.9453125,2.43097826 2.465625,2.12576087 C3.8709375,1.29913043 5.7478125,0.847173913 7.7540625,0.847173913 C9.7603125,0.847173913 11.64,1.29913043 13.0425,2.12576087 L13.0425,6.06619565 C11.64,5.23956522 9.7603125,4.7876087 7.7540625,4.7876087 C5.7478125,4.7876087 3.8709375,5.23956522 2.465625,6.06619565 C1.9453125,6.37141304 1.513125,6.71380435 1.1775,7.08358696" id="Shape" fill="#747575"></path>
                                    </g>
                                </g>
                                <g id="Clipped" transform="translate(13.125000, 4.891304)">
                                    <mask id="mask-30" fill="white">
                                        <use xlink:href="#path-29"></use>
                                    </mask>
                                    <g id="SVGID_53_"></g>
                                    <g id="Group" mask="url(#mask-30)">
                                        <path d="M0.0871875,7.47978261 L0.0871875,3.53934783 C0.639375,3.21554348 1.09875,2.85065217 1.4578125,2.45445652 L1.4578125,6.3948913 C1.09875,6.79108696 0.639375,7.15695652 0.0871875,7.47978261" id="Shape" fill="#888889"></path>
                                        <path d="M1.4578125,6.39586957 L1.4578125,2.45543478 C1.6846875,2.205 1.8721875,1.94282609 2.0175,1.67086957 L2.0175,5.61130435 C1.873125,5.88326087 1.685625,6.14543478 1.4578125,6.39586957" id="Shape" fill="#939598"></path>
                                        <path id="Shape" fill="#C1C1BF" d="M2.0184375,5.61130435 L2.0184375,1.67086957 C2.1474375,1.4448913 2.2444375,1.21304348 2.3104375,0.976304348 L2.3104375,4.91673913 C2.2444375,5.15347826 2.1464375,5.38532609 2.0184375,5.61130435"></path>
                                        <path id="Shape" fill="#DCDBDB" d="M2.2921875,4.91576087 L2.2921875,0.975326087 C2.3591875,0.734673913 2.3931875,0.489130435 2.3931875,0.239673913 L2.3931875,4.1801087 C2.3931875,4.42956522 2.3591875,4.6751087 2.2921875,4.91576087"></path>
                                    </g>
                                </g>
                                <path d="M13.2121875,8.43065217 C11.7590625,9.28467391 9.8184375,9.75521739 7.7540625,9.75521739 C5.6896875,9.75521739 3.7528125,9.28467391 2.2996875,8.43065217 C0.815625,7.56097826 0,6.39 0,5.13097826 C0,3.87391304 0.815625,2.70097826 2.2996875,1.82836957 C3.7528125,0.977282609 5.690625,0.50673913 7.7540625,0.50673913 C9.8184375,0.50673913 11.758125,0.977282609 13.2121875,1.82836957 C14.69625,2.70097826 15.511875,3.8748913 15.511875,5.13097826 C15.511875,6.39 14.69625,7.56097826 13.2121875,8.43065217 L13.2121875,8.43065217 Z M13.0434375,2.12576087 C11.6409375,1.29913043 9.76125,0.847173913 7.755,0.847173913 C5.74875,0.847173913 3.871875,1.29913043 2.4665625,2.12576087 C1.09125,2.93086957 0.335625,4.0001087 0.335625,5.13097826 C0.335625,6.26184783 1.09125,7.33108696 2.4665625,8.13619565 C3.871875,8.9598913 5.74875,9.41478261 7.755,9.41478261 C9.76125,9.41478261 11.6409375,8.9598913 13.0434375,8.13619565 C14.41875,7.33108696 15.1771875,6.26184783 15.1771875,5.13097826 C15.17625,4.0001087 14.4178125,2.93086957 13.0434375,2.12576087 L13.0434375,2.12576087 Z" id="Shape" fill="#B1B0AF"></path>
                                <g id="Clipped" transform="translate(0.000000, 4.891304)">
                                    <mask id="mask-32" fill="white">
                                        <use xlink:href="#path-31"></use>
                                    </mask>
                                    <g id="SVGID_55_"></g>
                                    <path d="M0,4.1801087 L0,0.239673913 C0,1.49967391 0.815625,2.66967391 2.2996875,3.53934783 C3.7528125,4.39336957 5.690625,4.86391304 7.7540625,4.86391304 C9.8184375,4.86391304 11.758125,4.39336957 13.2121875,3.53934783 L13.2121875,7.47978261 C11.7590625,8.33380435 9.8184375,8.80434783 7.7540625,8.80434783 C5.6896875,8.80434783 3.7528125,8.33380435 2.2996875,7.47978261 C0.815625,6.6101087 0,5.4401087 0,4.1801087" id="Shape" fill="#6C6C6D" mask="url(#mask-32)"></path>
                                </g>
                            </g>
                            <path d="M2.383125,8.36706522 C-0.571875,6.58663043 -0.571875,3.67336957 2.383125,1.89391304 C5.338125,0.114456522 10.1728125,0.114456522 13.1278125,1.89391304 C16.0828125,3.67336957 16.0828125,6.58663043 13.1278125,8.36706522 C10.1728125,10.1475 5.338125,10.1475 2.383125,8.36706522 L2.383125,8.36706522 Z" id="Shape" fill="#DCDBDB"></path>
                        </g>
                        <g transform="translate(0.000000, 22.500000)">
                            <g>
                                <g id="Clipped" transform="translate(12.187500, 1.956522)">
                                    <mask id="mask-34" fill="white">
                                        <use xlink:href="#path-33"></use>
                                    </mask>
                                    <g id="SVGID_57_"></g>
                                    <path d="M0.8559375,4.22804348 L0.8559375,0.287608696 C2.23125,1.09271739 2.9896875,2.16195652 2.9896875,3.29282609 L2.9896875,7.23326087 C2.98875,6.1023913 2.2303125,5.03315217 0.8559375,4.22804348" id="Shape" fill="#747575" mask="url(#mask-34)"></path>
                                </g>
                                <g id="Clipped">
                                    <mask id="mask-36" fill="white">
                                        <use xlink:href="#path-35"></use>
                                    </mask>
                                    <g id="SVGID_59_"></g>
                                    <g id="Group" mask="url(#mask-36)">
                                        <path id="Shape" fill="#7E7F7E" d="M0.335625,9.18978261 L0.335625,5.24934783 C0.335625,5.03119565 0.365625,4.815 0.424625,4.60271739 L0.424625,8.54315217 C0.365625,8.75543478 0.335625,8.97065217 0.335625,9.18978261"></path>
                                        <path id="Shape" fill="#7B7C7B" d="M0.4190625,8.54315217 L0.4190625,4.60271739 C0.4780625,4.39043478 0.5660625,4.18206522 0.6820625,3.97956522 L0.6820625,7.92 C0.5660625,8.1225 0.4780625,8.33086957 0.4190625,8.54315217"></path>
                                        <path d="M0.665625,7.91902174 L0.665625,3.97858696 C0.7978125,3.73108696 0.969375,3.49043478 1.1784375,3.26054348 L1.1784375,7.20097826 C0.969375,7.43086957 0.7978125,7.67152174 0.665625,7.91902174" id="Shape" fill="#777878"></path>
                                        <path d="M1.1775,7.20195652 L1.1775,3.26152174 C1.513125,2.89173913 1.9453125,2.54934783 2.465625,2.24413043 C3.8709375,1.4175 5.7478125,0.965543478 7.7540625,0.965543478 C9.7603125,0.965543478 11.64,1.4175 13.0425,2.24413043 L13.0425,6.18456522 C11.64,5.35793478 9.7603125,4.90597826 7.7540625,4.90597826 C5.7478125,4.90597826 3.8709375,5.35793478 2.465625,6.18456522 C1.9453125,6.48880435 1.513125,6.83217391 1.1775,7.20195652" id="Shape" fill="#747575"></path>
                                    </g>
                                </g>
                                <g id="Clipped" transform="translate(13.125000, 4.891304)">
                                    <mask id="mask-38" fill="white">
                                        <use xlink:href="#path-37"></use>
                                    </mask>
                                    <g id="SVGID_61_"></g>
                                    <g id="Group" mask="url(#mask-38)">
                                        <path d="M0.0871875,7.59815217 L0.0871875,3.65771739 C0.639375,3.33391304 1.09875,2.96902174 1.4578125,2.57282609 L1.4578125,6.51326087 C1.09875,6.90945652 0.639375,7.27434783 0.0871875,7.59815217" id="Shape" fill="#888889"></path>
                                        <path d="M1.4578125,6.51326087 L1.4578125,2.57282609 C1.6846875,2.3223913 1.8721875,2.06021739 2.0175,1.78826087 L2.0175,5.72869565 C1.873125,6.00065217 1.685625,6.26380435 1.4578125,6.51326087" id="Shape" fill="#939598"></path>
                                        <path id="Shape" fill="#C1C1BF" d="M2.0184375,5.72869565 L2.0184375,1.78826087 C2.1474375,1.56228261 2.2444375,1.33043478 2.3104375,1.09369565 L2.3104375,5.03413043 C2.2444375,5.27086957 2.1464375,5.50369565 2.0184375,5.72869565"></path>
                                        <path id="Shape" fill="#DCDBDB" d="M2.2921875,5.03413043 L2.2921875,1.09369565 C2.3591875,0.853043478 2.3931875,0.6075 2.3931875,0.358043478 L2.3931875,4.29847826 C2.3931875,4.54793478 2.3591875,4.79347826 2.2921875,5.03413043"></path>
                                    </g>
                                </g>
                                <path d="M13.2121875,8.54804348 C11.7590625,9.40206522 9.8184375,9.8726087 7.7540625,9.8726087 C5.6896875,9.8726087 3.7528125,9.40206522 2.2996875,8.54804348 C0.815625,7.67934783 0,6.50836957 0,5.24836957 C0,3.99130435 0.815625,2.81836957 2.2996875,1.94576087 C3.7528125,1.09467391 5.690625,0.624130435 7.7540625,0.624130435 C9.8184375,0.624130435 11.758125,1.09467391 13.2121875,1.94576087 C14.69625,2.81836957 15.511875,3.99228261 15.511875,5.24836957 C15.511875,6.50836957 14.69625,7.67934783 13.2121875,8.54804348 L13.2121875,8.54804348 Z M13.0434375,2.24315217 C11.6409375,1.41652174 9.76125,0.964565217 7.755,0.964565217 C5.74875,0.964565217 3.871875,1.41652174 2.4665625,2.24315217 C1.09125,3.04826087 0.335625,4.1175 0.335625,5.24836957 C0.335625,6.37923913 1.09125,7.44847826 2.4665625,8.25358696 C3.871875,9.07728261 5.74875,9.53217391 7.755,9.53217391 C9.76125,9.53217391 11.6409375,9.07728261 13.0434375,8.25358696 C14.41875,7.44847826 15.1771875,6.37923913 15.1771875,5.24836957 C15.17625,4.1175 14.4178125,3.04826087 13.0434375,2.24315217 L13.0434375,2.24315217 Z" id="Shape" fill="#B1B0AF"></path>
                                <g id="Clipped" transform="translate(0.000000, 4.891304)">
                                    <mask id="mask-40" fill="white">
                                        <use xlink:href="#path-39"></use>
                                    </mask>
                                    <g id="SVGID_63_"></g>
                                    <path d="M0,4.29847826 L0,0.358043478 C0,1.61804348 0.815625,2.78804348 2.2996875,3.65771739 C3.7528125,4.51173913 5.690625,4.98228261 7.7540625,4.98228261 C9.8184375,4.98228261 11.758125,4.51173913 13.2121875,3.65771739 L13.2121875,7.59815217 C11.7590625,8.45217391 9.8184375,8.92271739 7.7540625,8.92271739 C5.6896875,8.92271739 3.7528125,8.45217391 2.2996875,7.59815217 C0.815625,6.72847826 0,5.5575 0,4.29847826" id="Shape" fill="#6C6C6D" mask="url(#mask-40)"></path>
                                </g>
                            </g>
                            <path d="M2.383125,8.48445652 C-0.571875,6.70402174 -0.571875,3.79076087 2.383125,2.01130435 C5.338125,0.231847826 10.1728125,0.231847826 13.1278125,2.01130435 C16.0828125,3.79076087 16.0828125,6.70402174 13.1278125,8.48445652 C10.17375,10.2658696 5.338125,10.2658696 2.383125,8.48445652 L2.383125,8.48445652 Z" id="Shape" fill="#DCDBDB"></path>
                        </g>
                        <g transform="translate(0.000000, 14.673913)">
                            <g>
                                <g id="Clipped" transform="translate(12.187500, 1.956522)">
                                    <mask id="mask-42" fill="white">
                                        <use xlink:href="#path-41"></use>
                                    </mask>
                                    <g id="SVGID_65_"></g>
                                    <path d="M0.8559375,4.34543478 L0.8559375,0.405 C2.23125,1.2101087 2.9896875,2.27934783 2.9896875,3.41021739 L2.9896875,7.35065217 C2.98875,6.21978261 2.2303125,5.15054348 0.8559375,4.34543478" id="Shape" fill="#747575" mask="url(#mask-42)"></path>
                                </g>
                                <g id="Clipped" transform="translate(0.000000, 0.978261)">
                                    <mask id="mask-44" fill="white">
                                        <use xlink:href="#path-43"></use>
                                    </mask>
                                    <g id="SVGID_67_"></g>
                                    <g id="Group" mask="url(#mask-44)">
                                        <path id="Shape" fill="#7E7F7E" d="M0.335625,8.32891304 L0.335625,4.38847826 C0.335625,4.17032609 0.365625,3.95413043 0.424625,3.74184783 L0.424625,7.68228261 C0.365625,7.89456522 0.335625,8.11076087 0.335625,8.32891304"></path>
                                        <path id="Shape" fill="#7B7C7B" d="M0.4190625,7.68228261 L0.4190625,3.74184783 C0.4780625,3.52956522 0.5660625,3.32119565 0.6820625,3.11869565 L0.6820625,7.05913043 C0.5660625,7.2626087 0.4780625,7.47 0.4190625,7.68228261"></path>
                                        <path d="M0.665625,7.05913043 L0.665625,3.11869565 C0.7978125,2.87119565 0.969375,2.63054348 1.1784375,2.40065217 L1.1784375,6.34108696 C0.969375,6.57097826 0.7978125,6.81163043 0.665625,7.05913043" id="Shape" fill="#777878"></path>
                                        <path d="M1.1775,6.34108696 L1.1775,2.40065217 C1.513125,2.03086957 1.9453125,1.68847826 2.465625,1.38326087 C3.8709375,0.556630435 5.7478125,0.104673913 7.7540625,0.104673913 C9.7603125,0.104673913 11.64,0.556630435 13.0425,1.38326087 L13.0425,5.32369565 C11.64,4.49706522 9.7603125,4.0451087 7.7540625,4.0451087 C5.7478125,4.0451087 3.8709375,4.49706522 2.465625,5.32369565 C1.9453125,5.62891304 1.513125,5.97130435 1.1775,6.34108696" id="Shape" fill="#747575"></path>
                                    </g>
                                </g>
                                <g id="Clipped" transform="translate(13.125000, 4.891304)">
                                    <mask id="mask-46" fill="white">
                                        <use xlink:href="#path-45"></use>
                                    </mask>
                                    <g id="SVGID_69_"></g>
                                    <g id="Group" mask="url(#mask-46)">
                                        <path d="M0.0871875,7.71652174 L0.0871875,3.77608696 C0.639375,3.45228261 1.09875,3.0873913 1.4578125,2.69119565 L1.4578125,6.63163043 C1.09875,7.02782609 0.639375,7.39271739 0.0871875,7.71652174" id="Shape" fill="#888889"></path>
                                        <path d="M1.4578125,6.63163043 L1.4578125,2.69119565 C1.6846875,2.44076087 1.8721875,2.17858696 2.0175,1.90663043 L2.0175,5.84706522 C1.873125,6.11902174 1.685625,6.38119565 1.4578125,6.63163043" id="Shape" fill="#939598"></path>
                                        <path id="Shape" fill="#C1C1BF" d="M2.0184375,5.84706522 L2.0184375,1.90663043 C2.1474375,1.68065217 2.2444375,1.44880435 2.3104375,1.21206522 L2.3104375,5.1525 C2.2444375,5.38923913 2.1464375,5.62108696 2.0184375,5.84706522"></path>
                                        <path id="Shape" fill="#DCDBDB" d="M2.2921875,5.1525 L2.2921875,1.21206522 C2.3591875,0.971413043 2.3931875,0.725869565 2.3931875,0.476413043 L2.3931875,4.41684783 C2.3931875,4.66532609 2.3591875,4.91184783 2.2921875,5.1525"></path>
                                    </g>
                                </g>
                                <path d="M13.2121875,8.66641304 C11.7590625,9.52043478 9.8184375,9.99097826 7.7540625,9.99097826 C5.6896875,9.99097826 3.7528125,9.52043478 2.2996875,8.66641304 C0.815625,7.79673913 0,6.62673913 0,5.36673913 C0,4.10967391 0.815625,2.93673913 2.2996875,2.06413043 C3.7528125,1.21304348 5.690625,0.7425 7.7540625,0.7425 C9.8184375,0.7425 11.758125,1.21304348 13.2121875,2.06413043 C14.69625,2.93673913 15.511875,4.11065217 15.511875,5.36673913 C15.511875,6.62673913 14.69625,7.79673913 13.2121875,8.66641304 L13.2121875,8.66641304 Z M13.0434375,2.36152174 C11.6409375,1.5348913 9.76125,1.08293478 7.755,1.08293478 C5.74875,1.08293478 3.871875,1.5348913 2.4665625,2.36152174 C1.09125,3.16663043 0.335625,4.23586957 0.335625,5.36673913 C0.335625,6.4976087 1.09125,7.56684783 2.4665625,8.37195652 C3.871875,9.19565217 5.74875,9.65054348 7.755,9.65054348 C9.76125,9.65054348 11.6409375,9.19565217 13.0434375,8.37195652 C14.41875,7.56684783 15.1771875,6.4976087 15.1771875,5.36673913 C15.17625,4.23586957 14.4178125,3.16663043 13.0434375,2.36152174 L13.0434375,2.36152174 Z" id="Shape" fill="#B1B0AF"></path>
                                <g id="Clipped" transform="translate(0.000000, 4.891304)">
                                    <mask id="mask-48" fill="white">
                                        <use xlink:href="#path-47"></use>
                                    </mask>
                                    <g id="SVGID_71_"></g>
                                    <path d="M0,4.41586957 L0,0.475434783 C0,1.73543478 0.815625,2.90543478 2.2996875,3.7751087 C3.7528125,4.62913043 5.690625,5.09967391 7.7540625,5.09967391 C9.8184375,5.09967391 11.758125,4.62913043 13.2121875,3.7751087 L13.2121875,7.71554348 C11.7590625,8.56956522 9.8184375,9.0401087 7.7540625,9.0401087 C5.6896875,9.0401087 3.7528125,8.56956522 2.2996875,7.71554348 C0.815625,6.84684783 0,5.67586957 0,4.41586957" id="Shape" fill="#6C6C6D" mask="url(#mask-48)"></path>
                                </g>
                            </g>
                            <path d="M2.383125,8.60282609 C-0.571875,6.8223913 -0.571875,3.90913043 2.383125,2.12967391 C5.338125,0.350217391 10.1728125,0.350217391 13.1278125,2.12967391 C16.0828125,3.90913043 16.0828125,6.8223913 13.1278125,8.60282609 C10.17375,10.3832609 5.338125,10.3832609 2.383125,8.60282609 L2.383125,8.60282609 Z" id="Shape" fill="#DCDBDB"></path>
                        </g>
                        <g transform="translate(0.000000, 6.847826)">
                            <g>
                                <g id="Clipped" transform="translate(12.187500, 1.956522)">
                                    <mask id="mask-50" fill="white">
                                        <use xlink:href="#path-49"></use>
                                    </mask>
                                    <g id="SVGID_73_"></g>
                                    <path d="M0.8559375,4.46380435 L0.8559375,0.523369565 C2.23125,1.32847826 2.9896875,2.39771739 2.9896875,3.52858696 L2.9896875,7.46902174 C2.98875,6.33815217 2.2303125,5.26891304 0.8559375,4.46380435" id="Shape" fill="#747575" mask="url(#mask-50)"></path>
                                </g>
                                <g id="Clipped" transform="translate(0.000000, 0.978261)">
                                    <mask id="mask-52" fill="white">
                                        <use xlink:href="#path-51"></use>
                                    </mask>
                                    <g id="SVGID_75_"></g>
                                    <g id="Group" mask="url(#mask-52)">
                                        <path id="Shape" fill="#7E7F7E" d="M0.335625,8.44728261 L0.335625,4.50684783 C0.335625,4.28869565 0.365625,4.0725 0.424625,3.86021739 L0.424625,7.80065217 C0.365625,8.01293478 0.335625,8.22913043 0.335625,8.44728261"></path>
                                        <path id="Shape" fill="#7B7C7B" d="M0.4190625,7.80065217 L0.4190625,3.86021739 C0.4780625,3.64793478 0.5660625,3.43956522 0.6820625,3.23706522 L0.6820625,7.1775 C0.5660625,7.38 0.4780625,7.58836957 0.4190625,7.80065217"></path>
                                        <path d="M0.665625,7.1775 L0.665625,3.23706522 C0.7978125,2.98956522 0.969375,2.74891304 1.1784375,2.51902174 L1.1784375,6.45945652 C0.969375,6.68934783 0.7978125,6.92902174 0.665625,7.1775" id="Shape" fill="#777878"></path>
                                        <path d="M1.1775,6.45945652 L1.1775,2.51902174 C1.513125,2.14923913 1.9453125,1.80684783 2.465625,1.50163043 C3.8709375,0.675 5.7478125,0.223043478 7.7540625,0.223043478 C9.7603125,0.223043478 11.64,0.675 13.0425,1.50163043 L13.0425,5.44206522 C11.64,4.61543478 9.7603125,4.16347826 7.7540625,4.16347826 C5.7478125,4.16347826 3.8709375,4.61543478 2.465625,5.44206522 C1.9453125,5.74728261 1.513125,6.08967391 1.1775,6.45945652" id="Shape" fill="#747575"></path>
                                    </g>
                                </g>
                                <g id="Clipped" transform="translate(13.125000, 4.891304)">
                                    <mask id="mask-54" fill="white">
                                        <use xlink:href="#path-53"></use>
                                    </mask>
                                    <g id="SVGID_77_"></g>
                                    <g id="Group" mask="url(#mask-54)">
                                        <path d="M0.0871875,7.83391304 L0.0871875,3.89347826 C0.639375,3.56967391 1.09875,3.20478261 1.4578125,2.80858696 L1.4578125,6.75 C1.09875,7.14521739 0.639375,7.51108696 0.0871875,7.83391304" id="Shape" fill="#888889"></path>
                                        <path d="M1.4578125,6.75 L1.4578125,2.80956522 C1.6846875,2.55913043 1.8721875,2.29695652 2.0175,2.025 L2.0175,5.96543478 C1.873125,6.2373913 1.685625,6.49956522 1.4578125,6.75" id="Shape" fill="#939598"></path>
                                        <path id="Shape" fill="#C1C1BF" d="M2.0184375,5.96445652 L2.0184375,2.02402174 C2.1474375,1.79804348 2.2444375,1.56619565 2.3104375,1.32945652 L2.3104375,5.2698913 C2.2444375,5.5076087 2.1464375,5.73945652 2.0184375,5.96445652"></path>
                                        <path id="Shape" fill="#DCDBDB" d="M2.2921875,5.2698913 L2.2921875,1.32945652 C2.3591875,1.08880435 2.3931875,0.84326087 2.3931875,0.593804348 L2.3931875,4.53423913 C2.3931875,4.78369565 2.3591875,5.02923913 2.2921875,5.2698913"></path>
                                    </g>
                                </g>
                                <path d="M13.2121875,8.78478261 C11.7590625,9.63880435 9.8184375,10.1093478 7.7540625,10.1093478 C5.6896875,10.1093478 3.7528125,9.63880435 2.2996875,8.78478261 C0.815625,7.9151087 0,6.74413043 0,5.48413043 C0,4.22706522 0.815625,3.05413043 2.2996875,2.18152174 C3.7528125,1.33043478 5.690625,0.859891304 7.7540625,0.859891304 C9.8184375,0.859891304 11.758125,1.33043478 13.2121875,2.18152174 C14.69625,3.05413043 15.511875,4.22804348 15.511875,5.48413043 C15.511875,6.74413043 14.69625,7.9151087 13.2121875,8.78478261 L13.2121875,8.78478261 Z M13.0434375,2.4798913 C11.6409375,1.65326087 9.76125,1.20130435 7.755,1.20130435 C5.74875,1.20130435 3.871875,1.65326087 2.4665625,2.4798913 C1.09125,3.285 0.335625,4.35423913 0.335625,5.4851087 C0.335625,6.61597826 1.09125,7.68521739 2.4665625,8.49032609 C3.871875,9.31402174 5.74875,9.76891304 7.755,9.76891304 C9.76125,9.76891304 11.6409375,9.31402174 13.0434375,8.49032609 C14.41875,7.68521739 15.1771875,6.61597826 15.1771875,5.4851087 C15.1771875,4.35423913 14.4178125,3.285 13.0434375,2.4798913 L13.0434375,2.4798913 Z" id="Shape" fill="#B1B0AF"></path>
                                <g id="Clipped" transform="translate(0.000000, 4.891304)">
                                    <mask id="mask-56" fill="white">
                                        <use xlink:href="#path-55"></use>
                                    </mask>
                                    <g id="SVGID_79_"></g>
                                    <path d="M0,4.53423913 L0,0.593804348 C0,1.85380435 0.815625,3.02380435 2.2996875,3.89347826 C3.7528125,4.7475 5.690625,5.21804348 7.7540625,5.21804348 C9.8184375,5.21804348 11.758125,4.7475 13.2121875,3.89347826 L13.2121875,7.83391304 C11.7590625,8.68793478 9.8184375,9.15847826 7.7540625,9.15847826 C5.6896875,9.15847826 3.7528125,8.68793478 2.2996875,7.83391304 C0.815625,6.96423913 0,5.79423913 0,4.53423913" id="Shape" fill="#6C6C6D" mask="url(#mask-56)"></path>
                                </g>
                            </g>
                            <path d="M2.383125,8.72119565 C-0.571875,6.94076087 -0.571875,4.0275 2.383125,2.24804348 C5.338125,0.468586957 10.1728125,0.468586957 13.1278125,2.24804348 C16.0828125,4.0275 16.0828125,6.94076087 13.1278125,8.72119565 C10.1728125,10.5016304 5.338125,10.5016304 2.383125,8.72119565 L2.383125,8.72119565 Z" id="Shape" fill="#DCDBDB"></path>
                        </g>
                        <g>
                            <g>
                                <g id="Clipped" transform="translate(12.187500, 0.978261)">
                                    <mask id="mask-58" fill="white">
                                        <use xlink:href="#path-57"></use>
                                    </mask>
                                    <g id="SVGID_81_"></g>
                                    <path d="M0.8559375,4.58217391 L0.8559375,0.64076087 C2.23125,1.44586957 2.9896875,2.5151087 2.9896875,3.64597826 L2.9896875,7.58641304 C2.98875,6.45652174 2.2303125,5.38728261 0.8559375,4.58217391" id="Shape" fill="#747575" mask="url(#mask-58)"></path>
                                </g>
                                <g id="Clipped">
                                    <mask id="mask-60" fill="white">
                                        <use xlink:href="#path-59"></use>
                                    </mask>
                                    <g id="SVGID_83_"></g>
                                    <g id="Group" mask="url(#mask-60)">
                                        <path id="Shape" fill="#7E7F7E" d="M0.335625,8.56467391 L0.335625,4.62423913 C0.335625,4.40608696 0.365625,4.1898913 0.424625,3.9776087 L0.424625,7.91804348 C0.365625,8.13032609 0.335625,8.34652174 0.335625,8.56467391"></path>
                                        <path id="Shape" fill="#7B7C7B" d="M0.4190625,7.91804348 L0.4190625,3.9776087 C0.4780625,3.76532609 0.5660625,3.55695652 0.6820625,3.35445652 L0.6820625,7.2948913 C0.5660625,7.49836957 0.4780625,7.70673913 0.4190625,7.91804348"></path>
                                        <path d="M0.665625,7.2948913 L0.665625,3.35445652 C0.7978125,3.10597826 0.969375,2.86630435 1.1775,2.63641304 L1.1775,6.57684783 C0.969375,6.80673913 0.7978125,7.0473913 0.665625,7.2948913" id="Shape" fill="#777878"></path>
                                        <path d="M1.1775,6.57684783 L1.1775,2.63641304 C1.513125,2.26663043 1.9453125,1.92423913 2.465625,1.61902174 C3.8709375,0.792391304 5.7478125,0.341413043 7.7540625,0.341413043 C9.7603125,0.341413043 11.64,0.793369565 13.0425,1.62 L13.0425,5.56043478 C11.64,4.73380435 9.7603125,4.28184783 7.7540625,4.28184783 C5.7478125,4.28184783 3.8709375,4.73380435 2.465625,5.56043478 C1.9453125,5.86467391 1.513125,6.20804348 1.1775,6.57684783" id="Shape" fill="#747575"></path>
                                    </g>
                                </g>
                                <g id="Clipped" transform="translate(13.125000, 3.913043)">
                                    <mask id="mask-62" fill="white">
                                        <use xlink:href="#path-61"></use>
                                    </mask>
                                    <g id="SVGID_85_"></g>
                                    <g id="Group" mask="url(#mask-62)">
                                        <path d="M0.0871875,7.95228261 L0.0871875,4.01086957 C0.639375,3.68706522 1.09875,3.32217391 1.4578125,2.92597826 L1.4578125,6.86641304 C1.09875,7.26358696 0.639375,7.62847826 0.0871875,7.95228261" id="Shape" fill="#888889"></path>
                                        <path d="M1.4578125,6.8673913 L1.4578125,2.92695652 C1.6846875,2.67652174 1.8721875,2.41434783 2.0175,2.1423913 L2.0175,6.08282609 C1.873125,6.35478261 1.685625,6.61695652 1.4578125,6.8673913" id="Shape" fill="#939598"></path>
                                        <path id="Shape" fill="#C1C1BF" d="M2.0184375,6.08282609 L2.0184375,2.1423913 C2.1474375,1.91641304 2.2444375,1.68456522 2.3104375,1.44782609 L2.3104375,5.38826087 C2.2444375,5.625 2.1464375,5.85684783 2.0184375,6.08282609"></path>
                                        <path id="Shape" fill="#DCDBDB" d="M2.2921875,5.38826087 L2.2921875,1.44684783 C2.3591875,1.20619565 2.3931875,0.960652174 2.3931875,0.711195652 L2.3931875,4.65163043 C2.3931875,4.90108696 2.3591875,5.1476087 2.2921875,5.38826087"></path>
                                    </g>
                                </g>
                                <path d="M13.2121875,7.92391304 C11.7590625,8.77793478 9.8184375,9.24847826 7.7540625,9.24847826 C5.6896875,9.24847826 3.7528125,8.77793478 2.2996875,7.92391304 C0.815625,7.05423913 0,5.88423913 0,4.62423913 C0,3.36717391 0.815625,2.19423913 2.2996875,1.32163043 C3.75375,0.470543478 5.690625,0 7.7540625,0 C9.8184375,0 11.758125,0.470543478 13.2121875,1.32163043 C14.69625,2.19423913 15.511875,3.36815217 15.511875,4.62423913 C15.511875,5.88423913 14.69625,7.05423913 13.2121875,7.92391304 L13.2121875,7.92391304 Z M13.0434375,1.61902174 C11.6409375,0.792391304 9.76125,0.340434783 7.755,0.340434783 C5.74875,0.340434783 3.871875,0.792391304 2.4665625,1.61902174 C1.09125,2.42413043 0.335625,3.49336957 0.335625,4.62423913 C0.335625,5.7551087 1.09125,6.82434783 2.465625,7.62945652 C3.8709375,8.45315217 5.7478125,8.90804348 7.7540625,8.90804348 C9.7603125,8.90804348 11.64,8.45315217 13.0425,7.62945652 C14.4178125,6.82434783 15.17625,5.7551087 15.17625,4.62423913 C15.17625,3.49336957 14.4178125,2.42413043 13.0434375,1.61902174 L13.0434375,1.61902174 Z" id="Shape" fill="#B1B0AF"></path>
                                <g id="Clipped" transform="translate(0.000000, 3.913043)">
                                    <mask id="mask-64" fill="white">
                                        <use xlink:href="#path-63"></use>
                                    </mask>
                                    <g id="SVGID_87_"></g>
                                    <path d="M0,4.65163043 L0,0.711195652 C0,1.97119565 0.815625,3.14119565 2.2996875,4.01086957 C3.7528125,4.8648913 5.690625,5.33543478 7.7540625,5.33543478 C9.8184375,5.33543478 11.758125,4.8648913 13.2121875,4.01086957 L13.2121875,7.95130435 C11.7590625,8.80532609 9.8184375,9.27586957 7.7540625,9.27586957 C5.6896875,9.27586957 3.7528125,8.80532609 2.2996875,7.95130435 C0.815625,7.0826087 0,5.91163043 0,4.65163043" id="Shape" fill="#6C6C6D" mask="url(#mask-64)"></path>
                                </g>
                            </g>
                            <path d="M2.383125,7.86032609 C-0.571875,6.0798913 -0.571875,3.16663043 2.383125,1.38717391 C5.338125,-0.392282609 10.1728125,-0.392282609 13.1278125,1.38717391 C16.0828125,3.16663043 16.0828125,6.0798913 13.1278125,7.86032609 C10.1728125,9.64076087 5.338125,9.64076087 2.383125,7.86032609 L2.383125,7.86032609 Z" id="Shape" fill="#DCDBDB"></path>
                        </g>
                        <g transform="translate(28.125000, 29.347826)">
                            <g>
                                <g id="Clipped" transform="translate(13.125000, 1.956522)">
                                    <mask id="mask-66" fill="white">
                                        <use xlink:href="#path-65"></use>
                                    </mask>
                                    <g id="SVGID_89_"></g>
                                    <path d="M0.425625,4.32586957 L0.425625,0.385434783 C1.8009375,1.19054348 2.559375,2.25978261 2.559375,3.39065217 L2.559375,7.33108696 C2.559375,6.20021739 1.8009375,5.13097826 0.425625,4.32586957" id="Shape" fill="#747575" mask="url(#mask-66)"></path>
                                </g>
                                <g id="Clipped" transform="translate(0.000000, 0.978261)">
                                    <mask id="mask-68" fill="white">
                                        <use xlink:href="#path-67"></use>
                                    </mask>
                                    <g id="SVGID_91_"></g>
                                    <g id="Group" mask="url(#mask-68)">
                                        <path id="Shape" fill="#7E7F7E" d="M0.8428125,8.30934783 L0.8428125,4.36891304 C0.8428125,4.15076087 0.8728125,3.93456522 0.9318125,3.72228261 L0.9318125,7.66271739 C0.8728125,7.875 0.8428125,8.09119565 0.8428125,8.30934783"></path>
                                        <path id="Shape" fill="#7B7C7B" d="M0.9271875,7.66271739 L0.9271875,3.72228261 C0.9861875,3.51 1.0741875,3.30163043 1.1901875,3.09913043 L1.1901875,7.03956522 C1.0731875,7.24206522 0.9861875,7.45043478 0.9271875,7.66271739"></path>
                                        <path d="M1.1728125,7.03956522 L1.1728125,3.09913043 C1.305,2.85163043 1.4765625,2.61097826 1.685625,2.38108696 L1.685625,6.32152174 C1.4765625,6.55141304 1.3059375,6.79108696 1.1728125,7.03956522" id="Shape" fill="#777878"></path>
                                        <path d="M1.685625,6.32152174 L1.685625,2.38108696 C2.02125,2.01130435 2.4534375,1.66891304 2.97375,1.36369565 C4.3790625,0.537065217 6.2559375,0.0851086957 8.2621875,0.0851086957 C10.2684375,0.0851086957 12.148125,0.537065217 13.550625,1.36369565 L13.550625,5.30413043 C12.148125,4.4775 10.2684375,4.02554348 8.2621875,4.02554348 C6.2559375,4.02554348 4.3790625,4.4775 2.97375,5.30413043 C2.4534375,5.60934783 2.02125,5.95173913 1.685625,6.32152174" id="Shape" fill="#747575"></path>
                                    </g>
                                </g>
                                <g id="Clipped" transform="translate(13.125000, 4.891304)">
                                    <mask id="mask-70" fill="white">
                                        <use xlink:href="#path-69"></use>
                                    </mask>
                                    <g id="SVGID_93_"></g>
                                    <g id="Group" mask="url(#mask-70)">
                                        <path d="M0.5953125,7.69597826 L0.5953125,3.75554348 C1.1475,3.43173913 1.606875,3.06684783 1.9659375,2.67065217 L1.9659375,6.61108696 C1.606875,7.00826087 1.1465625,7.37315217 0.5953125,7.69597826" id="Shape" fill="#888889"></path>
                                        <path d="M1.9659375,6.61206522 L1.9659375,2.67065217 C2.1928125,2.42021739 2.3803125,2.15804348 2.525625,1.88608696 L2.525625,5.82652174 C2.3803125,6.09945652 2.19375,6.36163043 1.9659375,6.61206522" id="Shape" fill="#939598"></path>
                                        <path id="Shape" fill="#C1C1BF" d="M2.525625,5.8275 L2.525625,1.88706522 C2.654625,1.66108696 2.751625,1.42923913 2.817625,1.1925 L2.817625,5.13293478 C2.752625,5.36967391 2.654625,5.60152174 2.525625,5.8275"></path>
                                        <path id="Shape" fill="#DCDBDB" d="M2.8003125,5.13293478 L2.8003125,1.1925 C2.8673125,0.951847826 2.9013125,0.706304348 2.9013125,0.456847826 L2.9013125,4.39728261 C2.9013125,4.64576087 2.8673125,4.89130435 2.8003125,5.13293478"></path>
                                    </g>
                                </g>
                                <path d="M13.7203125,8.64684783 C12.2671875,9.50086957 10.3265625,9.97141304 8.2621875,9.97141304 C6.1978125,9.97141304 4.2609375,9.50086957 2.8078125,8.64684783 C1.32375,7.77717391 0.508125,6.60619565 0.508125,5.34717391 C0.508125,4.0901087 1.32375,2.91717391 2.8078125,2.04456522 C4.2609375,1.19347826 6.19875,0.722934783 8.2621875,0.722934783 C10.3265625,0.722934783 12.26625,1.19347826 13.7203125,2.04456522 C15.204375,2.91717391 16.02,4.09108696 16.02,5.34717391 C16.02,6.60619565 15.2034375,7.77717391 13.7203125,8.64684783 L13.7203125,8.64684783 Z M13.550625,2.34195652 C12.148125,1.51532609 10.2684375,1.06336957 8.2621875,1.06336957 C6.2559375,1.06336957 4.3790625,1.51532609 2.97375,2.34195652 C1.5984375,3.14706522 0.8428125,4.21630435 0.8428125,5.34717391 C0.8428125,6.47804348 1.5984375,7.54728261 2.97375,8.3523913 C4.3790625,9.17608696 6.2559375,9.63097826 8.2621875,9.63097826 C10.2684375,9.63097826 12.148125,9.17608696 13.550625,8.3523913 C14.9259375,7.54728261 15.684375,6.47804348 15.684375,5.34717391 C15.684375,4.21630435 14.9259375,3.14706522 13.550625,2.34195652 L13.550625,2.34195652 Z" id="Shape" fill="#B1B0AF"></path>
                                <g id="Clipped" transform="translate(0.000000, 4.891304)">
                                    <mask id="mask-72" fill="white">
                                        <use xlink:href="#path-71"></use>
                                    </mask>
                                    <g id="SVGID_95_"></g>
                                    <path d="M0.508125,4.39630435 L0.508125,0.455869565 C0.508125,1.71586957 1.32375,2.88586957 2.8078125,3.75554348 C4.2609375,4.60956522 6.19875,5.0801087 8.2621875,5.0801087 C10.3265625,5.0801087 12.26625,4.60956522 13.7203125,3.75554348 L13.7203125,7.69597826 C12.2671875,8.55 10.3265625,9.02054348 8.2621875,9.02054348 C6.1978125,9.02054348 4.2609375,8.55 2.8078125,7.69597826 C1.32375,6.82728261 0.508125,5.65630435 0.508125,4.39630435" id="Shape" fill="#6C6C6D" mask="url(#mask-72)"></path>
                                </g>
                            </g>
                            <path d="M2.89125,8.58326087 C-0.06375,6.80282609 -0.06375,3.88956522 2.89125,2.1101087 C5.84625,0.330652174 10.6809375,0.330652174 13.6359375,2.1101087 C16.5909375,3.88956522 16.5909375,6.80282609 13.6359375,8.58326087 C10.6809375,10.3636957 5.84625,10.3636957 2.89125,8.58326087 L2.89125,8.58326087 Z" id="Shape" fill="#DCDBDB"></path>
                        </g>
                    </g>
                </g>
            </g>
        </g>
    </g>
</svg>