<?xml version="1.0" encoding="UTF-8" standalone="no"?>
<svg width="48px" height="45px" viewBox="0 0 48 45" version="1.1" xmlns="http://www.w3.org/2000/svg" xmlns:xlink="http://www.w3.org/1999/xlink">
    <!-- Generator: Sketch 3.6.1 (26313) - http://www.bohemiancoding.com/sketch -->
    <title>Group</title>
    <desc>Created with Sketch.</desc>
    <defs>
        <path id="path-1" d="M0.6,4.548 L0.6,0.52 C2.067,1.343 2.876,2.436 2.876,3.592 L2.876,7.62 C2.876,6.464 2.067,5.371 0.6,4.548 L0.6,4.548 Z"></path>
        <path id="path-3" d="M0.045,8.62 L0.045,4.592 C0.045,3.436 0.851,2.343 2.318,1.52 C3.817,0.675 5.819,0.213 7.959,0.213 C10.099,0.213 12.104,0.675 13.6,1.52 L13.6,5.548 C12.104,4.703 10.099,4.241 7.959,4.241 C5.819,4.241 3.817,4.703 2.318,5.548 C0.851,6.371 0.045,7.464 0.045,8.62 L0.045,8.62 Z"></path>
        <path id="path-5" d="M0.78,7.993 L0.78,3.965 C2.363,3.076 3.233,1.879 3.233,0.592 L3.233,4.62 C3.233,5.907 2.363,7.104 0.78,7.993 L0.78,7.993 Z"></path>
        <path id="path-7" d="M0.687,4.62 L0.687,0.592 C0.687,1.88 1.557,3.076 3.14,3.965 C4.69,4.838 6.757,5.319 8.958,5.319 C11.16,5.319 13.229,4.838 14.78,3.965 L14.78,7.993 C13.23,8.866 11.16,9.347 8.958,9.347 C6.756,9.347 4.69,8.866 3.14,7.993 C1.558,7.104 0.687,5.907 0.687,4.62 L0.687,4.62 Z"></path>
        <path id="path-9" d="M0.825,4.289 L0.825,0.261 C2.292,1.084 3.101,2.177 3.101,3.333 L3.101,7.361 C3.101,6.205 2.292,5.112 0.825,4.289 L0.825,4.289 Z"></path>
        <path id="path-11" d="M0.27,9.361 L0.27,5.333 C0.27,4.177 1.076,3.084 2.543,2.261 C4.042,1.416 6.044,0.954 8.184,0.954 C10.324,0.954 12.329,1.416 13.825,2.261 L13.825,6.289 C12.329,5.444 10.324,4.982 8.184,4.982 C6.044,4.982 4.042,5.444 2.543,6.289 C1.076,7.112 0.27,8.205 0.27,9.361 L0.27,9.361 Z"></path>
        <path id="path-13" d="M0.006,7.734 L0.006,3.706 C1.589,2.817 2.459,1.62 2.459,0.333 L2.459,4.361 C2.459,5.649 1.588,6.845 0.006,7.734 L0.006,7.734 Z"></path>
        <path id="path-15" d="M0.913,4.361 L0.913,0.333 C0.913,1.621 1.783,2.817 3.366,3.706 C4.916,4.579 6.983,5.06 9.184,5.06 C11.386,5.06 13.455,4.579 15.006,3.706 L15.006,7.734 C13.456,8.607 11.386,9.088 9.184,9.088 C6.982,9.088 4.916,8.607 3.366,7.734 C1.783,6.845 0.913,5.649 0.913,4.361 L0.913,4.361 Z"></path>
        <path id="path-17" d="M0.685,5.012 L0.685,0.984 C2.152,1.807 2.961,2.9 2.961,4.056 L2.961,8.084 C2.96,6.928 2.151,5.835 0.685,5.012 L0.685,5.012 Z"></path>
        <path id="path-19" d="M0.13,9.084 L0.13,5.056 C0.13,3.9 0.936,2.807 2.403,1.984 C3.902,1.139 5.904,0.677 8.044,0.677 C10.184,0.677 12.189,1.139 13.685,1.984 L13.685,6.012 C12.189,5.167 10.184,4.705 8.044,4.705 C5.904,4.705 3.902,5.167 2.403,6.012 C0.936,6.835 0.13,7.928 0.13,9.084 L0.13,9.084 Z"></path>
        <path id="path-21" d="M0.865,7.457 L0.865,3.429 C2.448,2.54 3.318,1.343 3.318,0.056 L3.318,4.084 C3.318,5.371 2.448,6.568 0.865,7.457 L0.865,7.457 Z"></path>
        <path id="path-23" d="M0.772,4.084 L0.772,0.056 C0.772,1.344 1.642,2.54 3.225,3.429 C4.775,4.302 6.842,4.783 9.043,4.783 C11.245,4.783 13.314,4.302 14.865,3.429 L14.865,7.457 C13.315,8.33 11.245,8.811 9.043,8.811 C6.841,8.811 4.775,8.33 3.225,7.457 C1.642,6.568 0.772,5.371 0.772,4.084 L0.772,4.084 Z"></path>
        <path id="path-25" d="M0.913,4.201 L0.913,0.173 C2.38,0.996 3.189,2.089 3.189,3.245 L3.189,7.273 C3.188,6.117 2.379,5.024 0.913,4.201 L0.913,4.201 Z"></path>
        <path id="path-27" d="M0.358,9.273 L0.358,5.245 C0.358,4.089 1.164,2.996 2.631,2.173 C4.13,1.328 6.132,0.866 8.272,0.866 C10.412,0.866 12.417,1.328 13.913,2.173 L13.913,6.201 C12.417,5.356 10.412,4.894 8.272,4.894 C6.132,4.894 4.13,5.356 2.631,6.201 C1.164,7.024 0.358,8.117 0.358,9.273 L0.358,9.273 Z"></path>
        <path id="path-29" d="M0.093,7.646 L0.093,3.618 C1.676,2.729 2.546,1.532 2.546,0.245 L2.546,4.273 C2.546,5.561 1.676,6.757 0.093,7.646 L0.093,7.646 Z"></path>
        <path id="path-31" d="M0,4.273 L0,0.245 C0,1.533 0.87,2.729 2.453,3.618 C4.003,4.491 6.07,4.972 8.271,4.972 C10.473,4.972 12.542,4.491 14.093,3.618 L14.093,7.646 C12.543,8.519 10.473,9 8.271,9 C6.069,9 4.003,8.519 2.453,7.646 C0.87,6.757 0,5.561 0,4.273 L0,4.273 Z"></path>
        <path id="path-33" d="M0.913,4.322 L0.913,0.294 C2.38,1.117 3.189,2.21 3.189,3.366 L3.189,7.394 C3.188,6.238 2.379,5.145 0.913,4.322 L0.913,4.322 Z"></path>
        <path id="path-35" d="M0.358,9.394 L0.358,5.366 C0.358,4.21 1.164,3.117 2.631,2.294 C4.13,1.449 6.132,0.987 8.272,0.987 C10.412,0.987 12.417,1.449 13.913,2.294 L13.913,6.322 C12.417,5.477 10.412,5.015 8.272,5.015 C6.132,5.015 4.13,5.477 2.631,6.322 C1.164,7.145 0.358,8.238 0.358,9.394 L0.358,9.394 Z"></path>
        <path id="path-37" d="M0.093,7.767 L0.093,3.739 C1.676,2.85 2.546,1.653 2.546,0.366 L2.546,4.394 C2.546,5.681 1.676,6.878 0.093,7.767 L0.093,7.767 Z"></path>
        <path id="path-39" d="M0,4.394 L0,0.366 C0,1.654 0.87,2.85 2.453,3.739 C4.003,4.612 6.07,5.093 8.271,5.093 C10.473,5.093 12.542,4.612 14.093,3.739 L14.093,7.767 C12.543,8.64 10.473,9.121 8.271,9.121 C6.069,9.121 4.003,8.64 2.453,7.767 C0.87,6.878 0,5.681 0,4.394 L0,4.394 Z"></path>
        <path id="path-41" d="M0.913,4.442 L0.913,0.414 C2.38,1.237 3.189,2.33 3.189,3.486 L3.189,7.514 C3.188,6.358 2.379,5.265 0.913,4.442 L0.913,4.442 Z"></path>
        <path id="path-43" d="M0.358,8.514 L0.358,4.486 C0.358,3.33 1.164,2.237 2.631,1.414 C4.13,0.569 6.132,0.107 8.272,0.107 C10.412,0.107 12.417,0.569 13.913,1.414 L13.913,5.442 C12.417,4.597 10.412,4.135 8.272,4.135 C6.132,4.135 4.13,4.597 2.631,5.442 C1.164,6.265 0.358,7.358 0.358,8.514 L0.358,8.514 Z"></path>
        <path id="path-45" d="M0.093,7.888 L0.093,3.86 C1.676,2.971 2.546,1.774 2.546,0.487 L2.546,4.515 C2.546,5.802 1.676,6.999 0.093,7.888 L0.093,7.888 Z"></path>
        <path id="path-47" d="M0,4.514 L0,0.486 C0,1.774 0.87,2.97 2.453,3.859 C4.003,4.732 6.07,5.213 8.271,5.213 C10.473,5.213 12.542,4.732 14.093,3.859 L14.093,7.887 C12.543,8.76 10.473,9.241 8.271,9.241 C6.069,9.241 4.003,8.76 2.453,7.887 C0.87,6.999 0,5.802 0,4.514 L0,4.514 Z"></path>
        <path id="path-49" d="M0.913,4.563 L0.913,0.535 C2.38,1.358 3.189,2.451 3.189,3.607 L3.189,7.635 C3.188,6.479 2.379,5.386 0.913,4.563 L0.913,4.563 Z"></path>
        <path id="path-51" d="M0.358,8.635 L0.358,4.607 C0.358,3.451 1.164,2.358 2.631,1.535 C4.129,0.69 6.131,0.228 8.271,0.228 C10.411,0.228 12.416,0.69 13.912,1.535 L13.912,5.563 C12.416,4.718 10.411,4.256 8.271,4.256 C6.131,4.256 4.129,4.718 2.63,5.563 C1.164,6.386 0.358,7.479 0.358,8.635 L0.358,8.635 Z"></path>
        <path id="path-53" d="M0.093,8.008 L0.093,3.98 C1.676,3.091 2.546,1.894 2.546,0.607 L2.546,4.635 C2.546,5.923 1.676,7.119 0.093,8.008 L0.093,8.008 Z"></path>
        <path id="path-55" d="M0,4.635 L0,0.607 C0,1.895 0.87,3.091 2.453,3.98 C4.003,4.853 6.07,5.334 8.271,5.334 C10.473,5.334 12.542,4.853 14.093,3.98 L14.093,8.008 C12.543,8.881 10.473,9.362 8.271,9.362 C6.069,9.362 4.003,8.881 2.453,8.008 C0.87,7.119 0,5.923 0,4.635 L0,4.635 Z"></path>
        <path id="path-57" d="M0.913,4.684 L0.913,0.655 C2.38,1.478 3.189,2.571 3.189,3.727 L3.189,7.755 C3.188,6.6 2.379,5.507 0.913,4.684 L0.913,4.684 Z"></path>
        <path id="path-59" d="M0.358,8.755 L0.358,4.727 C0.358,3.571 1.164,2.478 2.631,1.655 C4.129,0.81 6.131,0.349 8.271,0.349 C10.411,0.349 12.416,0.811 13.912,1.656 L13.912,5.684 C12.416,4.839 10.411,4.377 8.271,4.377 C6.131,4.377 4.129,4.839 2.63,5.684 C1.164,6.507 0.358,7.6 0.358,8.755 L0.358,8.755 Z"></path>
        <path id="path-61" d="M0.093,8.129 L0.093,4.1 C1.676,3.211 2.546,2.014 2.546,0.727 L2.546,4.755 C2.546,6.043 1.676,7.24 0.093,8.129 L0.093,8.129 Z"></path>
        <path id="path-63" d="M0,4.755 L0,0.727 C0,2.015 0.87,3.211 2.453,4.1 C4.003,4.973 6.07,5.454 8.271,5.454 C10.473,5.454 12.542,4.973 14.093,4.1 L14.093,8.128 C12.543,9.001 10.473,9.482 8.271,9.482 C6.069,9.482 4.003,9.001 2.453,8.128 C0.87,7.24 0,6.043 0,4.755 L0,4.755 Z"></path>
        <path id="path-65" d="M0.454,4.422 L0.454,0.394 C1.921,1.217 2.73,2.31 2.73,3.466 L2.73,7.494 C2.73,6.338 1.921,5.245 0.454,4.422 L0.454,4.422 Z"></path>
        <path id="path-67" d="M0.899,8.494 L0.899,4.466 C0.899,3.31 1.705,2.217 3.172,1.394 C4.671,0.549 6.673,0.087 8.813,0.087 C10.953,0.087 12.958,0.549 14.454,1.394 L14.454,5.422 C12.958,4.577 10.953,4.115 8.813,4.115 C6.673,4.115 4.671,4.577 3.172,5.422 C1.705,6.245 0.899,7.338 0.899,8.494 L0.899,8.494 Z"></path>
        <path id="path-69" d="M0.635,7.867 L0.635,3.839 C2.218,2.95 3.088,1.753 3.088,0.466 L3.088,4.494 C3.088,5.782 2.217,6.979 0.635,7.867 L0.635,7.867 Z"></path>
        <path id="path-71" d="M0.542,4.494 L0.542,0.466 C0.542,1.754 1.412,2.95 2.995,3.839 C4.545,4.712 6.612,5.193 8.813,5.193 C11.015,5.193 13.084,4.712 14.635,3.839 L14.635,7.867 C13.085,8.74 11.015,9.221 8.813,9.221 C6.611,9.221 4.545,8.74 2.995,7.867 C1.412,6.979 0.542,5.782 0.542,4.494 L0.542,4.494 Z"></path>
    </defs>
    <g id="Page-1" stroke="none" stroke-width="1" fill="none" fill-rule="evenodd">
        <g id="ic_coins-07-10">
            <g id="Group">
                <g transform="translate(26.000000, 16.000000)">
                    <g>
                        <g id="Clipped" transform="translate(14.000000, 2.000000)">
                            <mask id="mask-2" fill="white">
                                <use xlink:href="#path-1"></use>
                            </mask>
                            <g id="SVGID_25_"></g>
                            <path d="M0.6,4.548 L0.6,0.52 C2.067,1.343 2.876,2.436 2.876,3.592 L2.876,7.62 C2.876,6.464 2.067,5.371 0.6,4.548" id="Shape" fill="#747575" mask="url(#mask-2)"></path>
                        </g>
                        <g id="Clipped" transform="translate(1.000000, 1.000000)">
                            <mask id="mask-4" fill="white">
                                <use xlink:href="#path-3"></use>
                            </mask>
                            <g id="SVGID_27_"></g>
                            <g id="Group" mask="url(#mask-4)">
                                <path id="Shape" fill="#7E7F7E" d="M0.045,8.62 L0.045,4.592 C0.045,4.369 0.075,4.148 0.134,3.931 L0.134,7.959 C0.075,8.176 0.045,8.396 0.045,8.62"></path>
                                <path id="Shape" fill="#7B7C7B" d="M0.134,7.959 L0.134,3.93 C0.193,3.713 0.281,3.5 0.397,3.293 L0.397,7.321 C0.281,7.529 0.193,7.742 0.134,7.959"></path>
                                <path d="M0.397,7.321 L0.397,3.293 C0.538,3.04 0.721,2.794 0.944,2.559 L0.944,6.587 C0.721,6.822 0.538,7.068 0.397,7.321" id="Shape" fill="#777878"></path>
                                <path d="M0.944,6.587 L0.944,2.559 C1.302,2.181 1.763,1.831 2.318,1.519 C3.817,0.674 5.819,0.212 7.959,0.212 C10.099,0.212 12.104,0.674 13.6,1.519 L13.6,5.547 C12.104,4.702 10.099,4.24 7.959,4.24 C5.819,4.24 3.817,4.702 2.318,5.547 C1.762,5.859 1.302,6.21 0.944,6.587" id="Shape" fill="#747575"></path>
                            </g>
                        </g>
                        <g transform="translate(14.000000, 5.000000)">
                            <g id="SVGID_29_-link" fill="#6C6C6D">
                                <path d="M0.78,7.993 L0.78,3.965 C2.363,3.076 3.233,1.879 3.233,0.592 L3.233,4.62 C3.233,5.907 2.363,7.104 0.78,7.993 L0.78,7.993 Z" id="SVGID_29_"></path>
                            </g>
                            <g id="Clipped">
                                <mask id="mask-6" fill="white">
                                    <use xlink:href="#path-5"></use>
                                </mask>
                                <g id="SVGID_29_"></g>
                                <g id="Group" mask="url(#mask-6)" fill="#6C6C6D">
                                    <path d="M0.78,7.993 L0.78,3.965 C1.369,3.634 1.859,3.261 2.242,2.856 L2.242,6.884 C1.859,7.289 1.369,7.662 0.78,7.993" id="Shape"></path>
                                    <path d="M2.243,6.884 L2.243,2.856 C2.485,2.6 2.685,2.332 2.84,2.054 L2.84,6.082 C2.685,6.36 2.485,6.628 2.243,6.884" id="Shape"></path>
                                    <path id="Shape" d="M2.84,6.082 L2.84,2.054 C2.969,1.823 3.066,1.586 3.132,1.344 L3.132,5.372 C3.066,5.614 2.969,5.852 2.84,6.082"></path>
                                    <path id="Shape" d="M3.132,5.372 L3.132,1.344 C3.199,1.098 3.233,0.847 3.233,0.592 L3.233,4.62 C3.233,4.874 3.199,5.126 3.132,5.372"></path>
                                </g>
                            </g>
                        </g>
                        <path d="M14.78,8.964 C13.23,9.837 11.16,10.318 8.958,10.318 C6.756,10.318 4.69,9.837 3.14,8.964 C1.557,8.075 0.687,6.878 0.687,5.591 C0.687,4.306 1.557,3.107 3.14,2.215 C4.69,1.345 6.757,0.864 8.958,0.864 C11.16,0.864 13.229,1.345 14.78,2.215 C16.363,3.107 17.233,4.307 17.233,5.591 C17.233,6.879 16.363,8.075 14.78,8.964 L14.78,8.964 Z M14.6,2.519 C13.104,1.674 11.099,1.212 8.959,1.212 C6.819,1.212 4.817,1.674 3.318,2.519 C1.851,3.342 1.045,4.435 1.045,5.591 C1.045,6.747 1.851,7.84 3.318,8.663 C4.817,9.505 6.819,9.97 8.959,9.97 C11.099,9.97 13.104,9.505 14.6,8.663 C16.067,7.84 16.876,6.747 16.876,5.591 C16.876,4.435 16.067,3.342 14.6,2.519 L14.6,2.519 Z" id="Shape" fill="#B1B0AF"></path>
                        <g id="Clipped" transform="translate(0.000000, 5.000000)">
                            <mask id="mask-8" fill="white">
                                <use xlink:href="#path-7"></use>
                            </mask>
                            <g id="SVGID_31_"></g>
                            <path d="M0.687,4.62 L0.687,0.592 C0.687,1.88 1.557,3.076 3.14,3.965 C4.69,4.838 6.757,5.319 8.958,5.319 C11.16,5.319 13.229,4.838 14.78,3.965 L14.78,7.993 C13.23,8.866 11.16,9.347 8.958,9.347 C6.756,9.347 4.69,8.866 3.14,7.993 C1.558,7.104 0.687,5.907 0.687,4.62" id="Shape" fill="#6C6C6D" mask="url(#mask-8)"></path>
                        </g>
                    </g>
                    <path d="M3.23,8.899 C0.078,7.079 0.078,4.101 3.23,2.282 C6.382,0.463 11.539,0.463 14.691,2.282 C17.843,4.101 17.843,7.079 14.691,8.899 C11.539,10.719 6.382,10.719 3.23,8.899 L3.23,8.899 Z" id="Shape" fill="#DCDBDB"></path>
                </g>
                <g transform="translate(13.000000, 23.000000)">
                    <g>
                        <g id="Clipped" transform="translate(14.000000, 2.000000)">
                            <mask id="mask-10" fill="white">
                                <use xlink:href="#path-9"></use>
                            </mask>
                            <g id="SVGID_33_"></g>
                            <path d="M0.825,4.289 L0.825,0.261 C2.292,1.084 3.101,2.177 3.101,3.333 L3.101,7.361 C3.101,6.205 2.292,5.112 0.825,4.289" id="Shape" fill="#747575" mask="url(#mask-10)"></path>
                        </g>
                        <g id="Clipped" transform="translate(1.000000, 0.000000)">
                            <mask id="mask-12" fill="white">
                                <use xlink:href="#path-11"></use>
                            </mask>
                            <g id="SVGID_35_"></g>
                            <g id="Group" mask="url(#mask-12)">
                                <path id="Shape" fill="#7E7F7E" d="M0.27,9.361 L0.27,5.333 C0.27,5.11 0.3,4.889 0.359,4.672 L0.359,8.7 C0.3,8.917 0.27,9.138 0.27,9.361"></path>
                                <path id="Shape" fill="#7B7C7B" d="M0.359,8.7 L0.359,4.672 C0.418,4.455 0.506,4.242 0.622,4.035 L0.622,8.063 C0.506,8.27 0.418,8.483 0.359,8.7"></path>
                                <path d="M0.622,8.062 L0.622,4.034 C0.763,3.781 0.946,3.535 1.169,3.3 L1.169,7.328 C0.946,7.564 0.764,7.809 0.622,8.062" id="Shape" fill="#777878"></path>
                                <path d="M1.169,7.329 L1.169,3.3 C1.527,2.922 1.988,2.572 2.543,2.26 C4.042,1.415 6.044,0.953 8.184,0.953 C10.324,0.953 12.329,1.415 13.825,2.26 L13.825,6.288 C12.329,5.443 10.324,4.981 8.184,4.981 C6.044,4.981 4.042,5.443 2.543,6.288 C1.988,6.601 1.527,6.951 1.169,7.329" id="Shape" fill="#747575"></path>
                            </g>
                        </g>
                        <g transform="translate(15.000000, 5.000000)">
                            <g id="SVGID_37_-link" fill="#6C6C6D">
                                <path d="M0.006,7.734 L0.006,3.706 C1.589,2.817 2.459,1.62 2.459,0.333 L2.459,4.361 C2.459,5.649 1.588,6.845 0.006,7.734 L0.006,7.734 Z" id="SVGID_37_"></path>
                            </g>
                            <g id="Clipped">
                                <mask id="mask-14" fill="white">
                                    <use xlink:href="#path-13"></use>
                                </mask>
                                <g id="SVGID_37_"></g>
                                <g id="Group" mask="url(#mask-14)" fill="#6C6C6D">
                                    <path d="M0.006,7.734 L0.006,3.706 C0.595,3.375 1.085,3.002 1.468,2.597 L1.468,6.625 C1.085,7.03 0.594,7.403 0.006,7.734" id="Shape"></path>
                                    <path d="M1.468,6.626 L1.468,2.598 C1.71,2.342 1.91,2.074 2.065,1.796 L2.065,5.824 C1.91,6.101 1.71,6.37 1.468,6.626" id="Shape"></path>
                                    <path id="Shape" d="M2.065,5.823 L2.065,1.795 C2.194,1.564 2.291,1.327 2.357,1.085 L2.357,5.113 C2.292,5.356 2.194,5.593 2.065,5.823"></path>
                                    <path id="Shape" d="M2.358,5.113 L2.358,1.085 C2.425,0.839 2.459,0.588 2.459,0.333 L2.459,4.361 C2.459,4.616 2.425,4.867 2.358,5.113"></path>
                                </g>
                            </g>
                        </g>
                        <path d="M15.006,8.706 C13.456,9.579 11.386,10.06 9.184,10.06 C6.982,10.06 4.916,9.579 3.366,8.706 C1.783,7.817 0.913,6.62 0.913,5.333 C0.913,4.048 1.783,2.849 3.366,1.957 C4.916,1.087 6.983,0.606 9.184,0.606 C11.386,0.606 13.455,1.087 15.006,1.957 C16.589,2.849 17.459,4.049 17.459,5.333 C17.459,6.62 16.588,7.817 15.006,8.706 L15.006,8.706 Z M14.825,2.261 C13.329,1.416 11.324,0.954 9.184,0.954 C7.044,0.954 5.042,1.416 3.543,2.261 C2.076,3.084 1.27,4.177 1.27,5.333 C1.27,6.489 2.076,7.582 3.543,8.405 C5.042,9.247 7.044,9.712 9.184,9.712 C11.324,9.712 13.329,9.247 14.825,8.405 C16.292,7.582 17.101,6.489 17.101,5.333 C17.101,4.176 16.292,3.083 14.825,2.261 L14.825,2.261 Z" id="Shape" fill="#B1B0AF"></path>
                        <g id="Clipped" transform="translate(0.000000, 5.000000)">
                            <mask id="mask-16" fill="white">
                                <use xlink:href="#path-15"></use>
                            </mask>
                            <g id="SVGID_39_"></g>
                            <path d="M0.913,4.361 L0.913,0.333 C0.913,1.621 1.783,2.817 3.366,3.706 C4.916,4.579 6.983,5.06 9.184,5.06 C11.386,5.06 13.455,4.579 15.006,3.706 L15.006,7.734 C13.456,8.607 11.386,9.088 9.184,9.088 C6.982,9.088 4.916,8.607 3.366,7.734 C1.783,6.845 0.913,5.649 0.913,4.361" id="Shape" fill="#6C6C6D" mask="url(#mask-16)"></path>
                        </g>
                    </g>
                    <path d="M3.455,8.64 C0.303,6.82 0.303,3.842 3.455,2.023 C6.607,0.204 11.764,0.204 14.916,2.023 C18.068,3.842 18.068,6.82 14.916,8.64 C11.764,10.46 6.607,10.461 3.455,8.64 L3.455,8.64 Z" id="Shape" fill="#DCDBDB"></path>
                </g>
                <g transform="translate(18.000000, 15.000000)">
                    <g>
                        <g id="Clipped" transform="translate(14.000000, 1.000000)">
                            <mask id="mask-18" fill="white">
                                <use xlink:href="#path-17"></use>
                            </mask>
                            <g id="SVGID_41_"></g>
                            <path d="M0.685,5.012 L0.685,0.984 C2.152,1.807 2.961,2.9 2.961,4.056 L2.961,8.084 C2.96,6.928 2.151,5.835 0.685,5.012" id="Shape" fill="#747575" mask="url(#mask-18)"></path>
                        </g>
                        <g id="Clipped" transform="translate(1.000000, 0.000000)">
                            <mask id="mask-20" fill="white">
                                <use xlink:href="#path-19"></use>
                            </mask>
                            <g id="SVGID_43_"></g>
                            <g id="Group" mask="url(#mask-20)">
                                <path id="Shape" fill="#7E7F7E" d="M0.13,9.084 L0.13,5.056 C0.13,4.833 0.16,4.612 0.219,4.395 L0.219,8.423 C0.16,8.64 0.13,8.86 0.13,9.084"></path>
                                <path id="Shape" fill="#7B7C7B" d="M0.219,8.423 L0.219,4.395 C0.278,4.178 0.366,3.965 0.482,3.758 L0.482,7.786 C0.366,7.993 0.278,8.206 0.219,8.423"></path>
                                <path d="M0.482,7.785 L0.482,3.757 C0.623,3.504 0.806,3.258 1.029,3.023 L1.029,7.051 C0.806,7.286 0.623,7.532 0.482,7.785" id="Shape" fill="#777878"></path>
                                <path d="M1.028,7.052 L1.028,3.024 C1.386,2.646 1.847,2.296 2.402,1.984 C3.901,1.139 5.903,0.677 8.043,0.677 C10.183,0.677 12.188,1.139 13.684,1.984 L13.684,6.012 C12.188,5.167 10.183,4.705 8.043,4.705 C5.903,4.705 3.901,5.167 2.402,6.012 C1.847,6.323 1.386,6.674 1.028,7.052" id="Shape" fill="#747575"></path>
                            </g>
                        </g>
                        <g transform="translate(14.000000, 5.000000)">
                            <g id="SVGID_45_-link" fill="#6C6C6D">
                                <path d="M0.865,7.457 L0.865,3.429 C2.448,2.54 3.318,1.343 3.318,0.056 L3.318,4.084 C3.318,5.371 2.448,6.568 0.865,7.457 L0.865,7.457 Z" id="SVGID_45_"></path>
                            </g>
                            <g id="Clipped">
                                <mask id="mask-22" fill="white">
                                    <use xlink:href="#path-21"></use>
                                </mask>
                                <g id="SVGID_45_"></g>
                                <g id="Group" mask="url(#mask-22)" fill="#6C6C6D">
                                    <path d="M0.865,7.457 L0.865,3.429 C1.454,3.098 1.944,2.725 2.327,2.32 L2.327,6.348 C1.944,6.753 1.454,7.126 0.865,7.457" id="Shape"></path>
                                    <path d="M2.327,6.348 L2.327,2.32 C2.569,2.064 2.769,1.796 2.924,1.518 L2.924,5.546 C2.77,5.824 2.57,6.093 2.327,6.348" id="Shape"></path>
                                    <path id="Shape" d="M2.925,5.546 L2.925,1.518 C3.054,1.287 3.151,1.05 3.217,0.808 L3.217,4.836 C3.151,5.078 3.053,5.316 2.925,5.546"></path>
                                    <path id="Shape" d="M3.217,4.836 L3.217,0.808 C3.284,0.562 3.318,0.311 3.318,0.056 L3.318,4.084 C3.318,4.339 3.284,4.59 3.217,4.836"></path>
                                </g>
                            </g>
                        </g>
                        <path d="M14.865,8.428 C13.315,9.301 11.245,9.782 9.043,9.782 C6.841,9.782 4.775,9.301 3.225,8.428 C1.642,7.539 0.772,6.342 0.772,5.055 C0.772,3.77 1.642,2.571 3.225,1.679 C4.775,0.809 6.842,0.328 9.043,0.328 C11.245,0.328 13.314,0.809 14.865,1.679 C16.448,2.571 17.318,3.771 17.318,5.055 C17.318,6.343 16.448,7.54 14.865,8.428 L14.865,8.428 Z M14.685,1.983 C13.189,1.138 11.184,0.676 9.044,0.676 C6.904,0.676 4.902,1.138 3.403,1.983 C1.936,2.806 1.13,3.899 1.13,5.055 C1.13,6.211 1.936,7.304 3.403,8.127 C4.902,8.969 6.904,9.434 9.044,9.434 C11.184,9.434 13.189,8.969 14.685,8.127 C16.152,7.304 16.961,6.211 16.961,5.055 C16.96,3.899 16.151,2.806 14.685,1.983 L14.685,1.983 Z" id="Shape" fill="#B1B0AF"></path>
                        <g id="Clipped" transform="translate(0.000000, 5.000000)">
                            <mask id="mask-24" fill="white">
                                <use xlink:href="#path-23"></use>
                            </mask>
                            <g id="SVGID_47_"></g>
                            <path d="M0.772,4.084 L0.772,0.056 C0.772,1.344 1.642,2.54 3.225,3.429 C4.775,4.302 6.842,4.783 9.043,4.783 C11.245,4.783 13.314,4.302 14.865,3.429 L14.865,7.457 C13.315,8.33 11.245,8.811 9.043,8.811 C6.841,8.811 4.775,8.33 3.225,7.457 C1.642,6.568 0.772,5.371 0.772,4.084" id="Shape" fill="#6C6C6D" mask="url(#mask-24)"></path>
                        </g>
                    </g>
                    <path d="M3.314,8.363 C0.162,6.543 0.162,3.565 3.314,1.746 C6.466,-0.073 11.623,-0.073 14.775,1.746 C17.927,3.565 17.927,6.543 14.775,8.363 C11.623,10.183 6.466,10.184 3.314,8.363 L3.314,8.363 Z" id="Shape" fill="#DCDBDB"></path>
                </g>
                <g transform="translate(0.000000, 31.000000)">
                    <g>
                        <g id="Clipped" transform="translate(13.000000, 2.000000)">
                            <mask id="mask-26" fill="white">
                                <use xlink:href="#path-25"></use>
                            </mask>
                            <g id="SVGID_49_"></g>
                            <path d="M0.913,4.201 L0.913,0.173 C2.38,0.996 3.189,2.089 3.189,3.245 L3.189,7.273 C3.188,6.117 2.379,5.024 0.913,4.201" id="Shape" fill="#747575" mask="url(#mask-26)"></path>
                        </g>
                        <g id="Clipped">
                            <mask id="mask-28" fill="white">
                                <use xlink:href="#path-27"></use>
                            </mask>
                            <g id="SVGID_51_"></g>
                            <g id="Group" mask="url(#mask-28)">
                                <path id="Shape" fill="#7E7F7E" d="M0.358,9.273 L0.358,5.245 C0.358,5.022 0.388,4.801 0.447,4.584 L0.447,8.612 C0.388,8.829 0.358,9.05 0.358,9.273"></path>
                                <path id="Shape" fill="#7B7C7B" d="M0.447,8.612 L0.447,4.584 C0.506,4.367 0.594,4.154 0.71,3.947 L0.71,7.975 C0.594,8.182 0.506,8.395 0.447,8.612"></path>
                                <path d="M0.71,7.975 L0.71,3.947 C0.851,3.694 1.034,3.448 1.257,3.213 L1.257,7.241 C1.034,7.476 0.851,7.721 0.71,7.975" id="Shape" fill="#777878"></path>
                                <path d="M1.256,7.241 L1.256,3.213 C1.614,2.835 2.075,2.485 2.63,2.173 C4.129,1.328 6.131,0.866 8.271,0.866 C10.411,0.866 12.416,1.328 13.912,2.173 L13.912,6.201 C12.416,5.356 10.411,4.894 8.271,4.894 C6.131,4.894 4.129,5.356 2.63,6.201 C2.075,6.513 1.614,6.863 1.256,7.241" id="Shape" fill="#747575"></path>
                            </g>
                        </g>
                        <g transform="translate(14.000000, 5.000000)">
                            <g id="SVGID_53_-link" fill="#6C6C6D">
                                <path d="M0.093,7.646 L0.093,3.618 C1.676,2.729 2.546,1.532 2.546,0.245 L2.546,4.273 C2.546,5.561 1.676,6.757 0.093,7.646 L0.093,7.646 Z" id="SVGID_53_"></path>
                            </g>
                            <g id="Clipped">
                                <mask id="mask-30" fill="white">
                                    <use xlink:href="#path-29"></use>
                                </mask>
                                <g id="SVGID_53_"></g>
                                <g id="Group" mask="url(#mask-30)" fill="#6C6C6D">
                                    <path d="M0.093,7.646 L0.093,3.618 C0.682,3.287 1.172,2.914 1.555,2.509 L1.555,6.537 C1.172,6.942 0.682,7.316 0.093,7.646" id="Shape"></path>
                                    <path d="M1.555,6.538 L1.555,2.51 C1.797,2.254 1.997,1.986 2.152,1.708 L2.152,5.736 C1.998,6.014 1.798,6.282 1.555,6.538" id="Shape"></path>
                                    <path id="Shape" d="M2.153,5.736 L2.153,1.708 C2.282,1.477 2.379,1.24 2.445,0.998 L2.445,5.026 C2.379,5.268 2.281,5.505 2.153,5.736"></path>
                                    <path id="Shape" d="M2.445,5.025 L2.445,0.997 C2.512,0.751 2.546,0.5 2.546,0.245 L2.546,4.273 C2.546,4.528 2.512,4.779 2.445,5.025"></path>
                                </g>
                            </g>
                        </g>
                        <path d="M14.093,8.618 C12.543,9.491 10.473,9.972 8.271,9.972 C6.069,9.972 4.003,9.491 2.453,8.618 C0.87,7.729 0,6.532 0,5.245 C0,3.96 0.87,2.761 2.453,1.869 C4.003,0.999 6.07,0.518 8.271,0.518 C10.473,0.518 12.542,0.999 14.093,1.869 C15.676,2.761 16.546,3.961 16.546,5.245 C16.546,6.532 15.676,7.729 14.093,8.618 L14.093,8.618 Z M13.913,2.173 C12.417,1.328 10.412,0.866 8.272,0.866 C6.132,0.866 4.13,1.328 2.631,2.173 C1.164,2.996 0.358,4.089 0.358,5.245 C0.358,6.401 1.164,7.494 2.631,8.317 C4.13,9.159 6.132,9.624 8.272,9.624 C10.412,9.624 12.417,9.159 13.913,8.317 C15.38,7.494 16.189,6.401 16.189,5.245 C16.188,4.089 15.379,2.996 13.913,2.173 L13.913,2.173 Z" id="Shape" fill="#B1B0AF"></path>
                        <g id="Clipped" transform="translate(0.000000, 5.000000)">
                            <mask id="mask-32" fill="white">
                                <use xlink:href="#path-31"></use>
                            </mask>
                            <g id="SVGID_55_"></g>
                            <path d="M0,4.273 L0,0.245 C0,1.533 0.87,2.729 2.453,3.618 C4.003,4.491 6.07,4.972 8.271,4.972 C10.473,4.972 12.542,4.491 14.093,3.618 L14.093,7.646 C12.543,8.519 10.473,9 8.271,9 C6.069,9 4.003,8.519 2.453,7.646 C0.87,6.757 0,5.561 0,4.273" id="Shape" fill="#6C6C6D" mask="url(#mask-32)"></path>
                        </g>
                    </g>
                    <path d="M2.542,8.553 C-0.61,6.733 -0.61,3.755 2.542,1.936 C5.694,0.117 10.851,0.117 14.003,1.936 C17.155,3.755 17.155,6.733 14.003,8.553 C10.851,10.373 5.694,10.373 2.542,8.553 L2.542,8.553 Z" id="Shape" fill="#DCDBDB"></path>
                </g>
                <g transform="translate(0.000000, 23.000000)">
                    <g>
                        <g id="Clipped" transform="translate(13.000000, 2.000000)">
                            <mask id="mask-34" fill="white">
                                <use xlink:href="#path-33"></use>
                            </mask>
                            <g id="SVGID_57_"></g>
                            <path d="M0.913,4.322 L0.913,0.294 C2.38,1.117 3.189,2.21 3.189,3.366 L3.189,7.394 C3.188,6.238 2.379,5.145 0.913,4.322" id="Shape" fill="#747575" mask="url(#mask-34)"></path>
                        </g>
                        <g id="Clipped">
                            <mask id="mask-36" fill="white">
                                <use xlink:href="#path-35"></use>
                            </mask>
                            <g id="SVGID_59_"></g>
                            <g id="Group" mask="url(#mask-36)">
                                <path id="Shape" fill="#7E7F7E" d="M0.358,9.394 L0.358,5.366 C0.358,5.143 0.388,4.922 0.447,4.705 L0.447,8.733 C0.388,8.95 0.358,9.17 0.358,9.394"></path>
                                <path id="Shape" fill="#7B7C7B" d="M0.447,8.733 L0.447,4.705 C0.506,4.488 0.594,4.275 0.71,4.068 L0.71,8.096 C0.594,8.303 0.506,8.516 0.447,8.733"></path>
                                <path d="M0.71,8.095 L0.71,4.067 C0.851,3.814 1.034,3.568 1.257,3.333 L1.257,7.361 C1.034,7.596 0.851,7.842 0.71,8.095" id="Shape" fill="#777878"></path>
                                <path d="M1.256,7.362 L1.256,3.334 C1.614,2.956 2.075,2.606 2.63,2.294 C4.129,1.449 6.131,0.987 8.271,0.987 C10.411,0.987 12.416,1.449 13.912,2.294 L13.912,6.322 C12.416,5.477 10.411,5.015 8.271,5.015 C6.131,5.015 4.129,5.477 2.63,6.322 C2.075,6.633 1.614,6.984 1.256,7.362" id="Shape" fill="#747575"></path>
                            </g>
                        </g>
                        <g transform="translate(14.000000, 5.000000)">
                            <g id="SVGID_61_-link" fill="#6C6C6D">
                                <path d="M0.093,7.767 L0.093,3.739 C1.676,2.85 2.546,1.653 2.546,0.366 L2.546,4.394 C2.546,5.681 1.676,6.878 0.093,7.767 L0.093,7.767 Z" id="SVGID_61_"></path>
                            </g>
                            <g id="Clipped">
                                <mask id="mask-38" fill="white">
                                    <use xlink:href="#path-37"></use>
                                </mask>
                                <g id="SVGID_61_"></g>
                                <g id="Group" mask="url(#mask-38)" fill="#6C6C6D">
                                    <path d="M0.093,7.767 L0.093,3.739 C0.682,3.408 1.172,3.035 1.555,2.63 L1.555,6.658 C1.172,7.063 0.682,7.436 0.093,7.767" id="Shape"></path>
                                    <path d="M1.555,6.658 L1.555,2.63 C1.797,2.374 1.997,2.106 2.152,1.828 L2.152,5.856 C1.998,6.134 1.798,6.403 1.555,6.658" id="Shape"></path>
                                    <path id="Shape" d="M2.153,5.856 L2.153,1.828 C2.282,1.597 2.379,1.36 2.445,1.118 L2.445,5.146 C2.379,5.388 2.281,5.626 2.153,5.856"></path>
                                    <path id="Shape" d="M2.445,5.146 L2.445,1.118 C2.512,0.872 2.546,0.621 2.546,0.366 L2.546,4.394 C2.546,4.649 2.512,4.9 2.445,5.146"></path>
                                </g>
                            </g>
                        </g>
                        <path d="M14.093,8.738 C12.543,9.611 10.473,10.092 8.271,10.092 C6.069,10.092 4.003,9.611 2.453,8.738 C0.87,7.85 0,6.653 0,5.365 C0,4.08 0.87,2.881 2.453,1.989 C4.003,1.119 6.07,0.638 8.271,0.638 C10.473,0.638 12.542,1.119 14.093,1.989 C15.676,2.881 16.546,4.081 16.546,5.365 C16.546,6.653 15.676,7.85 14.093,8.738 L14.093,8.738 Z M13.913,2.293 C12.417,1.448 10.412,0.986 8.272,0.986 C6.132,0.986 4.13,1.448 2.631,2.293 C1.164,3.116 0.358,4.209 0.358,5.365 C0.358,6.521 1.164,7.614 2.631,8.437 C4.13,9.279 6.132,9.744 8.272,9.744 C10.412,9.744 12.417,9.279 13.913,8.437 C15.38,7.614 16.189,6.521 16.189,5.365 C16.188,4.209 15.379,3.116 13.913,2.293 L13.913,2.293 Z" id="Shape" fill="#B1B0AF"></path>
                        <g id="Clipped" transform="translate(0.000000, 5.000000)">
                            <mask id="mask-40" fill="white">
                                <use xlink:href="#path-39"></use>
                            </mask>
                            <g id="SVGID_63_"></g>
                            <path d="M0,4.394 L0,0.366 C0,1.654 0.87,2.85 2.453,3.739 C4.003,4.612 6.07,5.093 8.271,5.093 C10.473,5.093 12.542,4.612 14.093,3.739 L14.093,7.767 C12.543,8.64 10.473,9.121 8.271,9.121 C6.069,9.121 4.003,8.64 2.453,7.767 C0.87,6.878 0,5.681 0,4.394" id="Shape" fill="#6C6C6D" mask="url(#mask-40)"></path>
                        </g>
                    </g>
                    <path d="M2.542,8.673 C-0.61,6.853 -0.61,3.875 2.542,2.056 C5.694,0.237 10.851,0.237 14.003,2.056 C17.155,3.875 17.155,6.853 14.003,8.673 C10.852,10.494 5.694,10.494 2.542,8.673 L2.542,8.673 Z" id="Shape" fill="#DCDBDB"></path>
                </g>
                <g transform="translate(0.000000, 15.000000)">
                    <g>
                        <g id="Clipped" transform="translate(13.000000, 2.000000)">
                            <mask id="mask-42" fill="white">
                                <use xlink:href="#path-41"></use>
                            </mask>
                            <g id="SVGID_65_"></g>
                            <path d="M0.913,4.442 L0.913,0.414 C2.38,1.237 3.189,2.33 3.189,3.486 L3.189,7.514 C3.188,6.358 2.379,5.265 0.913,4.442" id="Shape" fill="#747575" mask="url(#mask-42)"></path>
                        </g>
                        <g id="Clipped" transform="translate(0.000000, 1.000000)">
                            <mask id="mask-44" fill="white">
                                <use xlink:href="#path-43"></use>
                            </mask>
                            <g id="SVGID_67_"></g>
                            <g id="Group" mask="url(#mask-44)">
                                <path id="Shape" fill="#7E7F7E" d="M0.358,8.514 L0.358,4.486 C0.358,4.263 0.388,4.042 0.447,3.825 L0.447,7.853 C0.388,8.07 0.358,8.291 0.358,8.514"></path>
                                <path id="Shape" fill="#7B7C7B" d="M0.447,7.853 L0.447,3.825 C0.506,3.608 0.594,3.395 0.71,3.188 L0.71,7.216 C0.594,7.424 0.506,7.636 0.447,7.853"></path>
                                <path d="M0.71,7.216 L0.71,3.188 C0.851,2.935 1.034,2.689 1.257,2.454 L1.257,6.482 C1.034,6.717 0.851,6.963 0.71,7.216" id="Shape" fill="#777878"></path>
                                <path d="M1.256,6.482 L1.256,2.454 C1.614,2.076 2.075,1.726 2.63,1.414 C4.129,0.569 6.131,0.107 8.271,0.107 C10.411,0.107 12.416,0.569 13.912,1.414 L13.912,5.442 C12.416,4.597 10.411,4.135 8.271,4.135 C6.131,4.135 4.129,4.597 2.63,5.442 C2.075,5.754 1.614,6.104 1.256,6.482" id="Shape" fill="#747575"></path>
                            </g>
                        </g>
                        <g transform="translate(14.000000, 5.000000)">
                            <g id="SVGID_69_-link" fill="#6C6C6D">
                                <path d="M0.093,7.888 L0.093,3.86 C1.676,2.971 2.546,1.774 2.546,0.487 L2.546,4.515 C2.546,5.802 1.676,6.999 0.093,7.888 L0.093,7.888 Z" id="SVGID_69_"></path>
                            </g>
                            <g id="Clipped">
                                <mask id="mask-46" fill="white">
                                    <use xlink:href="#path-45"></use>
                                </mask>
                                <g id="SVGID_69_"></g>
                                <g id="Group" mask="url(#mask-46)" fill="#6C6C6D">
                                    <path d="M0.093,7.888 L0.093,3.86 C0.682,3.529 1.172,3.156 1.555,2.751 L1.555,6.779 C1.172,7.184 0.682,7.557 0.093,7.888" id="Shape"></path>
                                    <path d="M1.555,6.779 L1.555,2.751 C1.797,2.495 1.997,2.227 2.152,1.949 L2.152,5.977 C1.998,6.255 1.798,6.523 1.555,6.779" id="Shape"></path>
                                    <path id="Shape" d="M2.153,5.977 L2.153,1.949 C2.282,1.718 2.379,1.481 2.445,1.239 L2.445,5.267 C2.379,5.509 2.281,5.746 2.153,5.977"></path>
                                    <path id="Shape" d="M2.445,5.267 L2.445,1.239 C2.512,0.993 2.546,0.742 2.546,0.487 L2.546,4.515 C2.546,4.769 2.512,5.021 2.445,5.267"></path>
                                </g>
                            </g>
                        </g>
                        <path d="M14.093,8.859 C12.543,9.732 10.473,10.213 8.271,10.213 C6.069,10.213 4.003,9.732 2.453,8.859 C0.87,7.97 0,6.774 0,5.486 C0,4.201 0.87,3.002 2.453,2.11 C4.003,1.24 6.07,0.759 8.271,0.759 C10.473,0.759 12.542,1.24 14.093,2.11 C15.676,3.002 16.546,4.202 16.546,5.486 C16.546,6.774 15.676,7.97 14.093,8.859 L14.093,8.859 Z M13.913,2.414 C12.417,1.569 10.412,1.107 8.272,1.107 C6.132,1.107 4.13,1.569 2.631,2.414 C1.164,3.237 0.358,4.33 0.358,5.486 C0.358,6.642 1.164,7.735 2.631,8.558 C4.13,9.4 6.132,9.865 8.272,9.865 C10.412,9.865 12.417,9.4 13.913,8.558 C15.38,7.735 16.189,6.642 16.189,5.486 C16.188,4.33 15.379,3.237 13.913,2.414 L13.913,2.414 Z" id="Shape" fill="#B1B0AF"></path>
                        <g id="Clipped" transform="translate(0.000000, 5.000000)">
                            <mask id="mask-48" fill="white">
                                <use xlink:href="#path-47"></use>
                            </mask>
                            <g id="SVGID_71_"></g>
                            <path d="M0,4.514 L0,0.486 C0,1.774 0.87,2.97 2.453,3.859 C4.003,4.732 6.07,5.213 8.271,5.213 C10.473,5.213 12.542,4.732 14.093,3.859 L14.093,7.887 C12.543,8.76 10.473,9.241 8.271,9.241 C6.069,9.241 4.003,8.76 2.453,7.887 C0.87,6.999 0,5.802 0,4.514" id="Shape" fill="#6C6C6D" mask="url(#mask-48)"></path>
                        </g>
                    </g>
                    <path d="M2.542,8.794 C-0.61,6.974 -0.61,3.996 2.542,2.177 C5.694,0.358 10.851,0.358 14.003,2.177 C17.155,3.996 17.155,6.974 14.003,8.794 C10.852,10.614 5.694,10.614 2.542,8.794 L2.542,8.794 Z" id="Shape" fill="#DCDBDB"></path>
                </g>
                <g transform="translate(0.000000, 7.000000)">
                    <g>
                        <g id="Clipped" transform="translate(13.000000, 2.000000)">
                            <mask id="mask-50" fill="white">
                                <use xlink:href="#path-49"></use>
                            </mask>
                            <g id="SVGID_73_"></g>
                            <path d="M0.913,4.563 L0.913,0.535 C2.38,1.358 3.189,2.451 3.189,3.607 L3.189,7.635 C3.188,6.479 2.379,5.386 0.913,4.563" id="Shape" fill="#747575" mask="url(#mask-50)"></path>
                        </g>
                        <g id="Clipped" transform="translate(0.000000, 1.000000)">
                            <mask id="mask-52" fill="white">
                                <use xlink:href="#path-51"></use>
                            </mask>
                            <g id="SVGID_75_"></g>
                            <g id="Group" mask="url(#mask-52)">
                                <path id="Shape" fill="#7E7F7E" d="M0.358,8.635 L0.358,4.607 C0.358,4.384 0.388,4.163 0.447,3.946 L0.447,7.974 C0.388,8.191 0.358,8.412 0.358,8.635"></path>
                                <path id="Shape" fill="#7B7C7B" d="M0.447,7.974 L0.447,3.946 C0.506,3.729 0.594,3.516 0.71,3.309 L0.71,7.337 C0.594,7.544 0.506,7.757 0.447,7.974"></path>
                                <path d="M0.71,7.337 L0.71,3.309 C0.851,3.056 1.034,2.81 1.257,2.575 L1.257,6.603 C1.034,6.838 0.851,7.083 0.71,7.337" id="Shape" fill="#777878"></path>
                                <path d="M1.256,6.603 L1.256,2.575 C1.614,2.197 2.075,1.847 2.63,1.535 C4.129,0.69 6.131,0.228 8.271,0.228 C10.411,0.228 12.416,0.69 13.912,1.535 L13.912,5.563 C12.416,4.718 10.411,4.256 8.271,4.256 C6.131,4.256 4.129,4.718 2.63,5.563 C2.075,5.875 1.614,6.225 1.256,6.603" id="Shape" fill="#747575"></path>
                            </g>
                        </g>
                        <g transform="translate(14.000000, 5.000000)">
                            <g id="SVGID_77_-link" fill="#6C6C6D">
                                <path d="M0.093,8.008 L0.093,3.98 C1.676,3.091 2.546,1.894 2.546,0.607 L2.546,4.635 C2.546,5.923 1.676,7.119 0.093,8.008 L0.093,8.008 Z" id="SVGID_77_"></path>
                            </g>
                            <g id="Clipped">
                                <mask id="mask-54" fill="white">
                                    <use xlink:href="#path-53"></use>
                                </mask>
                                <g id="SVGID_77_"></g>
                                <g id="Group" mask="url(#mask-54)" fill="#6C6C6D">
                                    <path d="M0.093,8.008 L0.093,3.98 C0.682,3.649 1.172,3.276 1.555,2.871 L1.555,6.9 C1.172,7.304 0.682,7.678 0.093,8.008" id="Shape"></path>
                                    <path d="M1.555,6.9 L1.555,2.872 C1.797,2.616 1.997,2.348 2.152,2.07 L2.152,6.098 C1.998,6.376 1.798,6.644 1.555,6.9" id="Shape"></path>
                                    <path id="Shape" d="M2.153,6.097 L2.153,2.069 C2.282,1.838 2.379,1.601 2.445,1.359 L2.445,5.387 C2.379,5.63 2.281,5.867 2.153,6.097"></path>
                                    <path id="Shape" d="M2.445,5.387 L2.445,1.359 C2.512,1.113 2.546,0.862 2.546,0.607 L2.546,4.635 C2.546,4.89 2.512,5.141 2.445,5.387"></path>
                                </g>
                            </g>
                        </g>
                        <path d="M14.093,8.98 C12.543,9.853 10.473,10.334 8.271,10.334 C6.069,10.334 4.003,9.853 2.453,8.98 C0.87,8.091 0,6.894 0,5.606 C0,4.321 0.87,3.122 2.453,2.23 C4.003,1.36 6.07,0.879 8.271,0.879 C10.473,0.879 12.542,1.36 14.093,2.23 C15.676,3.122 16.546,4.322 16.546,5.606 C16.546,6.894 15.676,8.091 14.093,8.98 L14.093,8.98 Z M13.913,2.535 C12.417,1.69 10.412,1.228 8.272,1.228 C6.132,1.228 4.13,1.69 2.631,2.535 C1.164,3.358 0.358,4.451 0.358,5.607 C0.358,6.763 1.164,7.856 2.631,8.679 C4.13,9.521 6.132,9.986 8.272,9.986 C10.412,9.986 12.417,9.521 13.913,8.679 C15.38,7.856 16.189,6.763 16.189,5.607 C16.189,4.451 15.379,3.358 13.913,2.535 L13.913,2.535 Z" id="Shape" fill="#B1B0AF"></path>
                        <g id="Clipped" transform="translate(0.000000, 5.000000)">
                            <mask id="mask-56" fill="white">
                                <use xlink:href="#path-55"></use>
                            </mask>
                            <g id="SVGID_79_"></g>
                            <path d="M0,4.635 L0,0.607 C0,1.895 0.87,3.091 2.453,3.98 C4.003,4.853 6.07,5.334 8.271,5.334 C10.473,5.334 12.542,4.853 14.093,3.98 L14.093,8.008 C12.543,8.881 10.473,9.362 8.271,9.362 C6.069,9.362 4.003,8.881 2.453,8.008 C0.87,7.119 0,5.923 0,4.635" id="Shape" fill="#6C6C6D" mask="url(#mask-56)"></path>
                        </g>
                    </g>
                    <path d="M2.542,8.915 C-0.61,7.095 -0.61,4.117 2.542,2.298 C5.694,0.479 10.851,0.479 14.003,2.298 C17.155,4.117 17.155,7.095 14.003,8.915 C10.851,10.735 5.694,10.735 2.542,8.915 L2.542,8.915 Z" id="Shape" fill="#DCDBDB"></path>
                </g>
                <g>
                    <g>
                        <g id="Clipped" transform="translate(13.000000, 1.000000)">
                            <mask id="mask-58" fill="white">
                                <use xlink:href="#path-57"></use>
                            </mask>
                            <g id="SVGID_81_"></g>
                            <path d="M0.913,4.684 L0.913,0.655 C2.38,1.478 3.189,2.571 3.189,3.727 L3.189,7.755 C3.188,6.6 2.379,5.507 0.913,4.684" id="Shape" fill="#747575" mask="url(#mask-58)"></path>
                        </g>
                        <g id="Clipped">
                            <mask id="mask-60" fill="white">
                                <use xlink:href="#path-59"></use>
                            </mask>
                            <g id="SVGID_83_"></g>
                            <g id="Group" mask="url(#mask-60)">
                                <path id="Shape" fill="#7E7F7E" d="M0.358,8.755 L0.358,4.727 C0.358,4.504 0.388,4.283 0.447,4.066 L0.447,8.094 C0.388,8.311 0.358,8.532 0.358,8.755"></path>
                                <path id="Shape" fill="#7B7C7B" d="M0.447,8.094 L0.447,4.066 C0.506,3.849 0.594,3.636 0.71,3.429 L0.71,7.457 C0.594,7.665 0.506,7.878 0.447,8.094"></path>
                                <path d="M0.71,7.457 L0.71,3.429 C0.851,3.175 1.034,2.93 1.256,2.695 L1.256,6.723 C1.034,6.958 0.851,7.204 0.71,7.457" id="Shape" fill="#777878"></path>
                                <path d="M1.256,6.723 L1.256,2.695 C1.614,2.317 2.075,1.967 2.63,1.655 C4.129,0.81 6.131,0.349 8.271,0.349 C10.411,0.349 12.416,0.811 13.912,1.656 L13.912,5.684 C12.416,4.839 10.411,4.377 8.271,4.377 C6.131,4.377 4.129,4.839 2.63,5.684 C2.075,5.995 1.614,6.346 1.256,6.723" id="Shape" fill="#747575"></path>
                            </g>
                        </g>
                        <g transform="translate(14.000000, 4.000000)">
                            <g id="SVGID_85_-link" fill="#6C6C6D">
                                <path d="M0.093,8.129 L0.093,4.1 C1.676,3.211 2.546,2.014 2.546,0.727 L2.546,4.755 C2.546,6.043 1.676,7.24 0.093,8.129 L0.093,8.129 Z" id="SVGID_85_"></path>
                            </g>
                            <g id="Clipped">
                                <mask id="mask-62" fill="white">
                                    <use xlink:href="#path-61"></use>
                                </mask>
                                <g id="SVGID_85_"></g>
                                <g id="Group" mask="url(#mask-62)" fill="#6C6C6D">
                                    <path d="M0.093,8.129 L0.093,4.1 C0.682,3.769 1.172,3.396 1.555,2.991 L1.555,7.019 C1.172,7.425 0.682,7.798 0.093,8.129" id="Shape"></path>
                                    <path d="M1.555,7.02 L1.555,2.992 C1.797,2.736 1.997,2.468 2.152,2.19 L2.152,6.218 C1.998,6.496 1.798,6.764 1.555,7.02" id="Shape"></path>
                                    <path id="Shape" d="M2.153,6.218 L2.153,2.19 C2.282,1.959 2.379,1.722 2.445,1.48 L2.445,5.508 C2.379,5.75 2.281,5.987 2.153,6.218"></path>
                                    <path id="Shape" d="M2.445,5.508 L2.445,1.479 C2.512,1.233 2.546,0.982 2.546,0.727 L2.546,4.755 C2.546,5.01 2.512,5.262 2.445,5.508"></path>
                                </g>
                            </g>
                        </g>
                        <path d="M14.093,8.1 C12.543,8.973 10.473,9.454 8.271,9.454 C6.069,9.454 4.003,8.973 2.453,8.1 C0.87,7.211 0,6.015 0,4.727 C0,3.442 0.87,2.243 2.453,1.351 C4.004,0.481 6.07,0 8.271,0 C10.473,0 12.542,0.481 14.093,1.351 C15.676,2.243 16.546,3.443 16.546,4.727 C16.546,6.015 15.676,7.211 14.093,8.1 L14.093,8.1 Z M13.913,1.655 C12.417,0.81 10.412,0.348 8.272,0.348 C6.132,0.348 4.13,0.81 2.631,1.655 C1.164,2.478 0.358,3.571 0.358,4.727 C0.358,5.883 1.164,6.976 2.63,7.799 C4.129,8.641 6.131,9.106 8.271,9.106 C10.411,9.106 12.416,8.641 13.912,7.799 C15.379,6.976 16.188,5.883 16.188,4.727 C16.188,3.571 15.379,2.478 13.913,1.655 L13.913,1.655 Z" id="Shape" fill="#B1B0AF"></path>
                        <g id="Clipped" transform="translate(0.000000, 4.000000)">
                            <mask id="mask-64" fill="white">
                                <use xlink:href="#path-63"></use>
                            </mask>
                            <g id="SVGID_87_"></g>
                            <path d="M0,4.755 L0,0.727 C0,2.015 0.87,3.211 2.453,4.1 C4.003,4.973 6.07,5.454 8.271,5.454 C10.473,5.454 12.542,4.973 14.093,4.1 L14.093,8.128 C12.543,9.001 10.473,9.482 8.271,9.482 C6.069,9.482 4.003,9.001 2.453,8.128 C0.87,7.24 0,6.043 0,4.755" id="Shape" fill="#6C6C6D" mask="url(#mask-64)"></path>
                        </g>
                    </g>
                    <path d="M2.542,8.035 C-0.61,6.215 -0.61,3.237 2.542,1.418 C5.694,-0.401 10.851,-0.401 14.003,1.418 C17.155,3.237 17.155,6.215 14.003,8.035 C10.851,9.855 5.694,9.855 2.542,8.035 L2.542,8.035 Z" id="Shape" fill="#DCDBDB"></path>
                </g>
                <g transform="translate(30.000000, 30.000000)">
                    <g>
                        <g id="Clipped" transform="translate(14.000000, 2.000000)">
                            <mask id="mask-66" fill="white">
                                <use xlink:href="#path-65"></use>
                            </mask>
                            <g id="SVGID_89_"></g>
                            <path d="M0.454,4.422 L0.454,0.394 C1.921,1.217 2.73,2.31 2.73,3.466 L2.73,7.494 C2.73,6.338 1.921,5.245 0.454,4.422" id="Shape" fill="#747575" mask="url(#mask-66)"></path>
                        </g>
                        <g id="Clipped" transform="translate(0.000000, 1.000000)">
                            <mask id="mask-68" fill="white">
                                <use xlink:href="#path-67"></use>
                            </mask>
                            <g id="SVGID_91_"></g>
                            <g id="Group" mask="url(#mask-68)">
                                <path id="Shape" fill="#7E7F7E" d="M0.899,8.494 L0.899,4.466 C0.899,4.243 0.929,4.022 0.988,3.805 L0.988,7.833 C0.929,8.05 0.899,8.271 0.899,8.494"></path>
                                <path id="Shape" fill="#7B7C7B" d="M0.989,7.833 L0.989,3.805 C1.048,3.588 1.136,3.375 1.252,3.168 L1.252,7.196 C1.135,7.403 1.048,7.616 0.989,7.833"></path>
                                <path d="M1.251,7.196 L1.251,3.168 C1.392,2.915 1.575,2.669 1.798,2.434 L1.798,6.462 C1.575,6.697 1.393,6.942 1.251,7.196" id="Shape" fill="#777878"></path>
                                <path d="M1.798,6.462 L1.798,2.434 C2.156,2.056 2.617,1.706 3.172,1.394 C4.671,0.549 6.673,0.087 8.813,0.087 C10.953,0.087 12.958,0.549 14.454,1.394 L14.454,5.422 C12.958,4.577 10.953,4.115 8.813,4.115 C6.673,4.115 4.671,4.577 3.172,5.422 C2.617,5.734 2.156,6.084 1.798,6.462" id="Shape" fill="#747575"></path>
                            </g>
                        </g>
                        <g transform="translate(14.000000, 5.000000)">
                            <g id="SVGID_93_-link" fill="#6C6C6D">
                                <path d="M0.635,7.867 L0.635,3.839 C2.218,2.95 3.088,1.753 3.088,0.466 L3.088,4.494 C3.088,5.782 2.217,6.979 0.635,7.867 L0.635,7.867 Z" id="SVGID_93_"></path>
                            </g>
                            <g id="Clipped">
                                <mask id="mask-70" fill="white">
                                    <use xlink:href="#path-69"></use>
                                </mask>
                                <g id="SVGID_93_"></g>
                                <g id="Group" mask="url(#mask-70)">
                                    <path d="M0.635,7.867 L0.635,3.839 C1.224,3.508 1.714,3.135 2.097,2.73 L2.097,6.758 C1.714,7.164 1.223,7.537 0.635,7.867" id="Shape" fill="#6C6C6D"></path>
                                    <path d="M2.097,6.759 L2.097,2.73 C2.339,2.474 2.539,2.206 2.694,1.928 L2.694,5.956 C2.539,6.235 2.34,6.503 2.097,6.759" id="Shape" fill="#6C6C6D"></path>
                                    <path id="Shape" fill="#6C6C6D" d="M2.694,5.957 L2.694,1.929 C2.823,1.698 2.92,1.461 2.986,1.219 L2.986,5.247 C2.921,5.489 2.823,5.726 2.694,5.957"></path>
                                    <path id="Shape" fill="#DCDBDB" d="M2.987,5.247 L2.987,1.219 C3.054,0.973 3.088,0.722 3.088,0.467 L3.088,4.495 C3.088,4.749 3.054,5 2.987,5.247"></path>
                                </g>
                            </g>
                        </g>
                        <path d="M14.635,8.839 C13.085,9.712 11.015,10.193 8.813,10.193 C6.611,10.193 4.545,9.712 2.995,8.839 C1.412,7.95 0.542,6.753 0.542,5.466 C0.542,4.181 1.412,2.982 2.995,2.09 C4.545,1.22 6.612,0.739 8.813,0.739 C11.015,0.739 13.084,1.22 14.635,2.09 C16.218,2.982 17.088,4.182 17.088,5.466 C17.088,6.753 16.217,7.95 14.635,8.839 L14.635,8.839 Z M14.454,2.394 C12.958,1.549 10.953,1.087 8.813,1.087 C6.673,1.087 4.671,1.549 3.172,2.394 C1.705,3.217 0.899,4.31 0.899,5.466 C0.899,6.622 1.705,7.715 3.172,8.538 C4.671,9.38 6.673,9.845 8.813,9.845 C10.953,9.845 12.958,9.38 14.454,8.538 C15.921,7.715 16.73,6.622 16.73,5.466 C16.73,4.31 15.921,3.217 14.454,2.394 L14.454,2.394 Z" id="Shape" fill="#B1B0AF"></path>
                        <g id="Clipped" transform="translate(0.000000, 5.000000)">
                            <mask id="mask-72" fill="white">
                                <use xlink:href="#path-71"></use>
                            </mask>
                            <g id="SVGID_95_"></g>
                            <path d="M0.542,4.494 L0.542,0.466 C0.542,1.754 1.412,2.95 2.995,3.839 C4.545,4.712 6.612,5.193 8.813,5.193 C11.015,5.193 13.084,4.712 14.635,3.839 L14.635,7.867 C13.085,8.74 11.015,9.221 8.813,9.221 C6.611,9.221 4.545,8.74 2.995,7.867 C1.412,6.979 0.542,5.782 0.542,4.494" id="Shape" fill="#6C6C6D" mask="url(#mask-72)"></path>
                        </g>
                    </g>
                    <path d="M3.084,8.774 C-0.068,6.954 -0.068,3.976 3.084,2.157 C6.236,0.338 11.393,0.338 14.545,2.157 C17.697,3.976 17.697,6.954 14.545,8.774 C11.393,10.594 6.236,10.594 3.084,8.774 L3.084,8.774 Z" id="Shape" fill="#DCDBDB"></path>
                </g>
            </g>
        </g>
    </g>
</svg>