<?xml version="1.0" encoding="UTF-8" standalone="no"?>
<svg width="47px" height="45px" viewBox="0 0 47 45" version="1.1" xmlns="http://www.w3.org/2000/svg" xmlns:xlink="http://www.w3.org/1999/xlink">
    <!-- Generator: Sketch 3.6.1 (26313) - http://www.bohemiancoding.com/sketch -->
    <title>ic_government</title>
    <desc>Created with Sketch.</desc>
    <defs>
        <path id="path-1" d="M1.862,0.407 L10.495,5.979 C10.118,5.746 9.687,5.428 9.176,5.477 L0.521,0.12 C1.032,0.071 1.486,0.174 1.862,0.407 L1.862,0.407 Z"></path>
        <path id="path-3" d="M0.657,8.667 C0.601,5.958 2.383,2.468 4.633,0.897 C5.282,0.439 5.922,0.177 6.52,0.12 L15.175,5.477 C14.576,5.535 13.937,5.796 13.288,6.254 C11.038,7.825 9.256,11.315 9.312,14.024"></path>
        <path id="path-5" d="M1.862,0.407 L10.495,5.979 C10.118,5.746 9.687,5.428 9.176,5.477 L0.521,0.12 C1.032,0.071 1.486,0.174 1.862,0.407 L1.862,0.407 Z"></path>
        <path id="path-7" d="M0.657,8.667 C0.601,5.958 2.383,2.468 4.633,0.897 C5.282,0.439 5.922,0.177 6.52,0.12 L15.175,5.477 C14.576,5.535 13.937,5.796 13.288,6.254 C11.038,7.825 9.256,11.315 9.312,14.024"></path>
        <path id="path-9" d="M3.46,0.802 L20.157,11.58 C19.428,11.129 18.595,10.514 17.605,10.61 L0.865,0.248 C1.855,0.153 2.731,0.351 3.46,0.802 L3.46,0.802 Z"></path>
        <path id="path-11" d="M0.523,17.402 C0.415,12.164 3.863,4.79 8.215,1.752 C9.47,0.866 10.707,0.36 11.865,0.249 L28.605,10.61 C27.447,10.721 26.21,11.227 24.955,12.113 C20.603,15.151 17.157,21.902 17.265,27.14"></path>
    </defs>
    <g id="Page-2" stroke="none" stroke-width="1" fill="none" fill-rule="evenodd">
        <g id="Artboard-6" transform="translate(-15.000000, -300.000000)">
            <g id="ic_government" transform="translate(15.000000, 300.000000)">
                <g id="Layer_1">
                    <g id="Group">
                        <path d="M0,30.647 L24.372,16.63 L46.056,30.23 L22.6,43.633 L0,30.647 Z" id="Shape" fill="#DCDBDB"></path>
                        <path d="M0,30.647 L0,32.015 L22.6,45 L22.6,43.633 L0,30.647 Z" id="Shape" fill="#6C6C6D"></path>
                        <path d="M46.056,30.23 L46.056,31.597 L22.6,45 L22.6,43.633 L46.056,30.23 Z" id="Shape" fill="#939598"></path>
                        <g transform="translate(5.000000, 21.000000)" id="Shape">
                            <path d="M0.362,1.409 L0.362,9.609 L2.729,10.976 L2.729,2.774 L0.362,1.409 Z" fill="#606161"></path>
                            <path d="M2.729,2.776 L5.097,1.409 L2.729,0.041 L0.362,1.409 L2.729,2.776 Z" stroke="#939598" stroke-width="0.148"></path>
                            <path d="M2.729,10.976 L5.097,9.61 L5.097,1.409 L2.729,2.776 L2.729,10.976 Z" fill="#C2C3C4"></path>
                        </g>
                        <g transform="translate(10.000000, 24.000000)" id="Shape">
                            <path d="M0.515,1.383 L0.515,9.583 L2.882,10.95 L2.882,2.748 L0.515,1.383 Z" fill="#606161"></path>
                            <path d="M2.882,2.75 L5.25,1.383 L2.882,0.016 L0.515,1.383 L2.882,2.75 Z" stroke="#939598" stroke-width="0.148"></path>
                            <path d="M2.882,10.95 L5.25,9.585 L5.25,1.383 L2.882,2.75 L2.882,10.95 Z" fill="#C2C3C4"></path>
                        </g>
                        <g transform="translate(15.000000, 26.000000)" id="Shape">
                            <path d="M0.668,2.357 L0.668,10.557 L3.035,11.925 L3.035,3.723 L0.668,2.357 Z" fill="#606161"></path>
                            <path d="M3.035,3.724 L5.402,2.357 L3.035,0.99 L0.668,2.357 L3.035,3.724 Z" stroke="#939598" stroke-width="0.148"></path>
                            <path d="M3.035,11.925 L5.402,10.559 L5.402,2.357 L3.035,3.724 L3.035,11.925 Z" fill="#C2C3C4"></path>
                        </g>
                        <g transform="translate(20.000000, 29.000000)" id="Shape">
                            <path d="M0.82,2.331 L0.82,10.531 L3.188,11.899 L3.188,3.697 L0.82,2.331 Z" fill="#606161"></path>
                            <path d="M3.188,3.698 L5.555,2.331 L3.188,0.964 L0.82,2.331 L3.188,3.698 Z" stroke="#939598" stroke-width="0.148"></path>
                            <path d="M3.188,11.899 L5.555,10.533 L5.555,2.331 L3.188,3.698 L3.188,11.899 Z" fill="#C2C3C4"></path>
                        </g>
                        <g transform="translate(20.000000, 12.000000)" id="Shape">
                            <path d="M0.82,1.428 L0.82,9.628 L3.188,10.996 L3.188,2.794 L0.82,1.428 Z" fill="#818182"></path>
                            <path d="M3.188,2.795 L5.555,1.428 L3.188,0.061 L0.82,1.428 L3.188,2.795 Z" stroke="#939598" stroke-width="0.148"></path>
                            <path d="M3.188,10.996 L5.555,9.63 L5.555,1.428 L3.188,2.795 L3.188,10.996 Z" fill="#C2C3C4"></path>
                        </g>
                        <g transform="translate(25.000000, 15.000000)" id="Shape">
                            <path d="M0.973,1.402 L0.973,9.602 L3.341,10.97 L3.341,2.768 L0.973,1.402 Z" fill="#818182"></path>
                            <path d="M3.341,2.769 L5.708,1.402 L3.341,0.035 L0.973,1.402 L3.341,2.769 Z" stroke="#939598" stroke-width="0.148"></path>
                            <path d="M3.341,10.97 L5.708,9.604 L5.708,1.402 L3.341,2.769 L3.341,10.97 Z" fill="#C2C3C4"></path>
                        </g>
                        <g transform="translate(31.000000, 18.000000)" id="Shape">
                            <path d="M0.126,1.376 L0.126,9.577 L2.494,10.944 L2.494,2.742 L0.126,1.376 Z" fill="#818182"></path>
                            <path d="M2.494,2.743 L4.861,1.376 L2.494,0.009 L0.126,1.376 L2.494,2.743 Z" stroke="#939598" stroke-width="0.148"></path>
                            <path d="M2.494,10.944 L4.861,9.578 L4.861,1.376 L2.494,2.743 L2.494,10.944 Z" fill="#C2C3C4"></path>
                        </g>
                        <g transform="translate(36.000000, 20.000000)" id="Shape">
                            <path d="M0.279,2.35 L0.279,10.551 L2.646,11.918 L2.646,3.716 L0.279,2.35 Z" fill="#6C6C6D"></path>
                            <path d="M2.646,3.718 L5.014,2.35 L2.646,0.983 L0.279,2.35 L2.646,3.718 Z" stroke="#939598" stroke-width="0.148"></path>
                            <path d="M2.646,11.918 L5.014,10.552 L5.014,2.35 L2.646,3.718 L2.646,11.918 Z" fill="#C2C3C4"></path>
                        </g>
                        <path d="M18.035,11.149 L18.035,14.125 L38.646,26.025 L38.646,23.05 L18.035,11.149 Z" id="Shape" fill="#818281"></path>
                        <path d="M5.153,18.587 L7.729,17.099 L28.534,28.887 L23.188,31.975 L2.576,20.073 L5.153,18.587 Z" id="Shape" fill="#818281"></path>
                        <path d="M20.515,9.744 L23.091,8.256 L43.896,20.045 L38.55,23.132 L17.938,11.23 L20.515,9.744 Z" id="Shape" fill="#818281"></path>
                        <g transform="translate(19.000000, 12.000000)">
                            <g id="Clipped" transform="translate(6.000000, 0.000000)">
                                <mask id="mask-2" fill="white">
                                    <use xlink:href="#path-1"></use>
                                </mask>
                                <g id="SVGID_1_"></g>
                                <g id="Group" mask="url(#mask-2)">
                                    <path d="M9.176,5.478 L0.521,0.121 C1.031,0.072 1.484,0.174 1.86,0.406 L10.493,5.978 C10.116,5.746 9.686,5.428 9.176,5.478" id="Shape" fill="#878887"></path>
                                    <path d="M10.518,5.983 L1.86,0.405 L1.862,0.407 L10.518,5.983 L10.493,5.978" id="Shape" fill="#848584"></path>
                                </g>
                            </g>
                            <path d="M9.313,14.025 C9.257,11.316 11.039,7.826 13.289,6.255 C13.938,5.797 14.578,5.535 15.176,5.478 C16.68,5.333 17.684,7.312 17.724,9.254 M17.218,9.573 C17.184,7.919 16.406,5.876 15.186,5.994 C14.682,6.042 14.114,6.279 13.545,6.678 C11.433,8.157 9.76,11.178 9.813,13.724" id="Shape" fill="#ADADAB"></path>
                            <g id="Clipped">
                                <mask id="mask-4" fill="white">
                                    <use xlink:href="#path-3"></use>
                                </mask>
                                <g id="SVGID_3_"></g>
                                <g id="Group" mask="url(#mask-4)">
                                    <path d="M0.657,8.667 C0.621,6.937 1.335,4.889 2.441,3.225 L11.096,8.582 C9.99,10.246 9.276,12.294 9.312,14.024" id="Shape" fill="#747575"></path>
                                    <path d="M11.097,8.583 L2.442,3.226 C2.756,2.754 3.101,2.314 3.469,1.92 L12.124,7.277 C11.756,7.671 11.411,8.111 11.097,8.583" id="Shape" fill="#777878"></path>
                                    <path d="M12.124,7.277 L3.469,1.92 C3.732,1.639 4.007,1.381 4.292,1.154 L12.947,6.511 C12.663,6.738 12.388,6.995 12.124,7.277" id="Shape" fill="#7B7C7B"></path>
                                    <path d="M12.947,6.511 L4.292,1.154 C4.404,1.064 4.518,0.979 4.634,0.898 C4.758,0.81 4.883,0.73 5.006,0.656 L13.661,6.013 C13.537,6.086 13.413,6.167 13.289,6.255 C13.173,6.335 13.06,6.421 12.947,6.511" id="Shape" fill="#7E7F7E"></path>
                                    <path d="M13.661,6.013 L5.006,0.656 C5.21,0.535 5.413,0.433 5.613,0.352 L14.268,5.709 C14.068,5.79 13.865,5.892 13.661,6.013" id="Shape" fill="#818281"></path>
                                    <path d="M14.268,5.709 L5.613,0.352 C5.821,0.267 6.027,0.205 6.228,0.164 L14.883,5.521 C14.681,5.562 14.476,5.625 14.268,5.709" id="Shape" fill="#848584"></path>
                                    <path d="M14.883,5.521 L6.228,0.164 C6.327,0.144 6.424,0.13 6.521,0.12 L15.176,5.477 C15.079,5.487 14.982,5.501 14.883,5.521" id="Shape" fill="#878887"></path>
                                </g>
                            </g>
                        </g>
                        <path d="M2.576,20.073 L23.091,8.256 L43.896,20.045 L23.188,31.975 L2.576,20.073 Z" id="Shape" fill="#C2C3C4"></path>
                        <path d="M23.188,29 L38.646,20.073 L20.611,9.688 L5.153,18.589 L23.188,29 Z" id="Shape" fill="#818281"></path>
                        <path d="M38.646,20.073 L28.311,14.073 L28.341,8.173 L36.279,13.044 L38.577,17.099 L38.646,20.073 Z" id="Shape" fill="#606161"></path>
                        <path d="M36.294,21.588 L30.436,18.187 L30.453,14.844 L34.952,17.605 L36.254,19.903 L36.294,21.588 Z" id="Shape" fill="#606161"></path>
                        <g transform="translate(19.000000, 12.000000)">
                            <g id="Clipped" transform="translate(6.000000, 0.000000)">
                                <mask id="mask-6" fill="white">
                                    <use xlink:href="#path-5"></use>
                                </mask>
                                <g id="SVGID_5_"></g>
                                <g id="Group" mask="url(#mask-6)">
                                    <path d="M9.176,5.478 L0.521,0.121 C1.031,0.072 1.484,0.174 1.86,0.406 L10.493,5.978 C10.116,5.746 9.686,5.428 9.176,5.478" id="Shape" fill="#878887"></path>
                                    <path d="M10.518,5.983 L1.86,0.405 L1.862,0.407 L10.518,5.983 L10.493,5.978" id="Shape" fill="#848584"></path>
                                </g>
                            </g>
                            <path d="M9.313,14.025 C9.257,11.316 11.039,7.826 13.289,6.255 C13.938,5.797 14.578,5.535 15.176,5.478 C16.68,5.333 17.684,7.312 17.724,9.254 M17.218,9.573 C17.184,7.919 16.406,5.876 15.186,5.994 C14.682,6.042 14.114,6.279 13.545,6.678 C11.433,8.157 9.76,11.178 9.813,13.724" id="Shape" fill="#ADADAB"></path>
                            <g id="Clipped">
                                <mask id="mask-8" fill="white">
                                    <use xlink:href="#path-7"></use>
                                </mask>
                                <g id="SVGID_7_"></g>
                                <g id="Group" mask="url(#mask-8)">
                                    <path d="M0.657,8.667 C0.621,6.937 1.335,4.889 2.441,3.225 L11.096,8.582 C9.99,10.246 9.276,12.294 9.312,14.024" id="Shape" fill="#747575"></path>
                                    <path d="M11.097,8.583 L2.442,3.226 C2.756,2.754 3.101,2.314 3.469,1.92 L12.124,7.277 C11.756,7.671 11.411,8.111 11.097,8.583" id="Shape" fill="#777878"></path>
                                    <path d="M12.124,7.277 L3.469,1.92 C3.732,1.639 4.007,1.381 4.292,1.154 L12.947,6.511 C12.663,6.738 12.388,6.995 12.124,7.277" id="Shape" fill="#7B7C7B"></path>
                                    <path d="M12.947,6.511 L4.292,1.154 C4.404,1.064 4.518,0.979 4.634,0.898 C4.758,0.81 4.883,0.73 5.006,0.656 L13.661,6.013 C13.537,6.086 13.413,6.167 13.289,6.255 C13.173,6.335 13.06,6.421 12.947,6.511" id="Shape" fill="#7E7F7E"></path>
                                    <path d="M13.661,6.013 L5.006,0.656 C5.21,0.535 5.413,0.433 5.613,0.352 L14.268,5.709 C14.068,5.79 13.865,5.892 13.661,6.013" id="Shape" fill="#818281"></path>
                                    <path d="M14.268,5.709 L5.613,0.352 C5.821,0.267 6.027,0.205 6.228,0.164 L14.883,5.521 C14.681,5.562 14.476,5.625 14.268,5.709" id="Shape" fill="#848584"></path>
                                    <path d="M14.883,5.521 L6.228,0.164 C6.327,0.144 6.424,0.13 6.521,0.12 L15.176,5.477 C15.079,5.487 14.982,5.501 14.883,5.521" id="Shape" fill="#878887"></path>
                                </g>
                            </g>
                        </g>
                        <g transform="translate(6.000000, 2.000000)">
                            <g id="Clipped" transform="translate(11.000000, 0.000000)">
                                <mask id="mask-10" fill="white">
                                    <use xlink:href="#path-9"></use>
                                </mask>
                                <g id="SVGID_9_"></g>
                                <g id="Group" mask="url(#mask-10)">
                                    <path d="M17.605,10.609 L0.865,0.248 C1.852,0.153 2.727,0.35 3.454,0.799 L20.15,11.576 C19.424,11.128 18.592,10.514 17.605,10.609" id="Shape" fill="#878887"></path>
                                    <path d="M20.2,11.587 L3.455,0.799 L3.46,0.802 L20.2,11.587 L20.151,11.576" id="Shape" fill="#848584"></path>
                                </g>
                            </g>
                            <path d="M17.265,27.14 C17.157,21.902 20.603,15.151 24.955,12.113 C26.21,11.227 27.447,10.721 28.605,10.61 C31.513,10.331 33.455,14.157 33.532,17.913 M32.555,18.529 C32.489,15.33 30.985,11.379 28.626,11.606 C27.651,11.7 26.552,12.156 25.452,12.928 C21.367,15.787 18.132,21.631 18.234,26.555" id="Shape" fill="#ADADAB"></path>
                            <g id="Clipped">
                                <mask id="mask-12" fill="white">
                                    <use xlink:href="#path-11"></use>
                                </mask>
                                <g id="SVGID_11_"></g>
                                <g id="Group" mask="url(#mask-12)">
                                    <path d="M0.523,17.402 C0.454,14.057 1.837,9.472 3.977,6.254 L20.717,16.615 C18.577,19.833 17.197,23.795 17.266,27.14" id="Shape" fill="#747575"></path>
                                    <path d="M20.716,16.615 L3.977,6.254 C4.583,5.342 5.251,4.49 5.964,3.728 L22.704,14.089 C21.99,14.851 21.323,15.703 20.716,16.615" id="Shape" fill="#777878"></path>
                                    <path d="M22.703,14.089 L5.964,3.728 C6.473,3.184 7.005,2.686 7.555,2.246 L24.295,12.607 C23.745,13.047 23.212,13.545 22.703,14.089" id="Shape" fill="#7B7C7B"></path>
                                    <path d="M24.294,12.607 L7.555,2.246 C7.773,2.072 7.993,1.907 8.216,1.751 C8.457,1.581 8.697,1.425 8.936,1.283 L25.676,11.644 C25.437,11.786 25.197,11.942 24.956,12.112 C24.732,12.268 24.512,12.433 24.294,12.607" id="Shape" fill="#7E7F7E"></path>
                                    <path d="M25.674,11.645 L8.935,1.284 C9.33,1.05 9.722,0.853 10.109,0.696 L26.849,11.057 C26.461,11.214 26.069,11.41 25.674,11.645" id="Shape" fill="#818281"></path>
                                    <path d="M26.848,11.057 L10.109,0.696 C10.512,0.533 10.909,0.411 11.299,0.333 L28.039,10.694 C27.649,10.773 27.251,10.894 26.848,11.057" id="Shape" fill="#848584"></path>
                                    <path d="M28.038,10.694 L11.299,0.333 C11.49,0.295 11.679,0.266 11.866,0.248 L28.606,10.609 C28.418,10.627 28.229,10.655 28.038,10.694" id="Shape" fill="#878887"></path>
                                </g>
                            </g>
                        </g>
                        <path d="M2.576,20.073 L2.576,23.049 L23.188,34.949 L23.188,31.975 L2.576,20.073 Z" id="Shape" fill="#818281"></path>
                        <path d="M43.896,20.045 L43.851,23.019 L23.188,34.949 L23.188,31.975 L43.896,20.045 Z" id="Shape" fill="#818281"></path>
                        <g transform="translate(29.000000, 2.000000)" id="Shape">
                            <path d="M0.978,0.67 L1.708,1.091 L1.708,9.524 L0.978,9.102 L0.978,0.67 Z" fill="#606161"></path>
                            <path d="M2.438,0.67 L1.708,1.091 L0.978,0.67 L1.708,0.248 L2.438,0.67 Z" fill="#6C6C6D"></path>
                            <path d="M1.708,9.524 L2.438,9.102 L2.438,0.67 L1.708,1.091 L1.708,9.524 Z" fill="#818281"></path>
                        </g>
                        <path d="M31.438,2.67 L35.495,0.405 L35.495,2.67 L31.438,5.153 L31.438,2.67 Z" id="Shape" fill="#C2C3C4"></path>
                        <path d="M34.765,0 L35.495,0.405 L31.438,2.67 L30.723,2.257 L34.765,0 Z" id="Shape" fill="#818281"></path>
                    </g>
                </g>
            </g>
        </g>
    </g>
</svg>